<?xml version="1.0" encoding="utf-8"?>
<!-- Generator: Adobe Adobe Illustrator 24.2.0, SVG Export Plug-In . SVG Version: 6.00 Build 0)  -->
<svg version="1.1" id="Cut" xmlns="http://www.w3.org/2000/svg" xmlns:xlink="http://www.w3.org/1999/xlink" x="0px" y="0px"
	 width="864px" height="360px" viewBox="0 0 864 360" style="enable-background:new 0 0 864 360;" xml:space="preserve">
<style type="text/css">
	.st0{fill:none;stroke:#000000;stroke-miterlimit:10;}
</style>
<polygon class="st0" points="0,0.15 0,287.92 144,288 144,216 72,216 72.01,0 "/>
<polygon class="st0" points="72.2,0 144,0 144,144 216,144 216,288 144,288 144,216 72,216 "/>
<polygon class="st0" points="648,288 648,360 864,360 864,144.06 792,144 792,288 "/>
<polygon class="st0" points="864,72 864,144 792,144 792,288 648,288 648,216 720,216 720,72 "/>
<polygon class="st0" points="864,0 864,72.05 720,72 720,144 648,144 648,72 576,72 576,0 "/>
<polygon class="st0" points="720,144 720,216 648,216 647.66,360 576.72,360 576,288 504,288 504,216 576,216 576,144 "/>
<polygon class="st0" points="504,0 576,0 576,72 648,72 648,144 576,144 576,216 504,216 504,144 432,144 432,72 504,72 "/>
<polygon class="st0" points="360,0 504,0 503.91,72 432,72 432,144 360,144 360,216 288,216 288,72 360,72 "/>
<polygon class="st0" points="0,288 0,359.72 360,360 360,288 "/>
<polygon class="st0" points="216,144 216,288 432,288 432,144 360,144 360,216 288,216 288,144 "/>
<polygon class="st0" points="432,144 432,288 360,288 360.09,360 577.11,360 576,288 504,288 504,144 "/>
<polygon class="st0" points="144,0 144,144 288,144 288,72 360,72 360,0 "/>
</svg>
