<?xml version="1.0" encoding="utf-8"?>
<!-- Generator: Adobe Adobe Illustrator 24.2.0, SVG Export Plug-In . SVG Version: 6.00 Build 0)  -->
<svg version="1.1" xmlns="http://www.w3.org/2000/svg" xmlns:xlink="http://www.w3.org/1999/xlink" x="0px" y="0px" width="360px"
	 height="360px" viewBox="0 0 360 360" style="enable-background:new 0 0 360 360;" xml:space="preserve">
<style type="text/css">
	.st0{fill:none;stroke:#000000;stroke-miterlimit:10;}
</style>
<g id="Layer_2">
	<rect x="0" class="st0" width="360" height="360"/>
	<g id="Layer_1_1_">
		<g>
			<g>
				<g>
					<path d="M297.7,315.43c0-3.95,0-7.91,0-11.86c0-0.56,0-1.12,0-1.68c0-0.85-1.49,0.21-1.49,0.81c0,3.95,0,7.91,0,11.86
						c0,0.56,0,1.12,0,1.68C296.22,317.09,297.7,316.03,297.7,315.43L297.7,315.43z"/>
				</g>
			</g>
			<g>
				<g>
					<path d="M297.7,342.51c0-3.07,0-6.13,0-9.19c0-4.85,0-9.69,0-14.54c0-1.12,0-2.23,0-3.35c0-0.85-1.49,0.21-1.49,0.81
						c0,3.07,0,6.13,0,9.19c0,4.85,0,9.69,0,14.54c0,1.12,0,2.23,0,3.35C296.22,344.17,297.7,343.11,297.7,342.51L297.7,342.51z"/>
				</g>
			</g>
			<g>
				<g>
					<path d="M304.14,342.18c-1.98,0-3.95,0-5.93,0c-0.28,0-0.56,0-0.84,0c-0.42,0-0.85,0.45-1.03,0.79
						c-0.15,0.28-0.21,0.69,0.22,0.69c1.98,0,3.95,0,5.93,0c0.28,0,0.56,0,0.84,0c0.42,0,0.85-0.45,1.03-0.79
						C304.5,342.59,304.56,342.18,304.14,342.18L304.14,342.18z"/>
				</g>
			</g>
			<g>
				<g>
					<path d="M302.99,323.01c0,2.29,0,4.58,0,6.87c0,3.65,0,7.29,0,10.94c0,0.83,0,1.67,0,2.5c0,0.85,1.49-0.21,1.49-0.81
						c0-2.29,0-4.58,0-6.87c0-3.65,0-7.29,0-10.94c0-0.83,0-1.67,0-2.5C304.47,321.35,302.99,322.41,302.99,323.01L302.99,323.01z"
						/>
				</g>
			</g>
			<g>
				<g>
					<path d="M299.6,319.63c0,2.96,0,5.92,0,8.87c0,0.43,0,0.85,0,1.28c0,0.85,1.49-0.21,1.49-0.81c0-2.96,0-5.92,0-8.87
						c0-0.43,0-0.85,0-1.28C301.09,317.96,299.6,319.03,299.6,319.63L299.6,319.63z"/>
				</g>
			</g>
			<g>
				<g>
					<path d="M296.55,299.65c1.91,0,3.82,0,5.73,0c3.03,0,6.06,0,9.09,0c0.7,0,1.4,0,2.1,0c0.42,0,0.85-0.45,1.03-0.79
						c0.15-0.28,0.21-0.69-0.22-0.69c-1.91,0-3.82,0-5.73,0c-3.03,0-6.06,0-9.09,0c-0.7,0-1.4,0-2.1,0c-0.42,0-0.85,0.45-1.03,0.79
						C296.19,299.23,296.13,299.65,296.55,299.65L296.55,299.65z"/>
				</g>
			</g>
			<g>
				<g>
					<path d="M299.6,302.7c0,3.95,0,7.91,0,11.86c0,0.56,0,1.12,0,1.68c0,0.85,1.49-0.21,1.49-0.81c0-3.95,0-7.91,0-11.86
						c0-0.56,0-1.12,0-1.68C301.09,301.04,299.6,302.1,299.6,302.7L299.6,302.7z"/>
				</g>
			</g>
			<g>
				<g>
					<path d="M296.55,316.57c0.99,0,1.98,0,2.96,0c0.14,0,0.28,0,0.42,0c0.18,0,0.41-0.14,0.55-0.24c0.18-0.14,0.38-0.34,0.48-0.55
						c0.14-0.28,0.21-0.69-0.22-0.69c-0.99,0-1.98,0-2.96,0c-0.14,0-0.28,0-0.42,0c-0.18,0-0.41,0.14-0.55,0.24
						c-0.18,0.14-0.38,0.34-0.48,0.55C296.19,316.16,296.12,316.57,296.55,316.57L296.55,316.57z"/>
				</g>
			</g>
			<g>
				<g>
					<path d="M302.99,306.08c0,2.96,0,5.92,0,8.87c0,0.43,0,0.85,0,1.28c0,0.85,1.49-0.21,1.49-0.81c0-2.96,0-5.92,0-8.87
						c0-0.43,0-0.85,0-1.28C304.47,304.42,302.99,305.49,302.99,306.08L302.99,306.08z"/>
				</g>
			</g>
			<g>
				<g>
					<path d="M310.91,315.09c-1.98,0-3.95,0-5.93,0c-0.28,0-0.56,0-0.84,0c-0.42,0-0.85,0.45-1.03,0.79
						c-0.15,0.28-0.21,0.69,0.22,0.69c1.98,0,3.95,0,5.93,0c0.28,0,0.56,0,0.84,0c0.42,0,0.85-0.45,1.03-0.79
						C311.27,315.51,311.33,315.09,310.91,315.09L310.91,315.09z"/>
				</g>
			</g>
			<g>
				<g>
					<path d="M310.91,304.94c-1.98,0-3.95,0-5.93,0c-0.28,0-0.56,0-0.84,0c-0.42,0-0.85,0.45-1.03,0.79
						c-0.15,0.28-0.21,0.69,0.22,0.69c1.98,0,3.95,0,5.93,0c0.28,0,0.56,0,0.84,0c0.42,0,0.85-0.45,1.03-0.79
						C311.27,305.35,311.33,304.94,310.91,304.94L310.91,304.94z"/>
				</g>
			</g>
			<g>
				<g>
					<path d="M313.15,311.16c0,0.6-0.07,1.21-0.21,1.73c-0.08,0.27-0.17,0.54-0.27,0.81c-0.03,0.08,0.05-0.09-0.02,0.04
						c-0.03,0.06-0.06,0.12-0.09,0.19c-0.06,0.12-0.13,0.24-0.2,0.35c0.08-0.12,0.03-0.05-0.02,0.03c-0.03,0.05-0.06,0.09-0.1,0.13
						c-0.04,0.05-0.08,0.1-0.12,0.15c-0.07,0.1,0.14-0.15,0.02-0.02c-0.05,0.05-0.09,0.09-0.13,0.13c-0.02,0.02-0.05,0.04-0.07,0.06
						c-0.06,0.05-0.03,0.03,0.08-0.07c-0.03,0-0.12,0.09-0.14,0.11c-0.02,0.01-0.03,0.02-0.05,0.03c-0.08,0.06-0.06,0.05,0.05-0.03
						c0.01,0.02-0.26,0.14-0.27,0.15c-0.08,0.05,0.14-0.05,0.01,0c-0.05,0.02-0.11,0.04-0.16,0.06c-0.05,0.02-0.11,0.03-0.16,0.05
						c0.15-0.04-0.02,0-0.05,0c-0.11,0.02-0.22,0.02-0.33,0.02c-0.41,0-0.86,0.45-1.03,0.79c-0.14,0.27-0.21,0.7,0.22,0.69
						c1.34-0.02,2.54-0.97,3.26-2.03c0.85-1.23,1.26-2.7,1.27-4.19c0-0.41-0.43-0.37-0.69-0.22
						C313.61,310.32,313.15,310.74,313.15,311.16L313.15,311.16z"/>
				</g>
			</g>
			<g>
				<g>
					<path d="M316.53,312.85c-0.01,1.43-0.21,3.02-0.79,4.27c-0.06,0.13-0.13,0.26-0.2,0.39c-0.03,0.06-0.07,0.12-0.11,0.18
						c-0.13,0.23,0.1-0.12-0.05,0.08c-0.08,0.11-0.15,0.21-0.23,0.31c-0.15,0.19,0.14-0.13-0.03,0.03
						c-0.04,0.04-0.09,0.08-0.13,0.12c-0.08,0.09,0.15-0.11,0.01-0.01c-0.06,0.04-0.11,0.08-0.16,0.12c0.23-0.16-0.23,0.1-0.01,0
						c-0.09,0.04-0.19,0.07-0.29,0.09c0.14-0.03-0.05,0-0.06,0c-0.06,0-0.12,0.01-0.18,0.01c-0.42,0.01-0.84,0.45-1.03,0.79
						c-0.15,0.27-0.21,0.7,0.22,0.69c1.5-0.03,2.69-1.4,3.34-2.62c0.86-1.61,1.18-3.49,1.19-5.3c0-0.42-0.42-0.36-0.69-0.22
						C316.99,312,316.53,312.44,316.53,312.85L316.53,312.85z"/>
				</g>
			</g>
			<g>
				<g>
					<path d="M310.09,306.42c0.13,0,0.35,0.03,0.56,0.1c0.21,0.06,0.4,0.16,0.55,0.26c0.41,0.27,0.75,0.65,1.03,1.06
						c0.64,0.96,0.91,2.19,0.91,3.33c0,0.41,0.42,0.37,0.69,0.22c0.32-0.18,0.79-0.61,0.79-1.03c-0.01-2.21-1.05-5.38-3.72-5.41
						c-0.41,0-0.86,0.45-1.03,0.79C309.74,306.01,309.67,306.41,310.09,306.42L310.09,306.42z"/>
				</g>
			</g>
			<g>
				<g>
					<path d="M313.48,303.03c0.34,0.01,0.79,0.21,1.1,0.49c0.43,0.38,0.76,0.87,1.01,1.38c0.68,1.41,0.93,3.01,0.94,4.56
						c0,0.42,0.42,0.36,0.69,0.22c0.33-0.18,0.79-0.62,0.79-1.03c-0.01-1.7-0.26-3.49-1.05-5.01c-0.55-1.06-1.39-2.07-2.68-2.1
						c-0.42-0.01-0.85,0.46-1.03,0.79C313.11,302.62,313.06,303.03,313.48,303.03L313.48,303.03z"/>
				</g>
			</g>
			<g>
				<g>
					<path d="M319.92,316.24c-0.01,0.84-0.15,1.65-0.48,2.42c-0.05,0.11-0.12,0.26-0.2,0.42c-0.05,0.09-0.1,0.18-0.15,0.27
						c-0.01,0.02-0.15,0.23-0.06,0.11c-0.11,0.17-0.24,0.34-0.37,0.5c-0.04,0.05-0.08,0.09-0.11,0.14c0.06-0.07,0.06-0.08,0.02-0.02
						c-0.07,0.08-0.14,0.15-0.21,0.22c-0.06,0.06-0.13,0.12-0.19,0.18c-0.08,0.08-0.09,0.08-0.01,0.01
						c-0.05,0.04-0.09,0.08-0.14,0.11c-0.15,0.12-0.3,0.23-0.46,0.34c-0.05,0.03-0.05,0.03,0.01,0c-0.05,0.03-0.1,0.06-0.15,0.09
						c-0.08,0.05-0.15,0.09-0.23,0.13c-0.17,0.09-0.34,0.18-0.46,0.23c-0.77,0.32-1.59,0.47-2.42,0.48c-0.42,0-0.85,0.45-1.03,0.79
						c-0.15,0.27-0.21,0.7,0.22,0.69c4.19-0.03,7.89-3.72,7.92-7.92c0-0.42-0.42-0.36-0.69-0.22
						C320.38,315.39,319.92,315.83,319.92,316.24L319.92,316.24z"/>
				</g>
			</g>
			<g>
				<g>
					<path d="M313.48,299.65c3.48,0.02,6.41,2.95,6.44,6.44c0,0.42,0.42,0.36,0.69,0.22c0.33-0.18,0.79-0.62,0.79-1.03
						c-0.01-1.88-0.72-3.71-2.06-5.05c-1.34-1.34-3.16-2.05-5.05-2.06c-0.42,0-0.85,0.46-1.03,0.79
						C313.11,299.23,313.05,299.64,313.48,299.65L313.48,299.65z"/>
				</g>
			</g>
			<g>
				<g>
					<path d="M314.29,321.86c-2.96,0-5.92,0-8.87,0c-0.43,0-0.85,0-1.28,0c-0.42,0-0.85,0.45-1.03,0.79
						c-0.15,0.28-0.21,0.69,0.22,0.69c2.96,0,5.92,0,8.87,0c0.43,0,0.85,0,1.28,0c0.42,0,0.85-0.45,1.03-0.79
						C314.66,322.28,314.72,321.86,314.29,321.86L314.29,321.86z"/>
				</g>
			</g>
			<g>
				<g>
					<path d="M321.4,305.27c0-1.98,0-3.95,0-5.93c0-0.28,0-0.56,0-0.84c0-0.42-0.42-0.36-0.69-0.22c-0.33,0.18-0.79,0.61-0.79,1.03
						c0,1.98,0,3.95,0,5.93c0,0.28,0,0.56,0,0.84c0,0.42,0.42,0.36,0.69,0.22C320.94,306.12,321.4,305.68,321.4,305.27L321.4,305.27
						z"/>
				</g>
			</g>
			<g>
				<g>
					<path d="M321.4,342.51c0-3.07,0-6.13,0-9.19c0-4.85,0-9.69,0-14.54c0-1.12,0-2.23,0-3.35c0-0.85-1.49,0.21-1.49,0.81
						c0,3.07,0,6.13,0,9.19c0,4.85,0,9.69,0,14.54c0,1.12,0,2.23,0,3.35C319.92,344.17,321.4,343.11,321.4,342.51L321.4,342.51z"/>
				</g>
			</g>
			<g>
				<g>
					<path d="M327.83,342.18c-1.98,0-3.95,0-5.93,0c-0.28,0-0.56,0-0.84,0c-0.42,0-0.85,0.45-1.03,0.79
						c-0.15,0.28-0.21,0.69,0.22,0.69c1.98,0,3.95,0,5.93,0c0.28,0,0.56,0,0.84,0c0.42,0,0.85-0.45,1.03-0.79
						C328.2,342.59,328.26,342.18,327.83,342.18L327.83,342.18z"/>
				</g>
			</g>
			<g>
				<g>
					<path d="M326.69,323.01c0,1.91,0,3.82,0,5.73c0,3.03,0,6.06,0,9.09c0,0.7,0,1.4,0,2.1c0,0.85,1.49-0.21,1.49-0.81
						c0-1.91,0-3.82,0-5.73c0-3.03,0-6.06,0-9.09c0-0.7,0-1.4,0-2.1C328.17,321.35,326.69,322.41,326.69,323.01L326.69,323.01z"/>
				</g>
			</g>
			<g>
				<g>
					<path d="M323.3,312.85c0,3.95,0,7.91,0,11.86c0,0.56,0,1.12,0,1.68c0,0.85,1.49-0.21,1.49-0.81c0-3.95,0-7.91,0-11.86
						c0-0.56,0-1.12,0-1.68C324.78,311.19,323.3,312.26,323.3,312.85L323.3,312.85z"/>
				</g>
			</g>
			<g>
				<g>
					<path d="M343.62,306.08c0,2.96,0,5.92,0,8.87c0,0.43,0,0.85,0,1.28c0,0.85,1.49-0.21,1.49-0.81c0-2.96,0-5.92,0-8.87
						c0-0.43,0-0.85,0-1.28C345.1,304.42,343.62,305.49,343.62,306.08L343.62,306.08z"/>
				</g>
			</g>
			<g>
				<g>
					<path d="M320.25,299.65c1.91,0,3.82,0,5.73,0c3.03,0,6.06,0,9.09,0c0.7,0,1.4,0,2.1,0c0.42,0,0.85-0.45,1.03-0.79
						c0.15-0.28,0.21-0.69-0.22-0.69c-1.91,0-3.82,0-5.73,0c-3.03,0-6.06,0-9.09,0c-0.7,0-1.4,0-2.1,0c-0.42,0-0.85,0.45-1.03,0.79
						C319.89,299.23,319.83,299.65,320.25,299.65L320.25,299.65z"/>
				</g>
			</g>
			<g>
				<g>
					<path d="M323.3,302.7c0,1.98,0,3.95,0,5.93c0,0.28,0,0.56,0,0.84c0,0.42,0.42,0.36,0.69,0.22c0.33-0.18,0.79-0.61,0.79-1.03
						c0-1.98,0-3.95,0-5.93c0-0.28,0-0.56,0-0.84c0-0.42-0.42-0.36-0.69-0.22C323.76,301.84,323.3,302.28,323.3,302.7L323.3,302.7z"
						/>
				</g>
			</g>
			<g>
				<g>
					<path d="M316.87,313.19c1.98,0,3.95,0,5.93,0c0.28,0,0.56,0,0.84,0c0.42,0,0.85-0.45,1.03-0.79c0.15-0.28,0.21-0.69-0.22-0.69
						c-1.98,0-3.95,0-5.93,0c-0.28,0-0.56,0-0.84,0c-0.42,0-0.85,0.45-1.03,0.79C316.5,312.78,316.44,313.19,316.87,313.19
						L316.87,313.19z"/>
				</g>
			</g>
			<g>
				<g>
					<path d="M316.87,309.8c1.98,0,3.95,0,5.93,0c0.28,0,0.56,0,0.84,0c0.42,0,0.85-0.45,1.03-0.79c0.15-0.28,0.21-0.69-0.22-0.69
						c-1.98,0-3.95,0-5.93,0c-0.28,0-0.56,0-0.84,0c-0.42,0-0.85,0.45-1.03,0.79C316.5,309.39,316.44,309.8,316.87,309.8
						L316.87,309.8z"/>
				</g>
			</g>
			<g>
				<g>
					<path d="M326.69,306.08c0,2.96,0,5.92,0,8.87c0,0.43,0,0.85,0,1.28c0,0.85,1.49-0.21,1.49-0.81c0-2.96,0-5.92,0-8.87
						c0-0.43,0-0.85,0-1.28C328.17,304.42,326.69,305.49,326.69,306.08L326.69,306.08z"/>
				</g>
			</g>
			<g>
				<g>
					<path d="M334.61,315.09c-1.98,0-3.95,0-5.93,0c-0.28,0-0.56,0-0.84,0c-0.42,0-0.85,0.45-1.03,0.79
						c-0.15,0.28-0.21,0.69,0.22,0.69c1.98,0,3.95,0,5.93,0c0.28,0,0.56,0,0.84,0c0.42,0,0.85-0.45,1.03-0.79
						C334.97,315.51,335.03,315.09,334.61,315.09L334.61,315.09z"/>
				</g>
			</g>
			<g>
				<g>
					<path d="M334.61,304.94c-1.98,0-3.95,0-5.93,0c-0.28,0-0.56,0-0.84,0c-0.42,0-0.85,0.45-1.03,0.79
						c-0.15,0.28-0.21,0.69,0.22,0.69c1.98,0,3.95,0,5.93,0c0.28,0,0.56,0,0.84,0c0.42,0,0.85-0.45,1.03-0.79
						C334.97,305.35,335.03,304.94,334.61,304.94L334.61,304.94z"/>
				</g>
			</g>
			<g>
				<g>
					<path d="M336.84,311.16c0,0.6-0.07,1.21-0.21,1.73c-0.08,0.27-0.17,0.54-0.27,0.81c-0.03,0.08,0.05-0.09-0.02,0.04
						c-0.03,0.06-0.06,0.12-0.09,0.19c-0.06,0.12-0.13,0.24-0.2,0.35c0.08-0.12,0.03-0.05-0.02,0.03c-0.03,0.05-0.06,0.09-0.1,0.13
						c-0.04,0.05-0.08,0.1-0.12,0.15c-0.07,0.1,0.14-0.15,0.02-0.02c-0.05,0.05-0.09,0.09-0.13,0.13c-0.02,0.02-0.05,0.04-0.07,0.06
						c-0.06,0.05-0.03,0.03,0.08-0.07c-0.03,0-0.12,0.09-0.14,0.11c-0.02,0.01-0.03,0.02-0.05,0.03c-0.08,0.06-0.06,0.05,0.05-0.03
						c0.01,0.02-0.26,0.14-0.27,0.15c-0.08,0.05,0.14-0.05,0.01,0c-0.05,0.02-0.11,0.04-0.16,0.06c-0.05,0.02-0.11,0.03-0.16,0.05
						c0.15-0.04-0.02,0-0.05,0c-0.11,0.02-0.22,0.02-0.33,0.02c-0.41,0-0.86,0.45-1.03,0.79c-0.14,0.27-0.21,0.7,0.22,0.69
						c1.34-0.02,2.54-0.97,3.26-2.03c0.85-1.23,1.26-2.7,1.27-4.19c0-0.41-0.43-0.37-0.69-0.22
						C337.31,310.32,336.84,310.74,336.84,311.16L336.84,311.16z"/>
				</g>
			</g>
			<g>
				<g>
					<path d="M340.23,312.85c-0.01,1.43-0.21,3.02-0.79,4.27c-0.06,0.13-0.13,0.26-0.2,0.39c-0.03,0.06-0.07,0.12-0.11,0.18
						c-0.13,0.23,0.1-0.12-0.05,0.08c-0.08,0.11-0.15,0.21-0.23,0.31c-0.15,0.19,0.14-0.13-0.03,0.03
						c-0.04,0.04-0.09,0.08-0.13,0.12c-0.08,0.09,0.15-0.11,0.01-0.01c-0.06,0.04-0.11,0.08-0.16,0.12c0.23-0.16-0.23,0.1-0.01,0
						c-0.09,0.04-0.19,0.07-0.29,0.09c0.14-0.03-0.05,0-0.06,0c-0.06,0-0.12,0.01-0.18,0.01c-0.42,0.01-0.84,0.45-1.03,0.79
						c-0.15,0.27-0.21,0.7,0.22,0.69c1.5-0.03,2.69-1.4,3.34-2.62c0.86-1.61,1.18-3.49,1.19-5.3c0-0.42-0.42-0.36-0.69-0.22
						C340.69,312,340.23,312.44,340.23,312.85L340.23,312.85z"/>
				</g>
			</g>
			<g>
				<g>
					<path d="M333.79,306.42c0.13,0,0.35,0.03,0.56,0.1c0.21,0.06,0.4,0.16,0.55,0.26c0.41,0.27,0.75,0.65,1.03,1.06
						c0.64,0.96,0.91,2.19,0.91,3.33c0,0.41,0.42,0.37,0.69,0.22c0.32-0.18,0.79-0.61,0.79-1.03c-0.01-2.21-1.05-5.38-3.72-5.41
						c-0.41,0-0.86,0.45-1.03,0.79C333.44,306.01,333.36,306.41,333.79,306.42L333.79,306.42z"/>
				</g>
			</g>
			<g>
				<g>
					<path d="M337.18,303.03c0.34,0.01,0.79,0.21,1.1,0.49c0.43,0.38,0.76,0.87,1.01,1.38c0.68,1.41,0.93,3.01,0.94,4.56
						c0,0.42,0.42,0.36,0.69,0.22c0.33-0.18,0.79-0.62,0.79-1.03c-0.01-1.7-0.26-3.49-1.05-5.01c-0.55-1.06-1.39-2.07-2.68-2.1
						c-0.42-0.01-0.85,0.46-1.03,0.79C336.81,302.62,336.76,303.03,337.18,303.03L337.18,303.03z"/>
				</g>
			</g>
			<g>
				<g>
					<path d="M343.62,316.24c-0.01,0.84-0.15,1.65-0.48,2.42c-0.05,0.11-0.12,0.26-0.2,0.42c-0.05,0.09-0.1,0.18-0.15,0.27
						c-0.01,0.02-0.15,0.23-0.06,0.11c-0.11,0.17-0.24,0.34-0.37,0.5c-0.04,0.05-0.08,0.09-0.11,0.14c0.06-0.07,0.06-0.08,0.02-0.02
						c-0.07,0.08-0.14,0.15-0.21,0.22c-0.06,0.06-0.13,0.12-0.19,0.18c-0.08,0.08-0.09,0.08-0.01,0.01
						c-0.05,0.04-0.09,0.08-0.14,0.11c-0.15,0.12-0.3,0.23-0.46,0.34c-0.05,0.03-0.05,0.03,0.01,0c-0.05,0.03-0.1,0.06-0.15,0.09
						c-0.08,0.05-0.15,0.09-0.23,0.13c-0.17,0.09-0.34,0.18-0.46,0.23c-0.77,0.32-1.59,0.47-2.42,0.48c-0.42,0-0.85,0.45-1.03,0.79
						c-0.15,0.27-0.21,0.7,0.22,0.69c4.19-0.03,7.89-3.72,7.92-7.92c0-0.42-0.42-0.36-0.69-0.22
						C344.07,315.39,343.62,315.83,343.62,316.24L343.62,316.24z"/>
				</g>
			</g>
			<g>
				<g>
					<path d="M337.18,299.65c3.48,0.02,6.41,2.95,6.44,6.44c0,0.42,0.42,0.36,0.69,0.22c0.33-0.18,0.79-0.62,0.79-1.03
						c-0.01-1.88-0.72-3.71-2.06-5.05c-1.34-1.34-3.16-2.05-5.05-2.06c-0.42,0-0.85,0.46-1.03,0.79
						C336.81,299.23,336.75,299.64,337.18,299.65L337.18,299.65z"/>
				</g>
			</g>
			<g>
				<g>
					<path d="M337.99,321.86c-2.96,0-5.92,0-8.87,0c-0.43,0-0.85,0-1.28,0c-0.42,0-0.85,0.45-1.03,0.79
						c-0.15,0.28-0.21,0.69,0.22,0.69c2.96,0,5.92,0,8.87,0c0.43,0,0.85,0,1.28,0c0.42,0,0.85-0.45,1.03-0.79
						C338.36,322.28,338.42,321.86,337.99,321.86L337.99,321.86z"/>
				</g>
			</g>
			<g>
				<g>
					<path d="M301.09,339.13c0-1.97,0-3.95,0-5.92c0-0.29,0-0.57,0-0.85c0-0.42-0.42-0.36-0.69-0.22c-0.33,0.18-0.79,0.61-0.79,1.03
						c0,1.97,0,3.95,0,5.92c0,0.29,0,0.57,0,0.85c0,0.42,0.42,0.36,0.69,0.22C300.62,339.98,301.09,339.54,301.09,339.13
						L301.09,339.13z"/>
				</g>
			</g>
			<g>
				<g>
					<path d="M323.64,340.27c0.99,0,1.98,0,2.96,0c0.14,0,0.28,0,0.42,0c0.18,0,0.41-0.14,0.55-0.24c0.18-0.14,0.38-0.34,0.48-0.55
						c0.14-0.28,0.21-0.69-0.22-0.69c-0.99,0-1.98,0-2.96,0c-0.14,0-0.28,0-0.42,0c-0.18,0-0.41,0.14-0.55,0.24
						c-0.18,0.14-0.38,0.34-0.48,0.55C323.28,339.86,323.21,340.27,323.64,340.27L323.64,340.27z"/>
				</g>
			</g>
			<g>
				<g>
					<path d="M323.64,326.73c0.99,0,1.98,0,2.96,0c0.14,0,0.28,0,0.42,0c0.18,0,0.41-0.14,0.55-0.24c0.18-0.14,0.38-0.34,0.48-0.55
						c0.14-0.28,0.21-0.69-0.22-0.69c-0.99,0-1.98,0-2.96,0c-0.14,0-0.28,0-0.42,0c-0.18,0-0.41,0.14-0.55,0.24
						c-0.18,0.14-0.38,0.34-0.48,0.55C323.28,326.32,323.21,326.73,323.64,326.73L323.64,326.73z"/>
				</g>
			</g>
			<g>
				<g>
					<path d="M324.78,335.74c0-1.98,0-3.95,0-5.93c0-0.28,0-0.56,0-0.84c0-0.42-0.42-0.36-0.69-0.22c-0.33,0.18-0.79,0.61-0.79,1.03
						c0,1.98,0,3.95,0,5.93c0,0.28,0,0.56,0,0.84c0,0.42,0.42,0.36,0.69,0.22C324.32,336.59,324.78,336.15,324.78,335.74
						L324.78,335.74z"/>
				</g>
			</g>
			<g>
				<g>
					<path d="M320.25,330.12c0.99,0,1.98,0,2.96,0c0.14,0,0.28,0,0.42,0c0.18,0,0.41-0.14,0.55-0.24c0.18-0.14,0.38-0.34,0.48-0.55
						c0.14-0.28,0.21-0.69-0.22-0.69c-0.99,0-1.98,0-2.96,0c-0.14,0-0.28,0-0.42,0c-0.18,0-0.41,0.14-0.55,0.24
						c-0.18,0.14-0.38,0.34-0.48,0.55C319.89,329.7,319.82,330.12,320.25,330.12L320.25,330.12z"/>
				</g>
			</g>
			<g>
				<g>
					<path d="M299.94,333.5c0.99,0,1.98,0,2.96,0c0.14,0,0.28,0,0.42,0c0.18,0,0.41-0.14,0.55-0.24c0.18-0.14,0.38-0.34,0.48-0.55
						c0.14-0.28,0.21-0.69-0.22-0.69c-0.99,0-1.98,0-2.96,0c-0.14,0-0.28,0-0.42,0c-0.18,0-0.41,0.14-0.55,0.24
						c-0.18,0.14-0.38,0.34-0.48,0.55C299.58,333.09,299.51,333.5,299.94,333.5L299.94,333.5z"/>
				</g>
			</g>
			<g>
				<g>
					<path d="M299.94,319.96c3.95,0,7.9,0,11.85,0c0.56,0,1.13,0,1.7,0c0.42,0,0.85-0.45,1.03-0.79c0.15-0.28,0.21-0.69-0.22-0.69
						c-3.95,0-7.9,0-11.85,0c-0.56,0-1.13,0-1.7,0c-0.42,0-0.85,0.45-1.03,0.79C299.57,319.55,299.51,319.96,299.94,319.96
						L299.94,319.96z"/>
				</g>
			</g>
			<g>
				<g>
					<path d="M311.24,318.81c0-0.99,0-1.98,0-2.96c0-0.14,0-0.28,0-0.42c0-0.41-0.42-0.37-0.69-0.22c-0.21,0.12-0.41,0.28-0.55,0.48
						c-0.11,0.15-0.24,0.35-0.24,0.55c0,0.99,0,1.98,0,2.96c0,0.14,0,0.28,0,0.42c0,0.41,0.42,0.37,0.69,0.22
						c0.21-0.12,0.41-0.28,0.55-0.48C311.11,319.21,311.24,319.01,311.24,318.81L311.24,318.81z"/>
				</g>
			</g>
			<g>
				<g>
					<path d="M333.46,316.24c0,1.98,0,3.95,0,5.93c0,0.28,0,0.56,0,0.84c0,0.42,0.42,0.36,0.69,0.22c0.33-0.18,0.79-0.61,0.79-1.03
						c0-1.98,0-3.95,0-5.93c0-0.28,0-0.56,0-0.84c0-0.42-0.42-0.36-0.69-0.22C333.92,315.39,333.46,315.83,333.46,316.24
						L333.46,316.24z"/>
				</g>
			</g>
			<g>
				<g>
					<path d="M331.22,318.48c-1.98,0-3.95,0-5.93,0c-0.28,0-0.56,0-0.84,0c-0.42,0-0.85,0.45-1.03,0.79
						c-0.15,0.28-0.21,0.69,0.22,0.69c1.98,0,3.95,0,5.93,0c0.28,0,0.56,0,0.84,0c0.42,0,0.85-0.45,1.03-0.79
						C331.59,318.89,331.65,318.48,331.22,318.48L331.22,318.48z"/>
				</g>
			</g>
			<g>
				<g>
					<path d="M323.64,303.03c3.95,0,7.91,0,11.86,0c0.56,0,1.12,0,1.68,0c0.42,0,0.85-0.45,1.03-0.79c0.15-0.28,0.21-0.69-0.22-0.69
						c-3.95,0-7.91,0-11.86,0c-0.56,0-1.12,0-1.68,0c-0.42,0-0.85,0.45-1.03,0.79C323.27,302.62,323.21,303.03,323.64,303.03
						L323.64,303.03z"/>
				</g>
			</g>
			<g>
				<g>
					<path d="M299.94,303.03c3.95,0,7.91,0,11.86,0c0.56,0,1.12,0,1.68,0c0.42,0,0.85-0.45,1.03-0.79c0.15-0.28,0.21-0.69-0.22-0.69
						c-3.95,0-7.91,0-11.86,0c-0.56,0-1.12,0-1.68,0c-0.42,0-0.85,0.45-1.03,0.79C299.57,302.62,299.51,303.03,299.94,303.03
						L299.94,303.03z"/>
				</g>
			</g>
			<g>
				<g>
					<path d="M340.23,309.47c0,0.99,0,1.98,0,2.96c0,0.14,0,0.28,0,0.42c0,0.41,0.42,0.37,0.69,0.22c0.21-0.12,0.41-0.28,0.55-0.48
						c0.11-0.15,0.24-0.35,0.24-0.55c0-0.99,0-1.98,0-2.96c0-0.14,0-0.28,0-0.42c0-0.41-0.42-0.37-0.69-0.22
						c-0.21,0.12-0.41,0.28-0.55,0.48C340.36,309.07,340.23,309.27,340.23,309.47L340.23,309.47z"/>
				</g>
			</g>
		</g>
	</g>
</g>
<g id="Layer_3">
	<g>
		<g id="Einstein_tesseslation">
			<polygon class="st0" points="231.1,86.45 241.29,69.07 271.6,86.5 301.82,69.02 311.91,86.55 332.18,86.43 332.06,121.53 
				301.85,138.93 311.96,156.49 301.85,173.96 271.53,156.39 271.57,121.4 251.45,121.52 			"/>
		</g>
	</g>
	<g>
		<g id="Einstein_tesseslation_5_">
			<polygon class="st0" points="231.1,86.45 241.29,69.07 271.6,86.5 301.82,69.02 311.91,86.55 332.18,86.43 332.06,121.53 
				301.85,138.93 311.96,156.49 301.85,173.96 271.53,156.39 271.57,121.4 251.45,121.52 			"/>
		</g>
	</g>
	<g>
		<g id="Einstein_tesseslation_8_">
			<polygon class="st0" points="130.35,121.44 120.4,103.92 150.65,86.39 150.62,51.48 170.84,51.5 180.87,33.89 211.21,51.54 
				211.17,86.41 231.44,86.44 241.51,103.92 211.14,121.4 180.85,103.87 170.9,121.35 			"/>
		</g>
	</g>
	<g>
		<g id="Einstein_tesseslation_7_">
			<polygon class="st0" points="109.11,226.6 119.31,209.22 149.62,226.65 179.83,209.17 189.93,226.7 210.2,226.58 210.08,261.68 
				179.87,279.08 189.97,296.64 179.87,314.11 149.55,296.54 149.58,261.55 129.46,261.67 			"/>
		</g>
	</g>
	<g>
		<g id="Einstein_tesseslation_10_">
			<polygon class="st0" points="190.62,296.31 180.67,278.79 210.92,261.25 210.89,226.35 231.11,226.37 241.14,208.75 
				271.48,226.41 271.44,261.27 291.71,261.3 301.78,278.79 271.41,296.26 241.12,278.73 231.17,296.22 			"/>
		</g>
	</g>
	<g>
		<g id="Einstein_tesseslation_4_">
			<polygon class="st0" points="230.6,226.54 240.58,209.05 210.37,191.45 210.47,156.54 190.25,156.52 180.25,138.89 
				149.88,156.48 149.84,191.34 129.58,191.33 119.47,208.8 149.81,226.33 180.13,208.87 190.05,226.37 			"/>
		</g>
	</g>
	<g>
		<g id="Einstein_tesseslation_3_">
			<polygon class="st0" points="169.85,121.66 179.8,139.18 149.55,156.72 149.58,191.62 129.36,191.6 119.33,209.22 88.99,191.56 
				89.02,156.7 68.76,156.67 58.69,139.18 89.06,121.71 119.34,139.24 129.3,121.75 			"/>
		</g>
	</g>
	<g>
		<g id="Einstein_tesseslation_1_">
			<polygon class="st0" points="170.36,121.44 180.56,104.06 210.87,121.49 241.09,104.01 251.18,121.53 271.45,121.41 
				271.33,156.51 241.12,173.91 251.22,191.48 241.12,208.95 210.8,191.38 210.83,156.39 190.71,156.51 			"/>
		</g>
	</g>
	<g>
		<g id="Einstein_tesseslation_2_">
			<polygon class="st0" points="291.68,261.44 271.54,261.3 271.47,226.33 241.23,208.91 251.36,191.4 241.12,173.91 271.58,156.46 
				301.75,173.93 311.91,156.4 332.09,156.41 332.04,191.45 301.72,208.92 311.88,226.28 			"/>
		</g>
	</g>
	<g>
		<g id="Einstein_tesseslation_6_">
			<polygon class="st0" points="68.23,156.26 88.37,156.4 88.44,191.37 118.68,208.8 108.55,226.3 118.79,243.79 88.33,261.24 
				58.16,243.78 48,261.31 27.82,261.29 27.87,226.25 58.19,208.79 48.03,191.42 			"/>
		</g>
	</g>
</g>
<g id="Layer_4">
	<path d="M73.37,37.57c-1.11,1-2.27,1.74-3.47,2.23s-2.5,0.73-3.89,0.73c-3.08,0-5.57-0.93-7.49-2.78s-2.87-4.26-2.87-7.23
		c0-1.5,0.27-2.92,0.82-4.27s1.32-2.52,2.33-3.53s2.19-1.79,3.55-2.34s2.79-0.83,4.29-0.83c1.81,0,3.49,0.39,5.03,1.18
		s2.86,1.89,3.96,3.32s1.96,3.14,2.58,5.14s0.93,4.18,0.93,6.53c0,2.52-0.34,4.85-1.02,7s-1.66,3.98-2.94,5.5
		c-0.91,1.06-1.89,1.96-2.94,2.7s-2.18,1.29-3.36,1.66s-2.41,0.56-3.68,0.56c-1.3,0-2.47-0.21-3.53-0.63s-1.89-1-2.5-1.73
		s-0.91-1.55-0.91-2.46c0-0.73,0.21-1.32,0.64-1.77s1-0.67,1.72-0.67c0.59,0,1.09,0.18,1.48,0.55s0.63,0.86,0.73,1.49l0.14,0.96
		c0.17,1.06,0.46,1.83,0.88,2.31c0.41,0.48,1,0.71,1.77,0.71c1,0,1.99-0.42,2.98-1.25s1.83-1.99,2.53-3.46
		C72.36,44.68,73.11,41.48,73.37,37.57z M65.03,39.68c-4.06-2.08-6.09-5.52-6.09-10.34c0-1.83,0.28-3.41,0.84-4.75
		s1.48-2.53,2.74-3.57c-1.22,0.58-2.27,1.34-3.16,2.29s-1.58,2.04-2.06,3.27s-0.73,2.52-0.73,3.87c0,1.55,0.3,2.96,0.91,4.25
		s1.48,2.36,2.62,3.22c0.67,0.48,1.36,0.86,2.05,1.11S63.81,39.51,65.03,39.68z M62.29,51.98c-0.56-0.66-0.94-1.2-1.12-1.64
		s-0.34-1.12-0.47-2.06c-0.09-0.77-0.35-1.15-0.77-1.15c-0.56,0-0.84,0.38-0.84,1.15c0,0.66,0.26,1.33,0.77,2.02
		c0.36,0.44,0.68,0.75,0.95,0.94S61.57,51.67,62.29,51.98z M73.35,36.4l0.02-1.43c0-2.2-0.18-4.3-0.55-6.3s-0.85-3.56-1.44-4.69
		c-0.56-1.14-1.27-2.03-2.13-2.66s-1.77-0.95-2.74-0.95c-1.61,0-2.9,0.73-3.88,2.19s-1.46,3.43-1.46,5.89
		c0,1.98,0.29,3.79,0.88,5.41s1.41,2.89,2.46,3.81c1.05,0.91,2.23,1.37,3.53,1.37c0.91,0,1.77-0.2,2.6-0.61S72.37,37.35,73.35,36.4z
		 M68.71,51.61c2.64-1.28,4.65-3.26,6.04-5.93s2.07-5.93,2.07-9.77c0-1.83-0.13-3.48-0.4-4.97s-0.68-2.85-1.25-4.09
		s-1.29-2.34-2.14-3.3s-1.88-1.82-3.07-2.57c0.92,0.92,1.63,1.81,2.12,2.67s0.91,1.94,1.25,3.23c0.64,2.3,0.96,5.2,0.96,8.72
		c0,1.95-0.14,3.81-0.43,5.58s-0.71,3.37-1.28,4.8c-0.5,1.28-1.02,2.31-1.56,3.09S69.71,50.7,68.71,51.61z"/>
	<g>
		<path d="M19.77,94.3v-0.73c1.69-0.28,2.91-0.93,3.68-1.95c0.59-0.75,0.89-2.24,0.89-4.48v-17.7c0-1.42-0.08-2.45-0.23-3.09
			s-0.45-1.19-0.87-1.64c-0.78-0.88-1.94-1.44-3.47-1.69V62.3h14.6v0.73c-1.69,0.28-2.92,0.93-3.7,1.95
			c-0.31,0.41-0.54,0.95-0.68,1.63s-0.21,1.63-0.21,2.85v7.83h16.48v-7.83c0-1.42-0.08-2.45-0.23-3.09s-0.45-1.19-0.87-1.64
			c-0.78-0.88-1.94-1.44-3.47-1.69V62.3h14.6v0.73c-1.69,0.28-2.92,0.93-3.7,1.95c-0.31,0.41-0.54,0.95-0.68,1.63
			s-0.21,1.63-0.21,2.85v17.7c0,1.33,0.08,2.33,0.25,3.01s0.46,1.25,0.88,1.72c0.78,0.88,1.94,1.44,3.47,1.69v0.73h-14.6v-0.73
			c1.69-0.28,2.91-0.93,3.68-1.95c0.59-0.75,0.89-2.24,0.89-4.48v-8.79H29.78v8.79c0,1.33,0.08,2.33,0.25,3.01s0.46,1.25,0.88,1.72
			c0.78,0.88,1.94,1.44,3.47,1.69v0.73H19.77z M23.05,93.1h6.84l-0.91-0.68c-0.53-0.39-0.87-0.7-1.02-0.94s-0.22-0.59-0.22-1.05
			c0-0.25,0-0.42-0.01-0.5s-0.01-0.18-0.01-0.27v-0.4V67.34v-0.4c0-0.09,0-0.19,0.01-0.28s0.01-0.26,0.01-0.49
			c0-0.47,0.07-0.82,0.22-1.05s0.49-0.55,1.02-0.94l1.34-0.98h-7.69l1.34,0.98c0.53,0.39,0.87,0.7,1.02,0.94s0.22,0.59,0.22,1.05
			c0.02,0.27,0.02,0.52,0.02,0.77v0.4v21.91v0.4c0,0.25-0.01,0.51-0.02,0.77c0,0.48-0.07,0.84-0.21,1.07s-0.48,0.54-1.03,0.93
			L23.05,93.1z M44.96,93.1h6.84l-0.91-0.68c-0.53-0.39-0.87-0.7-1.02-0.94s-0.22-0.59-0.22-1.05c0-0.45-0.01-0.71-0.02-0.77v-0.4
			V67.34v-0.4c0.02-0.08,0.02-0.34,0.02-0.77c0-0.47,0.07-0.82,0.22-1.05s0.49-0.55,1.02-0.94l1.34-0.98h-7.69l1.34,0.98
			c0.53,0.39,0.87,0.7,1.02,0.94s0.22,0.59,0.22,1.05c0.02,0.27,0.02,0.52,0.02,0.77v0.4v21.91v0.4c0,0.25-0.01,0.51-0.02,0.77
			c0,0.48-0.07,0.84-0.21,1.07s-0.48,0.54-1.03,0.93L44.96,93.1z"/>
		<path d="M73.1,92.12c-1.92,1.62-3.98,2.44-6.19,2.44c-1.77,0-3.18-0.46-4.23-1.37s-1.58-2.11-1.58-3.6c0-2.11,1.03-3.77,3.09-4.97
			s5.03-1.88,8.91-2.04v-0.66v-0.33c0-1.22-0.05-2.21-0.16-2.99s-0.27-1.36-0.47-1.75c-0.23-0.45-0.57-0.82-1-1.09
			s-0.89-0.41-1.39-0.41c-0.73,0-1.31,0.24-1.73,0.71s-0.69,1.21-0.8,2.21c-0.12,0.98-0.33,1.65-0.61,2s-0.77,0.53-1.45,0.53
			c-0.53,0-0.98-0.19-1.34-0.56S63.6,79.4,63.6,78.8c0-0.8,0.29-1.52,0.87-2.17s1.38-1.16,2.4-1.54s2.14-0.56,3.36-0.56
			c1.58,0,2.96,0.32,4.15,0.95s2.07,1.51,2.65,2.64c0.31,0.58,0.54,1.23,0.67,1.95s0.2,1.71,0.2,2.98v6.75
			c0,1.3,0.19,2.22,0.57,2.77s1.11,0.91,2.17,1.1v0.63H73.1V92.12z M67.94,93.9c-2.66-0.55-3.98-2-3.98-4.36
			c0-1.53,0.62-2.84,1.85-3.94c0.55-0.48,1.6-1.1,3.16-1.85c-1.89,0.36-3.36,0.85-4.41,1.48c-1.78,1.09-2.67,2.54-2.67,4.34
			c0,1.3,0.47,2.35,1.42,3.15s2.17,1.21,3.67,1.21C67.34,93.92,67.66,93.91,67.94,93.9z M67.94,75.38
			c-1.09,0.28-1.97,0.74-2.64,1.37s-1,1.34-1,2.12c0,0.3,0.07,0.53,0.21,0.7s0.33,0.26,0.56,0.26c0.22,0,0.38-0.07,0.49-0.2
			s0.2-0.4,0.28-0.81c0.17-0.88,0.39-1.54,0.67-1.98S67.27,75.91,67.94,75.38z M73.1,91.08v-7.76c-1.52,0.23-2.82,0.62-3.9,1.17
			s-1.92,1.24-2.5,2.09s-0.87,1.77-0.87,2.79c0,1.03,0.31,1.89,0.93,2.57s1.39,1.02,2.33,1.02C70.24,92.96,71.58,92.33,73.1,91.08z
			 M73.89,93.26h3.47l-0.54-0.42c-0.05-0.05-0.08-0.07-0.09-0.07l-0.3-0.23c-0.23-0.23-0.35-0.53-0.35-0.89v-0.47l-0.02-0.23v-7.97
			c0-2.17-0.25-3.8-0.75-4.88c-0.7-1.44-1.8-2.36-3.3-2.77c1,0.7,1.59,1.82,1.76,3.35c0.09,0.94,0.14,2.39,0.14,4.36V93.26z"/>
		<path d="M91.36,75.8v12.42c0,1.22,0.07,2.2,0.22,2.94s0.38,1.29,0.7,1.63s0.75,0.52,1.28,0.52c0.95,0,2.12-0.56,3.52-1.69
			l0.35,0.56c-1.05,0.91-2,1.56-2.86,1.97s-1.74,0.61-2.65,0.61c-1.75,0-3.08-0.58-4-1.75s-1.37-2.86-1.37-5.07V75.73H84.4v-0.56
			c1.17-0.16,2.2-0.58,3.07-1.27s1.58-1.64,2.12-2.85s0.93-2.7,1.16-4.46h0.59v8.51h5.13v0.7H91.36z M89.51,72.78
			c-0.55,0.91-1.27,1.62-2.16,2.13v11.95v0.54c0,0.89,0.04,1.68,0.12,2.36s0.2,1.22,0.36,1.63s0.41,0.8,0.74,1.2
			c0.88,1.02,2.01,1.52,3.4,1.52c0.25,0,0.47-0.01,0.66-0.02c-0.69-0.16-1.22-0.36-1.61-0.61s-0.68-0.61-0.9-1.09
			s-0.38-1.13-0.47-1.96s-0.14-1.85-0.14-3.07V86.7V72.78z"/>
		<path d="M113.23,75.76l0.98,5.44h-0.63c-0.47-1.78-1.21-3.18-2.21-4.21s-2.17-1.54-3.48-1.54c-0.78,0-1.43,0.23-1.96,0.69
			s-0.79,1.03-0.79,1.7c0,0.62,0.21,1.14,0.62,1.54s1.35,1,2.8,1.79c2.38,1.3,4.03,2.32,4.97,3.07c1.48,1.14,2.23,2.62,2.23,4.45
			c0,0.92-0.18,1.75-0.54,2.48s-0.89,1.38-1.59,1.92s-1.54,0.96-2.51,1.25s-2.02,0.43-3.16,0.43c-1.89,0-4.16-0.43-6.8-1.29
			l-0.56-7.12h0.56c1.41,4.86,3.59,7.29,6.56,7.29c1.05,0,1.91-0.31,2.59-0.94s1.02-1.45,1.02-2.46c0-1.03-0.4-1.86-1.2-2.48
			c-0.47-0.38-1.62-1.07-3.47-2.09s-3.11-1.81-3.8-2.39c-1.11-0.92-1.66-2.09-1.66-3.52c0-1.53,0.6-2.78,1.79-3.74
			s2.74-1.44,4.63-1.44C109.13,74.61,111,74.99,113.23,75.76z M101.84,92.89l0.42,0.14c0.61,0.23,1.31,0.45,2.11,0.63l0.52,0.12
			c-0.73-0.48-1.34-0.97-1.8-1.46s-0.96-1.15-1.48-1.98L101.84,92.89z M109.56,93.9c1.41-0.19,2.51-0.68,3.3-1.48s1.2-1.81,1.2-3.05
			c0-1.22-0.45-2.3-1.36-3.23c-0.78-0.83-2.29-1.83-4.52-3c-1.84-1-3.08-1.8-3.71-2.41s-0.95-1.31-0.95-2.11
			c0-1.2,0.68-2.27,2.04-3.21c-1.14,0.38-2.02,0.94-2.64,1.69s-0.93,1.62-0.93,2.6c0,1.16,0.41,2.1,1.22,2.84
			c0.62,0.58,1.88,1.4,3.77,2.46c2.05,1.11,3.35,1.92,3.91,2.44c0.83,0.75,1.24,1.69,1.24,2.81
			C112.13,92.01,111.27,93.23,109.56,93.9z"/>
	</g>
</g>
</svg>
