<?xml version="1.0" encoding="utf-8"?>
<!-- Generator: Adobe Adobe Illustrator 24.2.0, SVG Export Plug-In . SVG Version: 6.00 Build 0)  -->
<svg version="1.1" xmlns="http://www.w3.org/2000/svg" xmlns:xlink="http://www.w3.org/1999/xlink" x="0px" y="0px" width="612px"
	 height="792px" viewBox="0 0 612 792" style="enable-background:new 0 0 612 792;" xml:space="preserve">
<style type="text/css">
	.st0{display:none;}
	.st1{display:inline;fill:none;stroke:#000000;stroke-miterlimit:10;}
	.st2{fill:none;stroke:#000000;stroke-miterlimit:10;}
</style>
<g id="T" class="st0">
	<rect x="32" y="524.08" class="st1" width="50" height="50"/>
	<rect x="32" y="574.08" class="st1" width="50" height="50"/>
	<rect x="32" y="624.08" class="st1" width="50" height="50"/>
	<rect x="82" y="574.08" class="st1" width="50" height="50"/>
	<rect x="132" y="574.08" class="st1" width="50" height="50"/>
</g>
<g id="V" class="st0">
	<rect x="424" y="482.83" class="st1" width="50" height="50"/>
	<rect x="424" y="532.83" class="st1" width="50" height="50"/>
	<rect x="424" y="432.83" class="st1" width="50" height="50"/>
	<rect x="474" y="532.83" class="st1" width="50" height="50"/>
	<rect x="524" y="532.83" class="st1" width="50" height="50"/>
</g>
<g id="P" class="st0">
	<rect x="282" y="432.83" class="st1" width="50" height="50"/>
	<rect x="282" y="482.83" class="st1" width="50" height="50"/>
	<rect x="282" y="532.83" class="st1" width="50" height="50"/>
	<rect x="332" y="482.83" class="st1" width="50" height="50"/>
	<rect x="332" y="432.83" class="st1" width="50" height="50"/>
</g>
<g id="W" class="st0">
	<rect x="107" y="391.33" class="st1" width="50" height="50"/>
	<rect x="107" y="441.33" class="st1" width="50" height="50"/>
	<rect x="207" y="491.33" class="st1" width="50" height="50"/>
	<rect x="157" y="441.33" class="st1" width="50" height="50"/>
	<rect x="157" y="491.33" class="st1" width="50" height="50"/>
</g>
<g id="X" class="st0">
	<rect x="474" y="257.83" class="st1" width="50" height="50"/>
	<rect x="474" y="307.83" class="st1" width="50" height="50"/>
	<rect x="474" y="357.83" class="st1" width="50" height="50"/>
	<rect x="524" y="307.83" class="st1" width="50" height="50"/>
	<rect x="424" y="307.83" class="st1" width="50" height="50"/>
</g>
<g id="R" class="st0">
	<rect x="299" y="207.83" class="st1" width="50" height="50"/>
	<rect x="299" y="257.83" class="st1" width="50" height="50"/>
	<rect x="299" y="307.83" class="st1" width="50" height="50"/>
	<rect x="349" y="257.83" class="st1" width="50" height="50"/>
	<rect x="299" y="357.83" class="st1" width="50" height="50"/>
</g>
<g id="Z" class="st0">
	<rect x="157" y="208.58" class="st1" width="50" height="50"/>
	<rect x="157" y="258.58" class="st1" width="50" height="50"/>
	<rect x="157" y="308.58" class="st1" width="50" height="50"/>
	<rect x="107" y="208.58" class="st1" width="50" height="50"/>
	<rect x="207" y="308.58" class="st1" width="50" height="50"/>
</g>
<g id="I" class="st0">
	<rect x="32" y="257.83" class="st1" width="50" height="50"/>
	<rect x="32" y="307.83" class="st1" width="50" height="50"/>
	<rect x="32" y="357.83" class="st1" width="50" height="50"/>
	<rect x="32" y="207.83" class="st1" width="50" height="50"/>
	<rect x="32" y="407.83" class="st1" width="50" height="50"/>
</g>
<g id="L" class="st0">
	<rect x="474" y="32.83" class="st1" width="50" height="50"/>
	<rect x="474" y="82.83" class="st1" width="50" height="50"/>
	<rect x="474" y="132.83" class="st1" width="50" height="50"/>
	<rect x="524" y="182.83" class="st1" width="50" height="50"/>
	<rect x="474" y="182.83" class="st1" width="50" height="50"/>
</g>
<g id="H" class="st0">
	<rect x="349" y="82.83" class="st1" width="50" height="50"/>
	<rect x="349" y="132.83" class="st1" width="50" height="50"/>
	<rect x="399" y="182.83" class="st1" width="50" height="50"/>
	<rect x="399" y="132.83" class="st1" width="50" height="50"/>
	<rect x="349" y="32.83" class="st1" width="50" height="50"/>
</g>
<g id="C" class="st0">
	<rect x="206" y="32.83" class="st1" width="50" height="50"/>
	<rect x="256" y="32.83" class="st1" width="50" height="50"/>
	<rect x="206" y="132.83" class="st1" width="50" height="50"/>
	<rect x="256" y="82.83" class="st1" width="50" height="50"/>
	<rect x="256" y="132.83" class="st1" width="50" height="50"/>
</g>
<g id="F" class="st0">
	<rect x="82" y="32.83" class="st1" width="50" height="50"/>
	<rect x="82" y="82.83" class="st1" width="50" height="50"/>
	<rect x="82" y="132.83" class="st1" width="50" height="50"/>
	<rect x="132" y="82.83" class="st1" width="50" height="50"/>
	<rect x="32" y="32.83" class="st1" width="50" height="50"/>
</g>
<g id="Set">
	<polygon class="st2" points="32,82.83 32,32.83 132,32.83 132,82.83 182,82.83 182,132.83 132,132.83 132,182.83 82,182.83 
		82,82.83 	"/>
	<polygon class="st2" points="206,32.83 206,82.83 256,82.83 256,132.83 206,132.83 206,182.83 306,182.83 306,32.83 	"/>
	<polygon class="st2" points="349,32.83 349,182.83 399,182.83 399,232.83 448.9,233.31 449,132.83 399,132.83 399,32.83 	"/>
	<polygon class="st2" points="474,32.83 474,232.83 574,232.83 574,182.83 524,182.83 524,32.83 	"/>
	<polygon class="st2" points="474,257.83 524,257.83 524,307.83 574,307.83 574,357.83 524,357.83 524,407.83 474,407.83 
		474,357.83 424,357.83 424,307.83 474,307.83 	"/>
	<polygon class="st2" points="299,207.83 349,207.83 349,257.83 399,257.83 399,307.83 349,307.83 349,407.83 299,407.83 	"/>
	<polygon class="st2" points="107,258.58 107,208.58 207,208.58 207,308.58 257,308.58 257,358.58 157,358.58 157,258.58 	"/>
	<rect x="32" y="207.83" class="st2" width="50" height="250"/>
	<polygon class="st2" points="107,391.33 107,491.33 157,491.33 157,541.33 257,541.33 257,491.33 207,491.33 207,441.33 
		157,441.33 157,391.33 	"/>
	<polygon class="st2" points="32,524.08 82,524.08 82,574.08 182,574.08 182,624.08 82,624.08 82,674.08 32,674.08 	"/>
	<polygon class="st2" points="282,432.83 282,582.83 332,582.83 332,532.83 382,532.83 382,432.83 	"/>
	<polygon class="st2" points="424,432.83 424,582.83 574,582.83 574,532.83 474,532.83 474,432.83 	"/>
</g>
</svg>
