<?xml version="1.0" encoding="utf-8"?>
<!-- Generator: Adobe Adobe Illustrator 24.2.0, SVG Export Plug-In . SVG Version: 6.00 Build 0)  -->
<svg version="1.1" xmlns="http://www.w3.org/2000/svg" xmlns:xlink="http://www.w3.org/1999/xlink" x="0px" y="0px" width="360px"
	 height="360px" viewBox="0 0 360 360" style="enable-background:new 0 0 360 360;" xml:space="preserve">
<style type="text/css">
	.st0{fill:none;stroke:#000000;stroke-miterlimit:10;}
	.st1{font-family:'SourceSansPro-Regular';}
	.st2{font-size:16px;}
</style>
<g id="Layer_2">
	<rect x="0" class="st0" width="360" height="360"/>
	<text transform="matrix(1 0 0 1 163.7444 29.9266)" class="st1 st2">9 Hats</text>
	<text transform="matrix(1 0 0 1 16.7032 341.3648)" class="st1 st2">Puzzle Place</text>
	<text transform="matrix(1 0 0 1 252.7426 340.6915)" class="st1 st2">unSCruz 2023</text>
</g>
<g id="Layer_3">
	<g>
		<g id="Einstein_tesseslation">
			<polygon class="st0" points="121.45,152.32 112.55,136.71 139.51,121.04 139.46,89.91 157.49,89.91 166.42,74.2 193.48,89.91 
				193.48,121 211.55,121.01 220.55,136.6 193.48,152.2 166.46,136.6 157.6,152.2 			"/>
		</g>
	</g>
	<g>
		<g id="Einstein_tesseslation_5_">
			<polygon class="st0" points="121.45,152.32 112.55,136.71 139.51,121.04 139.46,89.91 157.49,89.91 166.42,74.2 193.48,89.91 
				193.48,121 211.55,121.01 220.55,136.6 193.48,152.2 166.46,136.6 157.6,152.2 			"/>
		</g>
	</g>
	<g>
		<g id="Einstein_tesseslation_8_">
			<polygon class="st0" points="103.64,245.74 85.68,245.63 85.59,214.45 58.6,198.94 67.62,183.32 58.47,167.73 85.62,152.15 
				112.54,167.69 121.58,152.05 139.58,152.05 139.56,183.29 112.54,198.89 121.62,214.37 			"/>
		</g>
	</g>
	<g>
		<g id="Einstein_tesseslation_7_">
			<polygon class="st0" points="175.45,308.95 166.56,293.34 193.51,277.68 193.46,246.55 211.49,246.55 220.42,230.84 
				247.49,246.55 247.49,277.64 265.55,277.65 274.56,293.23 247.49,308.84 220.46,293.24 211.6,308.84 			"/>
		</g>
	</g>
	<g>
		<g id="Einstein_tesseslation_10_">
			<polygon class="st0" points="265.59,277 247.62,276.89 247.53,245.71 220.55,230.2 229.56,214.58 220.42,198.99 247.56,183.41 
				274.49,198.95 283.53,183.31 301.53,183.3 301.51,214.55 274.49,230.15 283.57,245.63 			"/>
		</g>
	</g>
	<g>
		<g id="Einstein_tesseslation_4_">
			<polygon class="st0" points="229.47,215.06 220.4,199.55 193.35,215.07 166.42,199.45 157.41,215.07 139.33,214.94 
				139.41,246.24 166.33,261.79 157.31,277.44 166.3,293.03 193.35,277.39 193.35,246.19 211.29,246.31 			"/>
		</g>
	</g>
	<g>
		<g id="Einstein_tesseslation_3_">
			<polygon class="st0" points="121.39,215.32 139.36,215.43 139.44,246.6 166.43,262.12 157.41,277.73 166.56,293.33 
				139.41,308.91 112.49,293.37 103.45,309.01 85.45,309.01 85.47,277.76 112.49,262.16 103.41,246.69 			"/>
		</g>
	</g>
	<g>
		<g id="Einstein_tesseslation_1_">
			<polygon class="st0" points="121.45,214.82 112.56,199.21 139.51,183.54 139.46,152.41 157.49,152.41 166.42,136.7 
				193.49,152.41 193.49,183.5 211.55,183.51 220.56,199.1 193.49,214.7 166.46,199.1 157.6,214.7 			"/>
		</g>
	</g>
	<g>
		<g id="Einstein_tesseslation_2_">
			<polygon class="st0" points="283.62,183.39 274.55,198.89 247.5,183.38 220.58,198.99 211.56,183.37 193.48,183.5 193.56,152.2 
				220.48,136.66 211.46,121 220.45,105.42 247.51,121.06 247.51,152.26 265.45,152.13 			"/>
		</g>
	</g>
	<g>
		<g id="Einstein_tesseslation_6_">
			<polygon class="st0" points="229.42,26.99 247.39,27.1 247.48,58.27 274.46,73.79 265.44,89.4 274.59,105 247.45,120.58 
				220.52,105.03 211.48,120.68 193.48,120.68 193.5,89.43 220.52,73.83 211.44,58.36 			"/>
		</g>
	</g>
</g>
<g id="Layer_4">
</g>
</svg>
