<?xml version="1.0" encoding="utf-8"?>
<!-- Generator: Adobe Adobe Illustrator 24.2.0, SVG Export Plug-In . SVG Version: 6.00 Build 0)  -->
<svg version="1.1" id="Pencil" xmlns="http://www.w3.org/2000/svg" xmlns:xlink="http://www.w3.org/1999/xlink" x="0px" y="0px"
	 width="216px" height="18px" viewBox="0 0 216 18" style="enable-background:new 0 0 216 18;" xml:space="preserve">
<style type="text/css">
	.st0{fill:none;stroke:#000000;stroke-miterlimit:10;}
</style>
<g>
	<circle class="st0" cx="30.27" cy="8.94" r="7.2"/>
	<g>
		<path d="M25.09,5.09h2.75c1.71,0,3.12,0.61,3.12,2.53c0,1.87-1.43,2.69-3.07,2.69h-0.92v2.59h-1.87V5.09z M27.77,8.83
			c0.92,0,1.36-0.43,1.36-1.21c0-0.78-0.49-1.06-1.4-1.06h-0.77v2.27H27.77z"/>
		<path d="M30.49,5.09h2.75c1.71,0,3.12,0.61,3.12,2.53c0,1.87-1.43,2.69-3.07,2.69h-0.92v2.59h-1.87V5.09z M33.17,8.83
			c0.92,0,1.36-0.43,1.36-1.21c0-0.78-0.49-1.06-1.4-1.06h-0.77v2.27H33.17z"/>
	</g>
</g>
<g>
	<path d="M55.91,4.73h2.75c1.71,0,3.12,0.61,3.12,2.53c0,1.87-1.43,2.69-3.07,2.69h-0.92v2.59h-1.87V4.73z M58.6,8.47
		c0.92,0,1.36-0.43,1.36-1.21c0-0.78-0.49-1.06-1.4-1.06h-0.77v2.27H58.6z"/>
	<path d="M62.91,10.27V6.58h1.86v3.45c0,0.83,0.22,1.07,0.7,1.07c0.42,0,0.67-0.17,1-0.61V6.58h1.86v5.96h-1.51l-0.13-0.82h-0.05
		c-0.49,0.59-1.06,0.96-1.86,0.96C63.46,12.68,62.91,11.76,62.91,10.27z"/>
	<path d="M69.53,11.54l2.44-3.51h-2.15V6.58h4.46v1l-2.43,3.51h2.51v1.45h-4.82V11.54z"/>
	<path d="M75.11,11.54l2.44-3.51H75.4V6.58h4.46v1l-2.43,3.51h2.51v1.45h-4.82V11.54z"/>
	<path d="M80.99,10.61V4.16h1.85v6.52c0,0.38,0.19,0.5,0.34,0.5c0.07,0,0.12,0,0.22-0.02l0.22,1.37c-0.2,0.08-0.52,0.16-0.92,0.16
		C81.41,12.68,80.99,11.86,80.99,10.61z"/>
	<path d="M84.14,9.55c0-1.93,1.39-3.12,2.82-3.12c1.73,0,2.57,1.25,2.57,2.87c0,0.34-0.04,0.65-0.07,0.82h-3.51
		c0.17,0.8,0.73,1.15,1.49,1.15c0.43,0,0.86-0.13,1.28-0.37l0.6,1.12c-0.62,0.44-1.44,0.67-2.15,0.67
		C85.46,12.68,84.14,11.54,84.14,9.55z M87.94,8.87c0-0.59-0.26-1.03-0.94-1.03c-0.53,0-0.97,0.34-1.09,1.03H87.94z"/>
	<path d="M93.26,4.73H96c1.71,0,3.12,0.61,3.12,2.53c0,1.87-1.43,2.69-3.07,2.69h-0.92v2.59h-1.87V4.73z M95.94,8.47
		c0.92,0,1.36-0.43,1.36-1.21c0-0.78-0.49-1.06-1.4-1.06h-0.77v2.27H95.94z"/>
	<path d="M100.31,10.61V4.16h1.85v6.52c0,0.38,0.19,0.5,0.34,0.5c0.07,0,0.12,0,0.22-0.02l0.22,1.37c-0.2,0.08-0.52,0.16-0.92,0.16
		C100.73,12.68,100.31,11.86,100.31,10.61z"/>
	<path d="M103.53,10.87c0-1.26,0.97-1.94,3.32-2.18c-0.05-0.49-0.3-0.78-0.91-0.78c-0.48,0-0.96,0.17-1.56,0.5l-0.65-1.2
		c0.78-0.48,1.63-0.78,2.57-0.78c1.54,0,2.4,0.85,2.4,2.72v3.38h-1.51l-0.13-0.6h-0.05c-0.49,0.44-1.03,0.74-1.7,0.74
		C104.21,12.68,103.53,11.87,103.53,10.87z M106.85,10.78V9.83c-1.19,0.16-1.55,0.48-1.55,0.9c0,0.35,0.23,0.52,0.64,0.52
		C106.31,11.24,106.56,11.06,106.85,10.78z"/>
	<path d="M109.82,9.55c0-1.98,1.48-3.12,3.13-3.12c0.73,0,1.3,0.25,1.74,0.64l-0.86,1.14c-0.28-0.2-0.5-0.29-0.77-0.29
		c-0.83,0-1.34,0.65-1.34,1.63c0,1,0.55,1.63,1.28,1.63c0.4,0,0.73-0.14,1.03-0.37l0.72,1.16c-0.58,0.53-1.33,0.71-1.97,0.71
		C111.1,12.68,109.82,11.53,109.82,9.55z"/>
	<path d="M115.11,9.55c0-1.93,1.39-3.12,2.82-3.12c1.73,0,2.57,1.25,2.57,2.87c0,0.34-0.04,0.65-0.07,0.82h-3.51
		c0.17,0.8,0.73,1.15,1.49,1.15c0.43,0,0.86-0.13,1.28-0.37l0.6,1.12c-0.62,0.44-1.44,0.67-2.15,0.67
		C116.43,12.68,115.11,11.54,115.11,9.55z M118.91,8.87c0-0.59-0.26-1.03-0.94-1.03c-0.53,0-0.97,0.34-1.09,1.03H118.91z"/>
</g>
</svg>
