<?xml version="1.0" encoding="utf-8"?>
<!-- Generator: Adobe Adobe Illustrator 24.2.0, SVG Export Plug-In . SVG Version: 6.00 Build 0)  -->
<svg version="1.1" xmlns="http://www.w3.org/2000/svg" xmlns:xlink="http://www.w3.org/1999/xlink" x="0px" y="0px" width="360px"
	 height="360px" viewBox="0 0 360 360" style="enable-background:new 0 0 360 360;" xml:space="preserve">
<style type="text/css">
	.st0{fill:none;stroke:#000000;stroke-miterlimit:10;}
	.st1{fill:none;stroke:#000000;stroke-width:1;stroke-miterlimit:9.9999;}
	.st2{fill:none;}
	.st3{font-family:'SourceSansPro-Regular';}
	.st4{font-size:16px;}
</style>
<g id="Layer_1">
	<rect x="18" y="18" class="st0" width="324" height="324"/>
	<g>
		<g id="Layer_3">
			<polygon class="st0" points="18,18 18,342 180,180 			"/>
		</g>
		<g id="Layer_4">
			
				<rect x="122.72" y="203.72" transform="matrix(0.7071 -0.7071 0.7071 0.7071 -131.8366 203.7172)" class="st1" width="114.55" height="114.55"/>
		</g>
		<g id="Layer_7">
			<polygon class="st0" points="261,261 261,99 180,180 			"/>
		</g>
		<g id="Layer_8">
			<polygon class="st0" points="342,18 261,99 261,261 342,179.39 			"/>
		</g>
		<g id="Layer_6">
			<polygon class="st0" points="180,342 342,179.55 342,342 			"/>
		</g>
		<g id="Layer_5">
			<polygon class="st0" points="18,342 99,261 180.13,342 			"/>
		</g>
		<g id="Layer_3_copy">
			<polygon class="st0" points="342,18 18,18 180,180 			"/>
		</g>
	</g>
</g>
<g id="Layer_2">
	<rect x="0" class="st0" width="360" height="360"/>
	<rect x="37.15" class="st2" width="270" height="18"/>
	<text transform="matrix(1 0 0 1 150.5919 13.2804)" class="st3 st4">Tangram</text>
	<text transform="matrix(1 0 0 1 5.5989 356.4869)" class="st3 st4">Puzzle Place</text>
	<rect x="249.29" y="347.1" class="st2" width="0" height="0"/>
	<text transform="matrix(1 0 0 1 261.5424 356.4877)" class="st3 st4">unSCruz 2023</text>
</g>
</svg>
