<?xml version="1.0" encoding="utf-8"?>
<!-- Generator: Adobe Adobe Illustrator 24.2.0, SVG Export Plug-In . SVG Version: 6.00 Build 0)  -->
<svg version="1.1" xmlns="http://www.w3.org/2000/svg" xmlns:xlink="http://www.w3.org/1999/xlink" x="0px" y="0px" width="324px"
	 height="324px" viewBox="0 0 324 324" style="enable-background:new 0 0 324 324;" xml:space="preserve">
<style type="text/css">
	.st0{fill:none;stroke:#000000;stroke-miterlimit:10;}
</style>
<g id="Layer_1">
	<polygon class="st0" points="0,0 0,108 54,54 108,108 108,0 	"/>
</g>
<g id="Layer_1_copy">
	<polygon class="st0" points="108,0 108,108 162,54 216,108 216,0 	"/>
</g>
<g id="Layer_3">
	<polygon class="st0" points="216,108 215.68,0 324,0 270,54 270,162 	"/>
	<polygon class="st0" points="324,0 270,54 270,162 324,216.05 	"/>
	<polygon class="st0" points="0,108.37 54,162 54,270 0,324 	"/>
	<polygon class="st0" points="108,108 54,162 54,270 108,216 	"/>
	<polygon class="st0" points="107.74,107.61 162,162 162,270 108,216 	"/>
	<polygon class="st0" points="108,216 0,324 108.43,324 	"/>
	<polygon class="st0" points="108,216 108.61,324 216,324 	"/>
	
		<rect x="123.82" y="69.82" transform="matrix(0.7071 -0.7071 0.7071 0.7071 -28.9188 146.1838)" class="st0" width="76.37" height="76.37"/>
	<polygon class="st0" points="162,270 270,162 216,108 162,162 	"/>
	<polygon class="st0" points="324,216 270,270 162,270 215.87,324 324,324 	"/>
	<polygon class="st0" points="270,162 162,270 270,270 324,216 	"/>
</g>
</svg>
