<?xml version="1.0" encoding="utf-8"?>
<!-- Generator: Adobe Adobe Illustrator 24.2.0, SVG Export Plug-In . SVG Version: 6.00 Build 0)  -->
<svg version="1.1" xmlns="http://www.w3.org/2000/svg" xmlns:xlink="http://www.w3.org/1999/xlink" x="0px" y="0px" width="1440px"
	 height="720px" viewBox="0 0 1440 720" style="enable-background:new 0 0 1440 720;" xml:space="preserve">
<style type="text/css">
	.st0{fill:none;stroke:#000000;stroke-miterlimit:10;}
</style>
<g id="Outline">
	<circle class="st0" cx="72" cy="72" r="18"/>
	<circle class="st0" cx="1368" cy="72" r="18"/>
</g>
<g id="Holes">
	<rect class="st0" width="1440" height="720"/>
</g>
<g id="Board_Games">
	<g>
		<path d="M150,280.6h45.4c27,0,48.4,7.2,48.4,32.4c0,11.4-6.4,24-17,28v0.8c13.2,3.6,23.4,13.2,23.4,30.6c0,26.6-22.8,38.4-51,38.4
			H150V280.6z M194.2,332.4c13.4,0,19.2-5.8,19.2-14.8c0-9.4-6.2-13.2-19-13.2h-13.2v28H194.2z M196.8,387c15.2,0,23-5.6,23-16.6
			s-7.6-15.2-23-15.2h-15.6V387H196.8z"/>
		<path d="M263.4,361c0-33,23.4-52,48.6-52c25.4,0,48.8,19,48.8,52s-23.4,52.2-48.8,52.2C286.8,413.2,263.4,394,263.4,361z M329,361
			c0-16.4-5.4-27.2-17-27.2c-11.6,0-17,10.8-17,27.2c0,16.6,5.4,27.2,17,27.2C323.6,388.2,329,377.6,329,361z"/>
		<path d="M373.8,383c0-21,16.2-32.4,55.4-36.4c-0.8-8.2-5-13-15.2-13c-8,0-16,2.8-26,8.4l-10.8-20c13-8,27.2-13,42.8-13
			c25.6,0,40,14.2,40,45.4v56.4h-25.2l-2.2-10h-0.8c-8.2,7.4-17.2,12.4-28.4,12.4C385.2,413.2,373.8,399.6,373.8,383z M429.2,381.4
			v-15.8c-19.8,2.6-25.8,8-25.8,15c0,5.8,3.8,8.6,10.6,8.6C420.2,389.2,424.4,386.2,429.2,381.4z"/>
		<path d="M484.2,311.4h25.2l2.2,17.2h0.8c7.2-13.4,18.2-19.6,28.2-19.6c5.8,0,9.2,0.6,12,2l-5.8,26.2c-3.6-0.8-5.8-1.2-10.2-1.2
			c-7.4,0-16.4,4.8-21.6,18v56.8h-30.8V311.4z"/>
		<path d="M558.2,361c0-32.4,20.4-52,41-52c11,0,17.6,4,24,10.2l-1-14.8V271h31v139.8h-25.4l-2.2-9.6H625c-7,7-16.8,12-26.2,12
			C574.2,413.2,558.2,393.4,558.2,361z M622.2,379.6V340c-4.8-4.2-10.6-5.8-15.6-5.8c-8.8,0-16.6,8-16.6,26.6c0,19,6.4,27,17,27
			C613,387.8,617.6,385.8,622.2,379.6z"/>
		<path d="M714.6,346.6c0-43.4,29.2-68.4,64-68.4c19,0,32.6,7.6,41.6,17L803.8,314c-6.4-5.8-13.2-9-24.2-9
			c-19.2,0-33.2,15.2-33.2,40.4c0,26,11.8,41,36,41c4.6,0,9.6-1.2,12.4-3.4v-21H774v-25.4h48.4v60.8c-9,8.8-25,15.8-43.4,15.8
			C743,413.2,714.6,390.6,714.6,346.6z"/>
		<path d="M841.8,383c0-21,16.2-32.4,55.4-36.4c-0.8-8.2-5-13-15.2-13c-8,0-16,2.8-26,8.4l-10.8-20c13-8,27.2-13,42.8-13
			c25.6,0,40,14.2,40,45.4v56.4h-25.2l-2.2-10h-0.8c-8.2,7.4-17.2,12.4-28.4,12.4C853.2,413.2,841.8,399.6,841.8,383z M897.2,381.4
			v-15.8c-19.8,2.6-25.8,8-25.8,15c0,5.8,3.8,8.6,10.6,8.6C888.2,389.2,892.4,386.2,897.2,381.4z"/>
		<path d="M952.2,311.4h25.2l2.2,12.4h0.8c8-8,16.8-14.8,30-14.8c13.8,0,22.4,5.8,27.4,16.4c8.6-8.8,17.8-16.4,31-16.4
			c21.6,0,31.2,15.4,31.2,40.2v61.6h-30.8v-57.6c0-13.8-3.8-18-11.6-18c-4.8,0-10,3-16,9v66.6h-31v-57.6c0-13.8-3.6-18-11.6-18
			c-4.6,0-10,3-16,9v66.6h-30.8V311.4z"/>
		<path d="M1118.8,361c0-32.2,23.2-52,47-52c28.8,0,42.8,20.8,42.8,47.8c0,5.6-0.6,10.8-1.2,13.6h-58.6
			c2.8,13.4,12.2,19.2,24.8,19.2c7.2,0,14.4-2.2,21.4-6.2l10,18.6c-10.4,7.4-24,11.2-35.8,11.2
			C1140.8,413.2,1118.8,394.2,1118.8,361z M1182.2,349.6c0-9.8-4.4-17.2-15.6-17.2c-8.8,0-16.2,5.6-18.2,17.2H1182.2z"/>
		<path d="M1219.8,398.2l13-17.4c9.2,7.2,18.2,9.6,26,9.6c8.4,0,11.8-3,11.8-7.8c0-6-8.4-8.6-19-12.6c-14.2-5.2-26.2-14.2-26.2-29.6
			c0-18.8,15.2-31.4,38.4-31.4c14.6,0,27,5.4,35.6,12.6l-13.2,17.4c-7.2-5.2-14.6-7.2-21.4-7.2c-7.2,0-10.6,2.8-10.6,7.2
			c0,5.2,5.6,7.6,18.2,11.6c15.2,4.8,27.2,13.8,27.2,30.2c0,18.2-14.4,32.4-41.4,32.4C1245,413.2,1229.8,408,1219.8,398.2z"/>
	</g>
</g>
</svg>
