<?xml version="1.0" encoding="utf-8"?>
<!-- Generator: Adobe Adobe Illustrator 24.2.0, SVG Export Plug-In . SVG Version: 6.00 Build 0)  -->
<svg version="1.1" xmlns="http://www.w3.org/2000/svg" xmlns:xlink="http://www.w3.org/1999/xlink" x="0px" y="0px" width="864px"
	 height="864px" viewBox="0 0 864 864" style="enable-background:new 0 0 864 864;" xml:space="preserve">
<style type="text/css">
	.st0{stroke:#000000;stroke-width:2;stroke-linecap:round;stroke-miterlimit:10;}
	.st1{fill:#FFFFFF;stroke:#000000;stroke-width:5;stroke-miterlimit:8;}
	.st2{fill:none;stroke:#000000;stroke-width:5;stroke-miterlimit:8;}
	.st3{stroke:#000000;stroke-miterlimit:10;}
	.st4{fill:#FFFFFF;stroke:#000000;stroke-width:2;stroke-linecap:round;stroke-miterlimit:10;}
	.st5{fill:#FFFFFF;stroke:#000000;stroke-width:4;stroke-linecap:round;stroke-miterlimit:10;}
	.st6{fill:#FFFFFF;stroke:#000000;stroke-width:2;stroke-miterlimit:10;}
	.st7{fill:#FFFFFF;}
</style>
<g id="Board">
	<polygon class="st0" points="74.41,181.81 387,0 468,0 788.24,183.25 824.26,245.58 822.72,613.69 783.36,686.69 468,864 387,864 
		75.7,677.04 40.18,615.57 36.42,247.63 	"/>
	<g>
		<polygon class="st1" points="496.88,431.42 463.01,490.1 395.27,490.11 361.38,431.44 395.25,372.77 462.99,372.76 		"/>
	</g>
	<g>
		<polygon class="st1" points="391.17,370.42 357.31,429.09 289.56,429.1 255.68,370.44 289.55,311.76 357.29,311.75 		"/>
	</g>
	<g>
		<polygon class="st1" points="496.7,309.65 462.84,368.32 395.09,368.33 361.21,309.67 395.07,250.99 462.82,250.98 		"/>
	</g>
	<g>
		<polygon class="st1" points="391.35,492.19 357.48,550.87 289.74,550.88 255.86,492.21 289.72,433.54 357.47,433.53 		"/>
	</g>
	<g>
		<polygon class="st1" points="497.05,553.2 463.19,611.87 395.44,611.88 361.56,553.22 395.42,494.54 463.17,494.53 		"/>
	</g>
	<g>
		<polygon class="st1" points="602.4,370.65 568.54,429.33 500.79,429.34 466.91,370.67 500.78,312 568.52,311.99 		"/>
	</g>
	<g>
		<polygon class="st1" points="602.58,492.43 568.71,551.1 500.97,551.11 467.09,492.45 500.95,433.77 568.7,433.76 		"/>
	</g>
	<g>
		<polygon class="st1" points="708.11,431.66 674.24,490.33 606.5,490.34 572.61,431.68 606.48,373 674.22,372.99 		"/>
	</g>
	<g>
		<polygon class="st1" points="602.75,614.2 568.89,672.88 501.14,672.89 467.26,614.22 501.12,555.55 568.87,555.54 		"/>
	</g>
	<g>
		<polygon class="st1" points="708.28,553.43 674.42,612.11 606.67,612.12 572.79,553.45 606.65,494.78 674.4,494.77 		"/>
	</g>
	<g>
		<polygon class="st1" points="707.93,309.88 674.07,368.56 606.32,368.57 572.44,309.9 606.3,251.23 674.05,251.22 		"/>
	</g>
	<g>
		<polygon class="st1" points="602.23,248.88 568.37,307.55 500.62,307.56 466.74,248.9 500.6,190.22 568.35,190.21 		"/>
	</g>
	<g>
		<polygon class="st1" points="497.22,674.97 463.36,733.65 395.61,733.66 361.73,674.99 395.6,616.32 463.34,616.31 		"/>
	</g>
	<g>
		<polygon class="st1" points="391.52,613.97 357.66,672.64 289.91,672.65 256.03,613.99 289.89,555.31 357.64,555.3 		"/>
	</g>
	<g>
		<polygon class="st1" points="285.82,552.96 251.96,611.63 184.21,611.65 150.33,552.98 184.19,494.31 251.94,494.3 		"/>
	</g>
	<g>
		<polygon class="st1" points="496.53,187.87 462.66,246.55 394.92,246.56 361.04,187.89 394.9,129.22 462.64,129.21 		"/>
	</g>
	<g>
		<polygon class="st1" points="391,248.64 357.14,307.32 289.39,307.33 255.51,248.66 289.37,189.99 357.12,189.98 		"/>
	</g>
	<g>
		<polygon class="st1" points="285.65,431.19 251.78,489.86 184.04,489.87 150.15,431.21 184.02,372.53 251.76,372.52 		"/>
	</g>
	<g>
		<polygon class="st1" points="285.47,309.41 251.61,368.09 183.86,368.1 149.98,309.43 183.84,250.76 251.59,250.75 		"/>
	</g>
	<g>
		<polygon class="st1" points="179.77,248.41 145.9,307.08 78.16,307.09 44.28,248.43 78.14,189.75 145.89,189.74 		"/>
	</g>
	<g>
		<polygon class="st1" points="813.98,614.44 780.12,673.11 712.37,673.12 678.49,614.46 712.35,555.78 780.1,555.77 		"/>
	</g>
	<g>
		<polygon class="st1" points="708.45,675.21 674.59,733.88 606.85,733.89 572.96,675.23 606.83,616.55 674.57,616.54 		"/>
	</g>
	<g>
		<polygon class="st1" points="602.93,735.98 569.06,794.65 501.32,794.66 467.44,736 501.3,677.32 569.04,677.31 		"/>
	</g>
	<g>
		<polygon class="st1" points="813.81,492.66 779.94,551.34 712.2,551.35 678.32,492.68 712.18,434.01 779.93,434 		"/>
	</g>
	<g>
		<polygon class="st1" points="813.63,370.89 779.77,429.56 712.02,429.57 678.14,370.91 712.01,312.23 779.75,312.22 		"/>
	</g>
	<g>
		<polygon class="st1" points="813.46,249.11 779.6,307.79 711.85,307.8 677.97,249.13 711.83,190.46 779.58,190.45 		"/>
	</g>
	<g>
		<polygon class="st1" points="707.76,188.11 673.89,246.78 606.15,246.79 572.27,188.13 606.13,129.45 673.87,129.44 		"/>
	</g>
	<g>
		<polygon class="st1" points="602.05,127.1 568.19,185.78 500.45,185.79 466.56,127.12 500.43,68.45 568.17,68.44 		"/>
	</g>
	<g>
		<polygon class="st1" points="496.35,66.1 462.49,124.77 394.74,124.78 360.86,66.12 394.72,7.44 462.47,7.43 		"/>
	</g>
	<g>
		<polygon class="st1" points="390.82,126.87 356.96,185.54 289.21,185.55 255.33,126.89 289.2,68.21 356.94,68.2 		"/>
	</g>
	<g>
		<polygon class="st1" points="285.3,187.64 251.43,246.31 183.69,246.32 149.8,187.66 183.67,128.98 251.41,128.97 		"/>
	</g>
	<g>
		<polygon class="st1" points="179.94,370.18 146.08,428.86 78.33,428.87 44.45,370.2 78.32,311.53 146.06,311.52 		"/>
	</g>
	<g>
		<polygon class="st1" points="180.12,491.95 146.25,550.63 78.51,550.64 44.63,491.98 78.49,433.3 146.24,433.29 		"/>
	</g>
	<g>
		<polygon class="st1" points="180.29,613.73 146.43,672.4 78.68,672.41 44.8,613.75 78.66,555.08 146.41,555.07 		"/>
	</g>
	<g>
		<polygon class="st1" points="285.99,674.73 252.13,733.41 184.38,733.42 150.5,674.76 184.37,616.08 252.11,616.07 		"/>
	</g>
	<g>
		<polygon class="st1" points="391.7,735.74 357.83,794.41 290.09,794.43 256.2,735.76 290.07,677.09 357.81,677.08 		"/>
	</g>
	<g>
		<polygon class="st1" points="497.4,796.74 463.53,855.42 395.79,855.43 361.91,796.77 395.77,738.09 463.52,738.08 		"/>
	</g>
</g>
<g id="Pieces">
</g>
<g id="Bees">
</g>
<g id="Layer_4">
</g>
</svg>
