<?xml version="1.0" encoding="utf-8"?>
<!-- Generator: Adobe Adobe Illustrator 24.2.0, SVG Export Plug-In . SVG Version: 6.00 Build 0)  -->
<svg version="1.1" xmlns="http://www.w3.org/2000/svg" xmlns:xlink="http://www.w3.org/1999/xlink" x="0px" y="0px" width="864px"
	 height="864px" viewBox="0 0 864 864" style="enable-background:new 0 0 864 864;" xml:space="preserve">
<style type="text/css">
	.st0{stroke:#000000;stroke-width:2;stroke-linecap:round;stroke-miterlimit:10;}
	.st1{fill:#FFFFFF;stroke:#000000;stroke-width:5;stroke-miterlimit:8;}
	.st2{fill:none;stroke:#000000;stroke-width:5;stroke-miterlimit:8;}
	.st3{stroke:#000000;stroke-miterlimit:10;}
	.st4{fill:#FFFFFF;stroke:#000000;stroke-width:2;stroke-linecap:round;stroke-miterlimit:10;}
	.st5{fill:#FFFFFF;stroke:#000000;stroke-width:4;stroke-linecap:round;stroke-miterlimit:10;}
	.st6{fill:#FFFFFF;stroke:#000000;stroke-width:2;stroke-miterlimit:10;}
	.st7{fill:#FFFFFF;}
</style>
<g id="Board">
</g>
<g id="Pieces">
	<g>
		<polygon class="st2" points="113.84,259.81 49.04,259.81 16.64,203.69 49.04,147.57 113.84,147.57 146.24,203.69 		"/>
	</g>
	<g>
		<polygon class="st2" points="252.56,259.81 187.76,259.81 155.36,203.69 187.76,147.57 252.56,147.57 284.96,203.69 		"/>
	</g>
	<g>
		<polygon class="st2" points="391.27,259.81 326.47,259.81 294.07,203.69 326.47,147.57 391.27,147.57 423.67,203.69 		"/>
	</g>
	<g>
		<polygon class="st2" points="529.98,259.81 465.18,259.81 432.78,203.69 465.18,147.57 529.98,147.57 562.38,203.69 		"/>
	</g>
	<g>
		<polygon class="st2" points="672.47,259.81 607.67,259.81 575.27,203.69 607.67,147.57 672.47,147.57 704.87,203.69 		"/>
	</g>
	<g>
		<polygon class="st2" points="814.96,259.81 750.16,259.81 717.76,203.69 750.16,147.57 814.96,147.57 847.36,203.69 		"/>
	</g>
	<g>
		<polygon class="st2" points="113.84,138.06 49.04,138.06 16.64,81.94 49.04,25.82 113.84,25.82 146.24,81.94 		"/>
	</g>
	<g>
		<polygon class="st2" points="252.56,138.06 187.76,138.06 155.36,81.94 187.76,25.82 252.56,25.82 284.96,81.94 		"/>
	</g>
	<g>
		<polygon class="st2" points="391.27,138.06 326.47,138.06 294.07,81.94 326.47,25.82 391.27,25.82 423.67,81.94 		"/>
	</g>
	<g>
		<polygon class="st2" points="529.98,138.06 465.18,138.06 432.78,81.94 465.18,25.82 529.98,25.82 562.38,81.94 		"/>
	</g>
	<g>
		<polygon class="st2" points="672.47,138.06 607.67,138.06 575.27,81.94 607.67,25.82 672.47,25.82 704.87,81.94 		"/>
	</g>
	<g>
		<polygon class="st2" points="814.96,138.06 750.16,138.06 717.76,81.94 750.16,25.82 814.96,25.82 847.36,81.94 		"/>
	</g>
	<g>
		<polygon class="st2" points="113.84,504.19 49.04,504.19 16.64,448.07 49.04,391.95 113.84,391.95 146.24,448.07 		"/>
	</g>
	<g>
		<polygon class="st2" points="252.56,504.19 187.76,504.19 155.36,448.07 187.76,391.95 252.56,391.95 284.96,448.07 		"/>
	</g>
	<g>
		<polygon class="st2" points="391.27,504.19 326.47,504.19 294.07,448.07 326.47,391.95 391.27,391.95 423.67,448.07 		"/>
	</g>
	<g>
		<polygon class="st2" points="529.98,504.19 465.18,504.19 432.78,448.07 465.18,391.95 529.98,391.95 562.38,448.07 		"/>
	</g>
	<g>
		<polygon class="st2" points="672.47,504.19 607.67,504.19 575.27,448.07 607.67,391.95 672.47,391.95 704.87,448.07 		"/>
	</g>
	<g>
		<polygon class="st2" points="814.96,504.19 750.16,504.19 717.76,448.07 750.16,391.95 814.96,391.95 847.36,448.07 		"/>
	</g>
	<g>
		<polygon class="st2" points="113.84,625.94 49.04,625.94 16.64,569.82 49.04,513.7 113.84,513.7 146.24,569.82 		"/>
	</g>
	<g>
		<polygon class="st2" points="252.56,625.94 187.76,625.94 155.36,569.82 187.76,513.7 252.56,513.7 284.96,569.82 		"/>
	</g>
	<g>
		<polygon class="st2" points="391.27,625.94 326.47,625.94 294.07,569.82 326.47,513.7 391.27,513.7 423.67,569.82 		"/>
	</g>
	<g>
		<polygon class="st2" points="529.98,625.94 465.18,625.94 432.78,569.82 465.18,513.7 529.98,513.7 562.38,569.82 		"/>
	</g>
	<g>
		<polygon class="st2" points="672.47,625.94 607.67,625.94 575.27,569.82 607.67,513.7 672.47,513.7 704.87,569.82 		"/>
	</g>
	<g>
		<polygon class="st2" points="814.96,625.94 750.16,625.94 717.76,569.82 750.16,513.7 814.96,513.7 847.36,569.82 		"/>
	</g>
	<g>
		<polygon class="st2" points="113.84,748.28 49.04,748.28 16.64,692.16 49.04,636.04 113.84,636.04 146.24,692.16 		"/>
	</g>
	<g>
		<polygon class="st2" points="252.56,748.28 187.76,748.28 155.36,692.16 187.76,636.04 252.56,636.04 284.96,692.16 		"/>
	</g>
	<g>
		<polygon class="st2" points="391.27,748.28 326.47,748.28 294.07,692.16 326.47,636.04 391.27,636.04 423.67,692.16 		"/>
	</g>
	<g>
		<polygon class="st2" points="529.98,748.28 465.18,748.28 432.78,692.16 465.18,636.04 529.98,636.04 562.38,692.16 		"/>
	</g>
	<g>
		<polygon class="st2" points="672.47,748.28 607.67,748.28 575.27,692.16 607.67,636.04 672.47,636.04 704.87,692.16 		"/>
	</g>
	<g>
		<polygon class="st2" points="814.96,748.28 750.16,748.28 717.76,692.16 750.16,636.04 814.96,636.04 847.36,692.16 		"/>
	</g>
	<g>
		<polygon class="st2" points="113.84,382.15 49.04,382.15 16.64,326.03 49.04,269.91 113.84,269.91 146.24,326.03 		"/>
	</g>
	<g>
		<polygon class="st2" points="252.56,382.15 187.76,382.15 155.36,326.03 187.76,269.91 252.56,269.91 284.96,326.03 		"/>
	</g>
	<g>
		<polygon class="st2" points="391.27,382.15 326.47,382.15 294.07,326.03 326.47,269.91 391.27,269.91 423.67,326.03 		"/>
	</g>
	<g>
		<polygon class="st2" points="529.98,382.15 465.18,382.15 432.78,326.03 465.18,269.91 529.98,269.91 562.38,326.03 		"/>
	</g>
	<g>
		<polygon class="st2" points="672.47,382.15 607.67,382.15 575.27,326.03 607.67,269.91 672.47,269.91 704.87,326.03 		"/>
	</g>
	<g>
		<polygon class="st2" points="814.96,382.15 750.16,382.15 717.76,326.03 750.16,269.91 814.96,269.91 847.36,326.03 		"/>
	</g>
</g>
<g id="Bees">
	<g>
		<path class="st3" d="M74.45,67.13c0-3.31,2.9-6,6.49-6c3.58,0,6.49,2.69,6.49,6c0,3.31-2.9,3.35-6.49,3.35
			C77.35,70.48,74.45,70.45,74.45,67.13z"/>
		<path class="st4" d="M77.93,100.94c0,0,1.79,5.91,2.85,7.1c0.21,0.23,2.61-7.01,2.61-7.01"/>
		<g>
			<path class="st5" d="M80.76,78.01c5.41,0,8.9,3.5,8.9,3.5"/>
			<path class="st5" d="M72.2,81.51c0,0,3.16-3.5,8.57-3.5"/>
		</g>
		<path class="st4" d="M85.43,86.15c0,0,4.99,5.16,6.02,7.28c1.17,2.41,1.78,8.24,3.79,10.02c1.23,1.1,3.08,3.21,3.08,4.59"/>
		<path class="st4" d="M75.9,79.36c0,0-4.99-5.16-6.02-7.28c-1.17-2.41-4.78-4.49-6.79-6.28c-1.23-1.1-6.6,0-6.6,0"/>
		<path class="st4" d="M89.48,89.32c0,0,7.18,0.12,9.41,0.89c2.53,0.88,3.59,12.57,6.27,12.41c1.65-0.1,3.81,3.21,3.81,3.21"/>
		<path class="st4" d="M87.42,79.36c0,0,4.98-5.16,6.01-7.28c1.17-2.41,3.55-4.98,5.55-6.76c1.23-1.1,6.59,0,6.59,0"/>
		<path class="st4" d="M75.89,86.93c0,0-4.98,5.16-6.01,7.28c-1.17,2.41-1.78,8.24-3.78,10.02c-1.23,1.1-3.83,2.95-3.83,5.22"/>
		<path class="st6" d="M69.93,86.18c0-8.83,6.99-7.99,12.92-7.99c5.93,0,8.54-0.84,8.54,7.99s-4.8,15.99-10.73,15.99
			C74.74,102.16,69.93,95.01,69.93,86.18z"/>
		<path class="st4" d="M70.6,91.97c0,0-7.17,0.12-9.4,0.9c-2.53,0.88,0.96,9.46-1.71,9.3c-1.65-0.1-5.57,3.66-5.57,3.66"/>
		<g>
			<path class="st5" d="M80.76,87.07c5.41,0,8.9,4.5,8.9,4.5"/>
			<path class="st5" d="M71.67,91.57c0,0,3.69-4.5,9.1-4.5"/>
		</g>
		<g>
			<path class="st5" d="M80.67,93.93c3.59,0,6.5,3,6.5,3"/>
			<path class="st5" d="M74.17,96.93c0,0,2.91-3,6.5-3"/>
		</g>
		
			<ellipse transform="matrix(0.7071 -0.7071 0.7071 0.7071 -42.2016 73.561)" class="st6" cx="67.7" cy="87.72" rx="14.5" ry="6.5"/>
		
			<ellipse transform="matrix(0.7071 -0.7071 0.7071 0.7071 -34.6038 91.9038)" class="st6" cx="93.64" cy="87.72" rx="6.5" ry="14.5"/>
		<ellipse class="st3" cx="74.45" cy="66.73" rx="2.12" ry="3.75"/>
		<ellipse class="st3" cx="87.42" cy="66.73" rx="2.12" ry="3.75"/>
		<ellipse class="st7" cx="74.75" cy="65.32" rx="1.06" ry="0.95"/>
		<ellipse class="st7" cx="87.11" cy="65.32" rx="1.06" ry="0.95"/>
		<ellipse class="st6" cx="80.93" cy="76.01" rx="7.21" ry="6"/>
		<path class="st4" d="M85.16,62.98c0,0-0.97-8.55,8.47-8.55"/>
		<path class="st4" d="M76.66,62.98c0,0,1.03-8.55-8.97-8.55"/>
	</g>
	<g>
		<path class="st3" d="M213.16,67.13c0-3.31,2.9-6,6.49-6c3.58,0,6.49,2.69,6.49,6c0,3.31-2.9,3.35-6.49,3.35
			C216.06,70.48,213.16,70.45,213.16,67.13z"/>
		<path class="st4" d="M216.65,100.94c0,0,1.79,5.91,2.85,7.1c0.21,0.23,2.61-7.01,2.61-7.01"/>
		<g>
			<path class="st5" d="M219.48,78.01c5.41,0,8.9,3.5,8.9,3.5"/>
			<path class="st5" d="M210.91,81.51c0,0,3.16-3.5,8.57-3.5"/>
		</g>
		<path class="st4" d="M224.14,86.15c0,0,4.99,5.16,6.02,7.28c1.17,2.41,1.78,8.24,3.79,10.02c1.23,1.1,3.08,3.21,3.08,4.59"/>
		<path class="st4" d="M214.62,79.36c0,0-4.99-5.16-6.02-7.28c-1.17-2.41-4.78-4.49-6.79-6.28c-1.23-1.1-6.6,0-6.6,0"/>
		<path class="st4" d="M228.2,89.32c0,0,7.18,0.12,9.41,0.89c2.53,0.88,3.59,12.57,6.27,12.41c1.65-0.1,3.81,3.21,3.81,3.21"/>
		<path class="st4" d="M226.13,79.36c0,0,4.98-5.16,6.01-7.28c1.17-2.41,3.55-4.98,5.55-6.76c1.23-1.1,6.59,0,6.59,0"/>
		<path class="st4" d="M214.6,86.93c0,0-4.98,5.16-6.01,7.28c-1.17,2.41-1.78,8.24-3.78,10.02c-1.23,1.1-3.83,2.95-3.83,5.22"/>
		<path class="st6" d="M208.65,86.18c0-8.83,6.99-7.99,12.92-7.99s8.54-0.84,8.54,7.99s-4.8,15.99-10.73,15.99
			C213.45,102.16,208.65,95.01,208.65,86.18z"/>
		<path class="st4" d="M209.31,91.97c0,0-7.17,0.12-9.4,0.9c-2.53,0.88,0.96,9.46-1.71,9.3c-1.65-0.1-5.57,3.66-5.57,3.66"/>
		<g>
			<path class="st5" d="M219.48,87.07c5.41,0,8.9,4.5,8.9,4.5"/>
			<path class="st5" d="M210.38,91.57c0,0,3.69-4.5,9.1-4.5"/>
		</g>
		<g>
			<path class="st5" d="M219.38,93.93c3.59,0,6.5,3,6.5,3"/>
			<path class="st5" d="M212.88,96.93c0,0,2.91-3,6.5-3"/>
		</g>
		
			<ellipse transform="matrix(0.7071 -0.7071 0.7071 0.7071 -1.5734 171.6461)" class="st6" cx="206.41" cy="87.72" rx="14.5" ry="6.5"/>
		
			<ellipse transform="matrix(0.7071 -0.7071 0.7071 0.7071 6.0244 189.9888)" class="st6" cx="232.35" cy="87.72" rx="6.5" ry="14.5"/>
		<ellipse class="st3" cx="213.16" cy="66.73" rx="2.12" ry="3.75"/>
		<ellipse class="st3" cx="226.13" cy="66.73" rx="2.12" ry="3.75"/>
		<ellipse class="st7" cx="213.46" cy="65.32" rx="1.06" ry="0.95"/>
		<ellipse class="st7" cx="225.83" cy="65.32" rx="1.06" ry="0.95"/>
		<ellipse class="st6" cx="219.64" cy="76.01" rx="7.21" ry="6"/>
		<path class="st4" d="M223.88,62.98c0,0-0.97-8.55,8.47-8.55"/>
		<path class="st4" d="M215.38,62.98c0,0,1.03-8.55-8.97-8.55"/>
	</g>
	<g>
		<path class="st3" d="M351.87,67.13c0-3.31,2.9-6,6.49-6s6.49,2.69,6.49,6c0,3.31-2.9,3.35-6.49,3.35S351.87,70.45,351.87,67.13z"
			/>
		<path class="st4" d="M355.36,100.94c0,0,1.79,5.91,2.85,7.1c0.21,0.23,2.61-7.01,2.61-7.01"/>
		<g>
			<path class="st5" d="M358.19,78.01c5.41,0,8.9,3.5,8.9,3.5"/>
			<path class="st5" d="M349.62,81.51c0,0,3.16-3.5,8.57-3.5"/>
		</g>
		<path class="st4" d="M362.85,86.15c0,0,4.99,5.16,6.02,7.28c1.17,2.41,1.78,8.24,3.79,10.02c1.23,1.1,3.08,3.21,3.08,4.59"/>
		<path class="st4" d="M353.33,79.36c0,0-4.99-5.16-6.02-7.28c-1.17-2.41-4.78-4.49-6.79-6.28c-1.23-1.1-6.6,0-6.6,0"/>
		<path class="st4" d="M366.91,89.32c0,0,7.18,0.12,9.41,0.89c2.53,0.88,3.59,12.57,6.27,12.41c1.65-0.1,3.81,3.21,3.81,3.21"/>
		<path class="st4" d="M364.84,79.36c0,0,4.98-5.16,6.01-7.28c1.17-2.41,3.55-4.98,5.55-6.76c1.23-1.1,6.59,0,6.59,0"/>
		<path class="st4" d="M353.32,86.93c0,0-4.98,5.16-6.01,7.28c-1.17,2.41-1.78,8.24-3.78,10.02c-1.23,1.1-3.83,2.95-3.83,5.22"/>
		<path class="st6" d="M347.36,86.18c0-8.83,6.99-7.99,12.92-7.99s8.54-0.84,8.54,7.99s-4.8,15.99-10.73,15.99
			C352.17,102.16,347.36,95.01,347.36,86.18z"/>
		<path class="st4" d="M348.03,91.97c0,0-7.17,0.12-9.4,0.9c-2.53,0.88,0.96,9.46-1.71,9.3c-1.65-0.1-5.57,3.66-5.57,3.66"/>
		<g>
			<path class="st5" d="M358.19,87.07c5.41,0,8.9,4.5,8.9,4.5"/>
			<path class="st5" d="M349.09,91.57c0,0,3.69-4.5,9.1-4.5"/>
		</g>
		<g>
			<path class="st5" d="M358.09,93.93c3.59,0,6.5,3,6.5,3"/>
			<path class="st5" d="M351.59,96.93c0,0,2.91-3,6.5-3"/>
		</g>
		
			<ellipse transform="matrix(0.7071 -0.7071 0.7071 0.7071 39.0547 269.7312)" class="st6" cx="345.12" cy="87.72" rx="14.5" ry="6.5"/>
		
			<ellipse transform="matrix(0.7071 -0.7071 0.7071 0.7071 46.6525 288.0739)" class="st6" cx="371.06" cy="87.72" rx="6.5" ry="14.5"/>
		<ellipse class="st3" cx="351.87" cy="66.73" rx="2.12" ry="3.75"/>
		<ellipse class="st3" cx="364.84" cy="66.73" rx="2.12" ry="3.75"/>
		<ellipse class="st7" cx="352.18" cy="65.32" rx="1.06" ry="0.95"/>
		<ellipse class="st7" cx="364.54" cy="65.32" rx="1.06" ry="0.95"/>
		<ellipse class="st6" cx="358.36" cy="76.01" rx="7.21" ry="6"/>
		<path class="st4" d="M362.59,62.98c0,0-0.97-8.55,8.47-8.55"/>
		<path class="st4" d="M354.09,62.98c0,0,1.03-8.55-8.97-8.55"/>
	</g>
	<g>
		<path class="st3" d="M490.58,67.13c0-3.31,2.9-6,6.49-6s6.49,2.69,6.49,6c0,3.31-2.9,3.35-6.49,3.35S490.58,70.45,490.58,67.13z"
			/>
		<path class="st4" d="M494.07,100.94c0,0,1.79,5.91,2.85,7.1c0.21,0.23,2.61-7.01,2.61-7.01"/>
		<g>
			<path class="st5" d="M496.9,78.01c5.41,0,8.9,3.5,8.9,3.5"/>
			<path class="st5" d="M488.33,81.51c0,0,3.16-3.5,8.57-3.5"/>
		</g>
		<path class="st4" d="M501.57,86.15c0,0,4.99,5.16,6.02,7.28c1.17,2.41,1.78,8.24,3.79,10.02c1.23,1.1,3.08,3.21,3.08,4.59"/>
		<path class="st4" d="M492.04,79.36c0,0-4.99-5.16-6.02-7.28c-1.17-2.41-4.78-4.49-6.79-6.28c-1.23-1.1-6.6,0-6.6,0"/>
		<path class="st4" d="M505.62,89.32c0,0,7.18,0.12,9.41,0.89c2.53,0.88,3.59,12.57,6.27,12.41c1.65-0.1,3.81,3.21,3.81,3.21"/>
		<path class="st4" d="M503.56,79.36c0,0,4.98-5.16,6.01-7.28c1.17-2.41,3.55-4.98,5.55-6.76c1.23-1.1,6.59,0,6.59,0"/>
		<path class="st4" d="M492.03,86.93c0,0-4.98,5.16-6.01,7.28c-1.17,2.41-1.78,8.24-3.78,10.02c-1.23,1.1-3.83,2.95-3.83,5.22"/>
		<path class="st6" d="M486.07,86.18c0-8.83,6.99-7.99,12.92-7.99c5.93,0,8.54-0.84,8.54,7.99s-4.8,15.99-10.73,15.99
			S486.07,95.01,486.07,86.18z"/>
		<path class="st4" d="M486.74,91.97c0,0-7.17,0.12-9.4,0.9c-2.53,0.88,0.96,9.46-1.71,9.3c-1.65-0.1-5.57,3.66-5.57,3.66"/>
		<g>
			<path class="st5" d="M496.9,87.07c5.41,0,8.9,4.5,8.9,4.5"/>
			<path class="st5" d="M487.81,91.57c0,0,3.69-4.5,9.1-4.5"/>
		</g>
		<g>
			<path class="st5" d="M496.81,93.93c3.59,0,6.5,3,6.5,3"/>
			<path class="st5" d="M490.31,96.93c0,0,2.91-3,6.5-3"/>
		</g>
		
			<ellipse transform="matrix(0.7071 -0.7071 0.7071 0.7071 79.6829 367.8163)" class="st6" cx="483.83" cy="87.72" rx="14.5" ry="6.5"/>
		
			<ellipse transform="matrix(0.7071 -0.7071 0.7071 0.7071 87.2807 386.159)" class="st6" cx="509.78" cy="87.72" rx="6.5" ry="14.5"/>
		<ellipse class="st3" cx="490.58" cy="66.73" rx="2.12" ry="3.75"/>
		<ellipse class="st3" cx="503.56" cy="66.73" rx="2.12" ry="3.75"/>
		<ellipse class="st7" cx="490.89" cy="65.32" rx="1.06" ry="0.95"/>
		<ellipse class="st7" cx="503.25" cy="65.32" rx="1.06" ry="0.95"/>
		<ellipse class="st6" cx="497.07" cy="76.01" rx="7.21" ry="6"/>
		<path class="st4" d="M501.3,62.98c0,0-0.97-8.55,8.47-8.55"/>
		<path class="st4" d="M492.8,62.98c0,0,1.03-8.55-8.97-8.55"/>
	</g>
	<g>
		<path class="st3" d="M633.07,67.13c0-3.31,2.9-6,6.49-6s6.49,2.69,6.49,6c0,3.31-2.9,3.35-6.49,3.35S633.07,70.45,633.07,67.13z"
			/>
		<path class="st4" d="M636.56,100.94c0,0,1.79,5.91,2.85,7.1c0.21,0.23,2.61-7.01,2.61-7.01"/>
		<g>
			<path class="st5" d="M639.39,78.01c5.41,0,8.9,3.5,8.9,3.5"/>
			<path class="st5" d="M630.82,81.51c0,0,3.16-3.5,8.57-3.5"/>
		</g>
		<path class="st4" d="M644.05,86.15c0,0,4.99,5.16,6.02,7.28c1.17,2.41,1.78,8.24,3.79,10.02c1.23,1.1,3.08,3.21,3.08,4.59"/>
		<path class="st4" d="M634.53,79.36c0,0-4.99-5.16-6.02-7.28c-1.17-2.41-4.78-4.49-6.79-6.28c-1.23-1.1-6.6,0-6.6,0"/>
		<path class="st4" d="M648.11,89.32c0,0,7.18,0.12,9.41,0.89c2.53,0.88,3.59,12.57,6.27,12.41c1.65-0.1,3.81,3.21,3.81,3.21"/>
		<path class="st4" d="M646.04,79.36c0,0,4.98-5.16,6.01-7.28c1.17-2.41,3.55-4.98,5.55-6.76c1.23-1.1,6.59,0,6.59,0"/>
		<path class="st4" d="M634.52,86.93c0,0-4.98,5.16-6.01,7.28c-1.17,2.41-1.78,8.24-3.78,10.02c-1.23,1.1-3.83,2.95-3.83,5.22"/>
		<path class="st6" d="M628.56,86.18c0-8.83,6.99-7.99,12.92-7.99s8.54-0.84,8.54,7.99s-4.8,15.99-10.73,15.99
			S628.56,95.01,628.56,86.18z"/>
		<path class="st4" d="M629.23,91.97c0,0-7.17,0.12-9.4,0.9c-2.53,0.88,0.96,9.46-1.71,9.3c-1.65-0.1-5.57,3.66-5.57,3.66"/>
		<g>
			<path class="st5" d="M639.39,87.07c5.41,0,8.9,4.5,8.9,4.5"/>
			<path class="st5" d="M630.29,91.57c0,0,3.69-4.5,9.1-4.5"/>
		</g>
		<g>
			<path class="st5" d="M639.29,93.93c3.59,0,6.5,3,6.5,3"/>
			<path class="st5" d="M632.79,96.93c0,0,2.91-3,6.5-3"/>
		</g>
		
			<ellipse transform="matrix(0.7071 -0.7071 0.7071 0.7071 121.4163 468.5696)" class="st6" cx="626.32" cy="87.72" rx="14.5" ry="6.5"/>
		
			<ellipse transform="matrix(0.7071 -0.7071 0.7071 0.7071 129.0141 486.9123)" class="st6" cx="652.26" cy="87.72" rx="6.5" ry="14.5"/>
		<ellipse class="st3" cx="633.07" cy="66.73" rx="2.12" ry="3.75"/>
		<ellipse class="st3" cx="646.04" cy="66.73" rx="2.12" ry="3.75"/>
		<ellipse class="st7" cx="633.38" cy="65.32" rx="1.06" ry="0.95"/>
		<ellipse class="st7" cx="645.74" cy="65.32" rx="1.06" ry="0.95"/>
		<ellipse class="st6" cx="639.56" cy="76.01" rx="7.21" ry="6"/>
		<path class="st4" d="M643.79,62.98c0,0-0.97-8.55,8.47-8.55"/>
		<path class="st4" d="M635.29,62.98c0,0,1.03-8.55-8.97-8.55"/>
	</g>
	<g>
		<path class="st3" d="M775.56,67.13c0-3.31,2.9-6,6.49-6s6.49,2.69,6.49,6c0,3.31-2.9,3.35-6.49,3.35S775.56,70.45,775.56,67.13z"
			/>
		<path class="st4" d="M779.05,100.94c0,0,1.79,5.91,2.85,7.1c0.21,0.23,2.61-7.01,2.61-7.01"/>
		<g>
			<path class="st5" d="M781.88,78.01c5.41,0,8.9,3.5,8.9,3.5"/>
			<path class="st5" d="M773.31,81.51c0,0,3.16-3.5,8.57-3.5"/>
		</g>
		<path class="st4" d="M786.54,86.15c0,0,4.99,5.16,6.02,7.28c1.17,2.41,1.78,8.24,3.79,10.02c1.23,1.1,3.08,3.21,3.08,4.59"/>
		<path class="st4" d="M777.02,79.36c0,0-4.99-5.16-6.02-7.28c-1.17-2.41-4.78-4.49-6.79-6.28c-1.23-1.1-6.6,0-6.6,0"/>
		<path class="st4" d="M790.6,89.32c0,0,7.18,0.12,9.41,0.89c2.53,0.88,3.59,12.57,6.27,12.41c1.65-0.1,3.81,3.21,3.81,3.21"/>
		<path class="st4" d="M788.53,79.36c0,0,4.98-5.16,6.01-7.28c1.17-2.41,3.55-4.98,5.55-6.76c1.23-1.1,6.59,0,6.59,0"/>
		<path class="st4" d="M777,86.93c0,0-4.98,5.16-6.01,7.28c-1.17,2.41-1.78,8.24-3.78,10.02c-1.23,1.1-3.83,2.95-3.83,5.22"/>
		<path class="st6" d="M771.05,86.18c0-8.83,6.99-7.99,12.92-7.99s8.54-0.84,8.54,7.99s-4.8,15.99-10.73,15.99
			S771.05,95.01,771.05,86.18z"/>
		<path class="st4" d="M771.71,91.97c0,0-7.17,0.12-9.4,0.9c-2.53,0.88,0.96,9.46-1.71,9.3c-1.65-0.1-5.57,3.66-5.57,3.66"/>
		<g>
			<path class="st5" d="M781.88,87.07c5.41,0,8.9,4.5,8.9,4.5"/>
			<path class="st5" d="M772.78,91.57c0,0,3.69-4.5,9.1-4.5"/>
		</g>
		<g>
			<path class="st5" d="M781.78,93.93c3.59,0,6.5,3,6.5,3"/>
			<path class="st5" d="M775.28,96.93c0,0,2.91-3,6.5-3"/>
		</g>
		
			<ellipse transform="matrix(0.7071 -0.7071 0.7071 0.7071 163.1497 569.323)" class="st6" cx="768.81" cy="87.72" rx="14.5" ry="6.5"/>
		
			<ellipse transform="matrix(0.7071 -0.7071 0.7071 0.7071 170.7474 587.6656)" class="st6" cx="794.75" cy="87.72" rx="6.5" ry="14.5"/>
		<ellipse class="st3" cx="775.56" cy="66.73" rx="2.12" ry="3.75"/>
		<ellipse class="st3" cx="788.53" cy="66.73" rx="2.12" ry="3.75"/>
		<ellipse class="st7" cx="775.86" cy="65.32" rx="1.06" ry="0.95"/>
		<ellipse class="st7" cx="788.23" cy="65.32" rx="1.06" ry="0.95"/>
		<ellipse class="st6" cx="782.04" cy="76.01" rx="7.21" ry="6"/>
		<path class="st4" d="M786.28,62.98c0,0-0.97-8.55,8.47-8.55"/>
		<path class="st4" d="M777.78,62.98c0,0,1.03-8.55-8.97-8.55"/>
	</g>
	<g>
		<path class="st3" d="M775.56,188.88c0-3.31,2.9-6,6.49-6s6.49,2.69,6.49,6s-2.9,3.35-6.49,3.35S775.56,192.19,775.56,188.88z"/>
		<path class="st4" d="M779.05,222.69c0,0,1.79,5.91,2.85,7.1c0.21,0.23,2.61-7.01,2.61-7.01"/>
		<g>
			<path class="st5" d="M781.88,199.76c5.41,0,8.9,3.5,8.9,3.5"/>
			<path class="st5" d="M773.31,203.26c0,0,3.16-3.5,8.57-3.5"/>
		</g>
		<path class="st4" d="M786.54,207.9c0,0,4.99,5.16,6.02,7.28c1.17,2.41,1.78,8.24,3.79,10.02c1.23,1.1,3.08,3.21,3.08,4.59"/>
		<path class="st4" d="M777.02,201.11c0,0-4.99-5.16-6.02-7.28c-1.17-2.41-4.78-4.49-6.79-6.28c-1.23-1.1-6.6,0-6.6,0"/>
		<path class="st4" d="M790.6,211.07c0,0,7.18,0.12,9.41,0.89c2.53,0.88,3.59,12.57,6.27,12.41c1.65-0.1,3.81,3.21,3.81,3.21"/>
		<path class="st4" d="M788.53,201.11c0,0,4.98-5.16,6.01-7.28c1.17-2.41,3.55-4.98,5.55-6.76c1.23-1.1,6.59,0,6.59,0"/>
		<path class="st4" d="M777,208.68c0,0-4.98,5.16-6.01,7.28c-1.17,2.41-1.78,8.24-3.78,10.02c-1.23,1.1-3.83,2.95-3.83,5.22"/>
		<path class="st6" d="M771.05,207.93c0-8.83,6.99-7.99,12.92-7.99s8.54-0.84,8.54,7.99s-4.8,15.99-10.73,15.99
			S771.05,216.75,771.05,207.93z"/>
		<path class="st4" d="M771.71,213.72c0,0-7.17,0.12-9.4,0.9c-2.53,0.88,0.96,9.46-1.71,9.3c-1.65-0.1-5.57,3.66-5.57,3.66"/>
		<g>
			<path class="st5" d="M781.88,208.82c5.41,0,8.9,4.5,8.9,4.5"/>
			<path class="st5" d="M772.78,213.32c0,0,3.69-4.5,9.1-4.5"/>
		</g>
		<g>
			<path class="st5" d="M781.78,215.68c3.59,0,6.5,3,6.5,3"/>
			<path class="st5" d="M775.28,218.68c0,0,2.91-3,6.5-3"/>
		</g>
		
			<ellipse transform="matrix(0.7071 -0.7071 0.7071 0.7071 77.0609 604.9822)" class="st6" cx="768.81" cy="209.47" rx="14.5" ry="6.5"/>
		
			<ellipse transform="matrix(0.7071 -0.7071 0.7071 0.7071 84.6586 623.3248)" class="st6" cx="794.75" cy="209.47" rx="6.5" ry="14.5"/>
		<ellipse class="st3" cx="775.56" cy="188.48" rx="2.12" ry="3.75"/>
		<ellipse class="st3" cx="788.53" cy="188.48" rx="2.12" ry="3.75"/>
		<ellipse class="st7" cx="775.86" cy="187.07" rx="1.06" ry="0.95"/>
		<ellipse class="st7" cx="788.23" cy="187.07" rx="1.06" ry="0.95"/>
		<ellipse class="st6" cx="782.04" cy="197.76" rx="7.21" ry="6"/>
		<path class="st4" d="M786.28,184.73c0,0-0.97-8.55,8.47-8.55"/>
		<path class="st4" d="M777.78,184.73c0,0,1.03-8.55-8.97-8.55"/>
	</g>
	<g>
		<path class="st3" d="M775.56,311.22c0-3.31,2.9-6,6.49-6s6.49,2.69,6.49,6c0,3.31-2.9,3.35-6.49,3.35S775.56,314.53,775.56,311.22
			z"/>
		<path class="st4" d="M779.05,345.03c0,0,1.79,5.91,2.85,7.1c0.21,0.23,2.61-7.01,2.61-7.01"/>
		<g>
			<path class="st5" d="M781.88,322.1c5.41,0,8.9,3.5,8.9,3.5"/>
			<path class="st5" d="M773.31,325.6c0,0,3.16-3.5,8.57-3.5"/>
		</g>
		<path class="st4" d="M786.54,330.24c0,0,4.99,5.16,6.02,7.28c1.17,2.41,1.78,8.24,3.79,10.02c1.23,1.1,3.08,3.21,3.08,4.59"/>
		<path class="st4" d="M777.02,323.45c0,0-4.99-5.16-6.02-7.28c-1.17-2.41-4.78-4.49-6.79-6.28c-1.23-1.1-6.6,0-6.6,0"/>
		<path class="st4" d="M790.6,333.41c0,0,7.18,0.12,9.41,0.89c2.53,0.88,3.59,12.57,6.27,12.41c1.65-0.1,3.81,3.21,3.81,3.21"/>
		<path class="st4" d="M788.53,323.45c0,0,4.98-5.16,6.01-7.28c1.17-2.41,3.55-4.98,5.55-6.76c1.23-1.1,6.59,0,6.59,0"/>
		<path class="st4" d="M777,331.02c0,0-4.98,5.16-6.01,7.28c-1.17,2.41-1.78,8.24-3.78,10.02c-1.23,1.1-3.83,2.95-3.83,5.22"/>
		<path class="st6" d="M771.05,330.26c0-8.83,6.99-7.99,12.92-7.99s8.54-0.84,8.54,7.99s-4.8,15.99-10.73,15.99
			S771.05,339.09,771.05,330.26z"/>
		<path class="st4" d="M771.71,336.05c0,0-7.17,0.12-9.4,0.9c-2.53,0.88,0.96,9.46-1.71,9.3c-1.65-0.1-5.57,3.66-5.57,3.66"/>
		<g>
			<path class="st5" d="M781.88,331.16c5.41,0,8.9,4.5,8.9,4.5"/>
			<path class="st5" d="M772.78,335.66c0,0,3.69-4.5,9.1-4.5"/>
		</g>
		<g>
			<path class="st5" d="M781.78,338.02c3.59,0,6.5,3,6.5,3"/>
			<path class="st5" d="M775.28,341.02c0,0,2.91-3,6.5-3"/>
		</g>
		
			<ellipse transform="matrix(0.7071 -0.7071 0.7071 0.7071 -9.4459 640.8145)" class="st6" cx="768.81" cy="331.81" rx="14.5" ry="6.5"/>
		
			<ellipse transform="matrix(0.7071 -0.7071 0.7071 0.7071 -1.8481 659.157)" class="st6" cx="794.75" cy="331.81" rx="6.5" ry="14.5"/>
		<ellipse class="st3" cx="775.56" cy="310.82" rx="2.12" ry="3.75"/>
		<ellipse class="st3" cx="788.53" cy="310.82" rx="2.12" ry="3.75"/>
		<ellipse class="st7" cx="775.86" cy="309.41" rx="1.06" ry="0.95"/>
		<ellipse class="st7" cx="788.23" cy="309.41" rx="1.06" ry="0.95"/>
		<ellipse class="st6" cx="782.04" cy="320.1" rx="7.21" ry="6"/>
		<path class="st4" d="M786.28,307.07c0,0-0.97-8.55,8.47-8.55"/>
		<path class="st4" d="M777.78,307.07c0,0,1.03-8.55-8.97-8.55"/>
	</g>
	<g>
		<path class="st3" d="M775.56,433.26c0-3.31,2.9-6,6.49-6s6.49,2.69,6.49,6c0,3.31-2.9,3.35-6.49,3.35S775.56,436.58,775.56,433.26
			z"/>
		<path class="st4" d="M779.05,467.07c0,0,1.79,5.91,2.85,7.1c0.21,0.23,2.61-7.01,2.61-7.01"/>
		<g>
			<path class="st5" d="M781.88,444.14c5.41,0,8.9,3.5,8.9,3.5"/>
			<path class="st5" d="M773.31,447.64c0,0,3.16-3.5,8.57-3.5"/>
		</g>
		<path class="st4" d="M786.54,452.28c0,0,4.99,5.16,6.02,7.28c1.17,2.41,1.78,8.24,3.79,10.02c1.23,1.1,3.08,3.21,3.08,4.59"/>
		<path class="st4" d="M777.02,445.49c0,0-4.99-5.16-6.02-7.28c-1.17-2.41-4.78-4.49-6.79-6.28c-1.23-1.1-6.6,0-6.6,0"/>
		<path class="st4" d="M790.6,455.45c0,0,7.18,0.12,9.41,0.89c2.53,0.88,3.59,12.57,6.27,12.41c1.65-0.1,3.81,3.21,3.81,3.21"/>
		<path class="st4" d="M788.53,445.49c0,0,4.98-5.16,6.01-7.28c1.17-2.41,3.55-4.98,5.55-6.76c1.23-1.1,6.59,0,6.59,0"/>
		<path class="st4" d="M777,453.06c0,0-4.98,5.16-6.01,7.28c-1.17,2.41-1.78,8.24-3.78,10.02c-1.23,1.1-3.83,2.95-3.83,5.22"/>
		<path class="st6" d="M771.05,452.31c0-8.83,6.99-7.99,12.92-7.99s8.54-0.84,8.54,7.99s-4.8,15.99-10.73,15.99
			S771.05,461.14,771.05,452.31z"/>
		<path class="st4" d="M771.71,458.1c0,0-7.17,0.12-9.4,0.9c-2.53,0.88,0.96,9.46-1.71,9.3c-1.65-0.1-5.57,3.66-5.57,3.66"/>
		<g>
			<path class="st5" d="M781.88,453.2c5.41,0,8.9,4.5,8.9,4.5"/>
			<path class="st5" d="M772.78,457.7c0,0,3.69-4.5,9.1-4.5"/>
		</g>
		<g>
			<path class="st5" d="M781.78,460.06c3.59,0,6.5,3,6.5,3"/>
			<path class="st5" d="M775.28,463.06c0,0,2.91-3,6.5-3"/>
		</g>
		
			<ellipse transform="matrix(0.7071 -0.7071 0.7071 0.7071 -95.7437 676.5602)" class="st6" cx="768.81" cy="453.85" rx="14.5" ry="6.5"/>
		
			<ellipse transform="matrix(0.7071 -0.7071 0.7071 0.7071 -88.1459 694.9027)" class="st6" cx="794.75" cy="453.85" rx="6.5" ry="14.5"/>
		<ellipse class="st3" cx="775.56" cy="432.86" rx="2.12" ry="3.75"/>
		<ellipse class="st3" cx="788.53" cy="432.86" rx="2.12" ry="3.75"/>
		<ellipse class="st7" cx="775.86" cy="431.45" rx="1.06" ry="0.95"/>
		<ellipse class="st7" cx="788.23" cy="431.45" rx="1.06" ry="0.95"/>
		<ellipse class="st6" cx="782.04" cy="442.14" rx="7.21" ry="6"/>
		<path class="st4" d="M786.28,429.11c0,0-0.97-8.55,8.47-8.55"/>
		<path class="st4" d="M777.78,429.11c0,0,1.03-8.55-8.97-8.55"/>
	</g>
	<g>
		<path class="st3" d="M775.56,555.01c0-3.31,2.9-6,6.49-6s6.49,2.69,6.49,6s-2.9,3.35-6.49,3.35S775.56,558.32,775.56,555.01z"/>
		<path class="st4" d="M779.05,588.82c0,0,1.79,5.91,2.85,7.1c0.21,0.23,2.61-7.01,2.61-7.01"/>
		<g>
			<path class="st5" d="M781.88,565.89c5.41,0,8.9,3.5,8.9,3.5"/>
			<path class="st5" d="M773.31,569.39c0,0,3.16-3.5,8.57-3.5"/>
		</g>
		<path class="st4" d="M786.54,574.03c0,0,4.99,5.16,6.02,7.28c1.17,2.41,1.78,8.24,3.79,10.02c1.23,1.1,3.08,3.21,3.08,4.59"/>
		<path class="st4" d="M777.02,567.24c0,0-4.99-5.16-6.02-7.28c-1.17-2.41-4.78-4.49-6.79-6.28c-1.23-1.1-6.6,0-6.6,0"/>
		<path class="st4" d="M790.6,577.2c0,0,7.18,0.12,9.41,0.89c2.53,0.88,3.59,12.57,6.27,12.41c1.65-0.1,3.81,3.21,3.81,3.21"/>
		<path class="st4" d="M788.53,567.24c0,0,4.98-5.16,6.01-7.28c1.17-2.41,3.55-4.98,5.55-6.76c1.23-1.1,6.59,0,6.59,0"/>
		<path class="st4" d="M777,574.81c0,0-4.98,5.16-6.01,7.28c-1.17,2.41-1.78,8.24-3.78,10.03c-1.23,1.1-3.83,2.95-3.83,5.22"/>
		<path class="st6" d="M771.05,574.06c0-8.83,6.99-7.99,12.92-7.99s8.54-0.84,8.54,7.99s-4.8,15.99-10.73,15.99
			S771.05,582.89,771.05,574.06z"/>
		<path class="st4" d="M771.71,579.85c0,0-7.17,0.12-9.4,0.9c-2.53,0.88,0.96,9.46-1.71,9.3c-1.65-0.1-5.57,3.66-5.57,3.66"/>
		<g>
			<path class="st5" d="M781.88,574.95c5.41,0,8.9,4.5,8.9,4.5"/>
			<path class="st5" d="M772.78,579.45c0,0,3.69-4.5,9.1-4.5"/>
		</g>
		<g>
			<path class="st5" d="M781.78,581.81c3.59,0,6.5,3,6.5,3"/>
			<path class="st5" d="M775.28,584.81c0,0,2.91-3,6.5-3"/>
		</g>
		
			<ellipse transform="matrix(0.7071 -0.7071 0.7071 0.7071 -181.8326 712.2194)" class="st6" cx="768.81" cy="575.6" rx="14.5" ry="6.5"/>
		
			<ellipse transform="matrix(0.7071 -0.7071 0.7071 0.7071 -174.2348 730.5619)" class="st6" cx="794.75" cy="575.6" rx="6.5" ry="14.5"/>
		<ellipse class="st3" cx="775.56" cy="554.61" rx="2.12" ry="3.75"/>
		<ellipse class="st3" cx="788.53" cy="554.61" rx="2.12" ry="3.75"/>
		<ellipse class="st7" cx="775.86" cy="553.2" rx="1.06" ry="0.95"/>
		<ellipse class="st7" cx="788.23" cy="553.2" rx="1.06" ry="0.95"/>
		<ellipse class="st6" cx="782.04" cy="563.89" rx="7.21" ry="6"/>
		<path class="st4" d="M786.28,550.86c0,0-0.97-8.55,8.47-8.55"/>
		<path class="st4" d="M777.78,550.86c0,0,1.03-8.55-8.97-8.55"/>
	</g>
	<g>
		<path class="st3" d="M775.56,677.35c0-3.31,2.9-6,6.49-6s6.49,2.69,6.49,6s-2.9,3.35-6.49,3.35S775.56,680.66,775.56,677.35z"/>
		<path class="st4" d="M779.05,711.16c0,0,1.79,5.91,2.85,7.1c0.21,0.23,2.61-7.01,2.61-7.01"/>
		<g>
			<path class="st5" d="M781.88,688.23c5.41,0,8.9,3.5,8.9,3.5"/>
			<path class="st5" d="M773.31,691.73c0,0,3.16-3.5,8.57-3.5"/>
		</g>
		<path class="st4" d="M786.54,696.37c0,0,4.99,5.16,6.02,7.28c1.17,2.41,1.78,8.24,3.79,10.03c1.23,1.1,3.08,3.21,3.08,4.59"/>
		<path class="st4" d="M777.02,689.58c0,0-4.99-5.16-6.02-7.28c-1.17-2.41-4.78-4.49-6.79-6.28c-1.23-1.1-6.6,0-6.6,0"/>
		<path class="st4" d="M790.6,699.54c0,0,7.18,0.12,9.41,0.89c2.53,0.88,3.59,12.57,6.27,12.41c1.65-0.1,3.81,3.21,3.81,3.21"/>
		<path class="st4" d="M788.53,689.58c0,0,4.98-5.16,6.01-7.28c1.17-2.41,3.55-4.98,5.55-6.76c1.23-1.1,6.59,0,6.59,0"/>
		<path class="st4" d="M777,697.15c0,0-4.98,5.16-6.01,7.28c-1.17,2.41-1.78,8.24-3.78,10.02c-1.23,1.1-3.83,2.95-3.83,5.22"/>
		<path class="st6" d="M771.05,696.39c0-8.83,6.99-7.99,12.92-7.99s8.54-0.84,8.54,7.99s-4.8,15.99-10.73,15.99
			S771.05,705.22,771.05,696.39z"/>
		<path class="st4" d="M771.71,702.18c0,0-7.17,0.12-9.4,0.9c-2.53,0.88,0.96,9.46-1.71,9.3c-1.65-0.1-5.57,3.66-5.57,3.66"/>
		<g>
			<path class="st5" d="M781.88,697.29c5.41,0,8.9,4.5,8.9,4.5"/>
			<path class="st5" d="M772.78,701.79c0,0,3.69-4.5,9.1-4.5"/>
		</g>
		<g>
			<path class="st5" d="M781.78,704.15c3.59,0,6.5,3,6.5,3"/>
			<path class="st5" d="M775.28,707.15c0,0,2.91-3,6.5-3"/>
		</g>
		
			<ellipse transform="matrix(0.7071 -0.7071 0.7071 0.7071 -268.3393 748.0516)" class="st6" cx="768.81" cy="697.94" rx="14.5" ry="6.5"/>
		
			<ellipse transform="matrix(0.7071 -0.7071 0.7071 0.7071 -260.7415 766.3941)" class="st6" cx="794.75" cy="697.94" rx="6.5" ry="14.5"/>
		<ellipse class="st3" cx="775.56" cy="676.95" rx="2.12" ry="3.75"/>
		<ellipse class="st3" cx="788.53" cy="676.95" rx="2.12" ry="3.75"/>
		<ellipse class="st7" cx="775.86" cy="675.54" rx="1.06" ry="0.95"/>
		<ellipse class="st7" cx="788.23" cy="675.54" rx="1.06" ry="0.95"/>
		<ellipse class="st6" cx="782.04" cy="686.23" rx="7.21" ry="6"/>
		<path class="st4" d="M786.28,673.2c0,0-0.97-8.55,8.47-8.55"/>
		<path class="st4" d="M777.78,673.2c0,0,1.03-8.55-8.97-8.55"/>
	</g>
	<g>
		<path class="st3" d="M633.07,188.88c0-3.31,2.9-6,6.49-6s6.49,2.69,6.49,6s-2.9,3.35-6.49,3.35S633.07,192.19,633.07,188.88z"/>
		<path class="st4" d="M636.56,222.69c0,0,1.79,5.91,2.85,7.1c0.21,0.23,2.61-7.01,2.61-7.01"/>
		<g>
			<path class="st5" d="M639.39,199.76c5.41,0,8.9,3.5,8.9,3.5"/>
			<path class="st5" d="M630.82,203.26c0,0,3.16-3.5,8.57-3.5"/>
		</g>
		<path class="st4" d="M644.05,207.9c0,0,4.99,5.16,6.02,7.28c1.17,2.41,1.78,8.24,3.79,10.02c1.23,1.1,3.08,3.21,3.08,4.59"/>
		<path class="st4" d="M634.53,201.11c0,0-4.99-5.16-6.02-7.28c-1.17-2.41-4.78-4.49-6.79-6.28c-1.23-1.1-6.6,0-6.6,0"/>
		<path class="st4" d="M648.11,211.07c0,0,7.18,0.12,9.41,0.89c2.53,0.88,3.59,12.57,6.27,12.41c1.65-0.1,3.81,3.21,3.81,3.21"/>
		<path class="st4" d="M646.04,201.11c0,0,4.98-5.16,6.01-7.28c1.17-2.41,3.55-4.98,5.55-6.76c1.23-1.1,6.59,0,6.59,0"/>
		<path class="st4" d="M634.52,208.68c0,0-4.98,5.16-6.01,7.28c-1.17,2.41-1.78,8.24-3.78,10.02c-1.23,1.1-3.83,2.95-3.83,5.22"/>
		<path class="st6" d="M628.56,207.93c0-8.83,6.99-7.99,12.92-7.99s8.54-0.84,8.54,7.99s-4.8,15.99-10.73,15.99
			S628.56,216.75,628.56,207.93z"/>
		<path class="st4" d="M629.23,213.72c0,0-7.17,0.12-9.4,0.9c-2.53,0.88,0.96,9.46-1.71,9.3c-1.65-0.1-5.57,3.66-5.57,3.66"/>
		<g>
			<path class="st5" d="M639.39,208.82c5.41,0,8.9,4.5,8.9,4.5"/>
			<path class="st5" d="M630.29,213.32c0,0,3.69-4.5,9.1-4.5"/>
		</g>
		<g>
			<path class="st5" d="M639.29,215.68c3.59,0,6.5,3,6.5,3"/>
			<path class="st5" d="M632.79,218.68c0,0,2.91-3,6.5-3"/>
		</g>
		
			<ellipse transform="matrix(0.7071 -0.7071 0.7071 0.7071 35.3274 504.2288)" class="st6" cx="626.32" cy="209.47" rx="14.5" ry="6.5"/>
		
			<ellipse transform="matrix(0.7071 -0.7071 0.7071 0.7071 42.9252 522.5715)" class="st6" cx="652.26" cy="209.47" rx="6.5" ry="14.5"/>
		<ellipse class="st3" cx="633.07" cy="188.48" rx="2.12" ry="3.75"/>
		<ellipse class="st3" cx="646.04" cy="188.48" rx="2.12" ry="3.75"/>
		<ellipse class="st7" cx="633.38" cy="187.07" rx="1.06" ry="0.95"/>
		<ellipse class="st7" cx="645.74" cy="187.07" rx="1.06" ry="0.95"/>
		<ellipse class="st6" cx="639.56" cy="197.76" rx="7.21" ry="6"/>
		<path class="st4" d="M643.79,184.73c0,0-0.97-8.55,8.47-8.55"/>
		<path class="st4" d="M635.29,184.73c0,0,1.03-8.55-8.97-8.55"/>
	</g>
	<g>
		<path class="st3" d="M633.07,311.22c0-3.31,2.9-6,6.49-6s6.49,2.69,6.49,6c0,3.31-2.9,3.35-6.49,3.35S633.07,314.53,633.07,311.22
			z"/>
		<path class="st4" d="M636.56,345.03c0,0,1.79,5.91,2.85,7.1c0.21,0.23,2.61-7.01,2.61-7.01"/>
		<g>
			<path class="st5" d="M639.39,322.1c5.41,0,8.9,3.5,8.9,3.5"/>
			<path class="st5" d="M630.82,325.6c0,0,3.16-3.5,8.57-3.5"/>
		</g>
		<path class="st4" d="M644.05,330.24c0,0,4.99,5.16,6.02,7.28c1.17,2.41,1.78,8.24,3.79,10.02c1.23,1.1,3.08,3.21,3.08,4.59"/>
		<path class="st4" d="M634.53,323.45c0,0-4.99-5.16-6.02-7.28c-1.17-2.41-4.78-4.49-6.79-6.28c-1.23-1.1-6.6,0-6.6,0"/>
		<path class="st4" d="M648.11,333.41c0,0,7.18,0.12,9.41,0.89c2.53,0.88,3.59,12.57,6.27,12.41c1.65-0.1,3.81,3.21,3.81,3.21"/>
		<path class="st4" d="M646.04,323.45c0,0,4.98-5.16,6.01-7.28c1.17-2.41,3.55-4.98,5.55-6.76c1.23-1.1,6.59,0,6.59,0"/>
		<path class="st4" d="M634.52,331.02c0,0-4.98,5.16-6.01,7.28c-1.17,2.41-1.78,8.24-3.78,10.02c-1.23,1.1-3.83,2.95-3.83,5.22"/>
		<path class="st6" d="M628.56,330.26c0-8.83,6.99-7.99,12.92-7.99s8.54-0.84,8.54,7.99s-4.8,15.99-10.73,15.99
			S628.56,339.09,628.56,330.26z"/>
		<path class="st4" d="M629.23,336.05c0,0-7.17,0.12-9.4,0.9c-2.53,0.88,0.96,9.46-1.71,9.3c-1.65-0.1-5.57,3.66-5.57,3.66"/>
		<g>
			<path class="st5" d="M639.39,331.16c5.41,0,8.9,4.5,8.9,4.5"/>
			<path class="st5" d="M630.29,335.66c0,0,3.69-4.5,9.1-4.5"/>
		</g>
		<g>
			<path class="st5" d="M639.29,338.02c3.59,0,6.5,3,6.5,3"/>
			<path class="st5" d="M632.79,341.02c0,0,2.91-3,6.5-3"/>
		</g>
		
			<ellipse transform="matrix(0.7071 -0.7071 0.7071 0.7071 -51.1793 540.0611)" class="st6" cx="626.32" cy="331.81" rx="14.5" ry="6.5"/>
		
			<ellipse transform="matrix(0.7071 -0.7071 0.7071 0.7071 -43.5815 558.4037)" class="st6" cx="652.26" cy="331.81" rx="6.5" ry="14.5"/>
		<ellipse class="st3" cx="633.07" cy="310.82" rx="2.12" ry="3.75"/>
		<ellipse class="st3" cx="646.04" cy="310.82" rx="2.12" ry="3.75"/>
		<ellipse class="st7" cx="633.38" cy="309.41" rx="1.06" ry="0.95"/>
		<ellipse class="st7" cx="645.74" cy="309.41" rx="1.06" ry="0.95"/>
		<ellipse class="st6" cx="639.56" cy="320.1" rx="7.21" ry="6"/>
		<path class="st4" d="M643.79,307.07c0,0-0.97-8.55,8.47-8.55"/>
		<path class="st4" d="M635.29,307.07c0,0,1.03-8.55-8.97-8.55"/>
	</g>
	<g>
		<path class="st3" d="M490.58,188.88c0-3.31,2.9-6,6.49-6s6.49,2.69,6.49,6s-2.9,3.35-6.49,3.35S490.58,192.19,490.58,188.88z"/>
		<path class="st4" d="M494.07,222.69c0,0,1.79,5.91,2.85,7.1c0.21,0.23,2.61-7.01,2.61-7.01"/>
		<g>
			<path class="st5" d="M496.9,199.76c5.41,0,8.9,3.5,8.9,3.5"/>
			<path class="st5" d="M488.33,203.26c0,0,3.16-3.5,8.57-3.5"/>
		</g>
		<path class="st4" d="M501.57,207.9c0,0,4.99,5.16,6.02,7.28c1.17,2.41,1.78,8.24,3.79,10.02c1.23,1.1,3.08,3.21,3.08,4.59"/>
		<path class="st4" d="M492.04,201.11c0,0-4.99-5.16-6.02-7.28c-1.17-2.41-4.78-4.49-6.79-6.28c-1.23-1.1-6.6,0-6.6,0"/>
		<path class="st4" d="M505.62,211.07c0,0,7.18,0.12,9.41,0.89c2.53,0.88,3.59,12.57,6.27,12.41c1.65-0.1,3.81,3.21,3.81,3.21"/>
		<path class="st4" d="M503.56,201.11c0,0,4.98-5.16,6.01-7.28c1.17-2.41,3.55-4.98,5.55-6.76c1.23-1.1,6.59,0,6.59,0"/>
		<path class="st4" d="M492.03,208.68c0,0-4.98,5.16-6.01,7.28c-1.17,2.41-1.78,8.24-3.78,10.02c-1.23,1.1-3.83,2.95-3.83,5.22"/>
		<path class="st6" d="M486.07,207.93c0-8.83,6.99-7.99,12.92-7.99c5.93,0,8.54-0.84,8.54,7.99s-4.8,15.99-10.73,15.99
			S486.07,216.75,486.07,207.93z"/>
		<path class="st4" d="M486.74,213.72c0,0-7.17,0.12-9.4,0.9c-2.53,0.88,0.96,9.46-1.71,9.3c-1.65-0.1-5.57,3.66-5.57,3.66"/>
		<g>
			<path class="st5" d="M496.9,208.82c5.41,0,8.9,4.5,8.9,4.5"/>
			<path class="st5" d="M487.81,213.32c0,0,3.69-4.5,9.1-4.5"/>
		</g>
		<g>
			<path class="st5" d="M496.81,215.68c3.59,0,6.5,3,6.5,3"/>
			<path class="st5" d="M490.31,218.68c0,0,2.91-3,6.5-3"/>
		</g>
		
			<ellipse transform="matrix(0.7071 -0.7071 0.7071 0.7071 -6.406 403.4755)" class="st6" cx="483.83" cy="209.47" rx="14.5" ry="6.5"/>
		
			<ellipse transform="matrix(0.7071 -0.7071 0.7071 0.7071 1.1918 421.8181)" class="st6" cx="509.78" cy="209.47" rx="6.5" ry="14.5"/>
		<ellipse class="st3" cx="490.58" cy="188.48" rx="2.12" ry="3.75"/>
		<ellipse class="st3" cx="503.56" cy="188.48" rx="2.12" ry="3.75"/>
		<ellipse class="st7" cx="490.89" cy="187.07" rx="1.06" ry="0.95"/>
		<ellipse class="st7" cx="503.25" cy="187.07" rx="1.06" ry="0.95"/>
		<ellipse class="st6" cx="497.07" cy="197.76" rx="7.21" ry="6"/>
		<path class="st4" d="M501.3,184.73c0,0-0.97-8.55,8.47-8.55"/>
		<path class="st4" d="M492.8,184.73c0,0,1.03-8.55-8.97-8.55"/>
	</g>
	<g>
		<path class="st3" d="M490.58,311.22c0-3.31,2.9-6,6.49-6s6.49,2.69,6.49,6c0,3.31-2.9,3.35-6.49,3.35S490.58,314.53,490.58,311.22
			z"/>
		<path class="st4" d="M494.07,345.03c0,0,1.79,5.91,2.85,7.1c0.21,0.23,2.61-7.01,2.61-7.01"/>
		<g>
			<path class="st5" d="M496.9,322.1c5.41,0,8.9,3.5,8.9,3.5"/>
			<path class="st5" d="M488.33,325.6c0,0,3.16-3.5,8.57-3.5"/>
		</g>
		<path class="st4" d="M501.57,330.24c0,0,4.99,5.16,6.02,7.28c1.17,2.41,1.78,8.24,3.79,10.02c1.23,1.1,3.08,3.21,3.08,4.59"/>
		<path class="st4" d="M492.04,323.45c0,0-4.99-5.16-6.02-7.28c-1.17-2.41-4.78-4.49-6.79-6.28c-1.23-1.1-6.6,0-6.6,0"/>
		<path class="st4" d="M505.62,333.41c0,0,7.18,0.12,9.41,0.89c2.53,0.88,3.59,12.57,6.27,12.41c1.65-0.1,3.81,3.21,3.81,3.21"/>
		<path class="st4" d="M503.56,323.45c0,0,4.98-5.16,6.01-7.28c1.17-2.41,3.55-4.98,5.55-6.76c1.23-1.1,6.59,0,6.59,0"/>
		<path class="st4" d="M492.03,331.02c0,0-4.98,5.16-6.01,7.28c-1.17,2.41-1.78,8.24-3.78,10.02c-1.23,1.1-3.83,2.95-3.83,5.22"/>
		<path class="st6" d="M486.07,330.26c0-8.83,6.99-7.99,12.92-7.99c5.93,0,8.54-0.84,8.54,7.99s-4.8,15.99-10.73,15.99
			S486.07,339.09,486.07,330.26z"/>
		<path class="st4" d="M486.74,336.05c0,0-7.17,0.12-9.4,0.9c-2.53,0.88,0.96,9.46-1.71,9.3c-1.65-0.1-5.57,3.66-5.57,3.66"/>
		<g>
			<path class="st5" d="M496.9,331.16c5.41,0,8.9,4.5,8.9,4.5"/>
			<path class="st5" d="M487.81,335.66c0,0,3.69-4.5,9.1-4.5"/>
		</g>
		<g>
			<path class="st5" d="M496.81,338.02c3.59,0,6.5,3,6.5,3"/>
			<path class="st5" d="M490.31,341.02c0,0,2.91-3,6.5-3"/>
		</g>
		
			<ellipse transform="matrix(0.7071 -0.7071 0.7071 0.7071 -92.9127 439.3077)" class="st6" cx="483.83" cy="331.81" rx="14.5" ry="6.5"/>
		
			<ellipse transform="matrix(0.7071 -0.7071 0.7071 0.7071 -85.3149 457.6504)" class="st6" cx="509.78" cy="331.81" rx="6.5" ry="14.5"/>
		<ellipse class="st3" cx="490.58" cy="310.82" rx="2.12" ry="3.75"/>
		<ellipse class="st3" cx="503.56" cy="310.82" rx="2.12" ry="3.75"/>
		<ellipse class="st7" cx="490.89" cy="309.41" rx="1.06" ry="0.95"/>
		<ellipse class="st7" cx="503.25" cy="309.41" rx="1.06" ry="0.95"/>
		<ellipse class="st6" cx="497.07" cy="320.1" rx="7.21" ry="6"/>
		<path class="st4" d="M501.3,307.07c0,0-0.97-8.55,8.47-8.55"/>
		<path class="st4" d="M492.8,307.07c0,0,1.03-8.55-8.97-8.55"/>
	</g>
	<g>
		<path class="st3" d="M490.58,433.26c0-3.31,2.9-6,6.49-6s6.49,2.69,6.49,6c0,3.31-2.9,3.35-6.49,3.35S490.58,436.58,490.58,433.26
			z"/>
		<path class="st4" d="M494.07,467.07c0,0,1.79,5.91,2.85,7.1c0.21,0.23,2.61-7.01,2.61-7.01"/>
		<g>
			<path class="st5" d="M496.9,444.14c5.41,0,8.9,3.5,8.9,3.5"/>
			<path class="st5" d="M488.33,447.64c0,0,3.16-3.5,8.57-3.5"/>
		</g>
		<path class="st4" d="M501.57,452.28c0,0,4.99,5.16,6.02,7.28c1.17,2.41,1.78,8.24,3.79,10.02c1.23,1.1,3.08,3.21,3.08,4.59"/>
		<path class="st4" d="M492.04,445.49c0,0-4.99-5.16-6.02-7.28c-1.17-2.41-4.78-4.49-6.79-6.28c-1.23-1.1-6.6,0-6.6,0"/>
		<path class="st4" d="M505.62,455.45c0,0,7.18,0.12,9.41,0.89c2.53,0.88,3.59,12.57,6.27,12.41c1.65-0.1,3.81,3.21,3.81,3.21"/>
		<path class="st4" d="M503.56,445.49c0,0,4.98-5.16,6.01-7.28c1.17-2.41,3.55-4.98,5.55-6.76c1.23-1.1,6.59,0,6.59,0"/>
		<path class="st4" d="M492.03,453.06c0,0-4.98,5.16-6.01,7.28c-1.17,2.41-1.78,8.24-3.78,10.02c-1.23,1.1-3.83,2.95-3.83,5.22"/>
		<path class="st6" d="M486.07,452.31c0-8.83,6.99-7.99,12.92-7.99c5.93,0,8.54-0.84,8.54,7.99s-4.8,15.99-10.73,15.99
			S486.07,461.14,486.07,452.31z"/>
		<path class="st4" d="M486.74,458.1c0,0-7.17,0.12-9.4,0.9c-2.53,0.88,0.96,9.46-1.71,9.3c-1.65-0.1-5.57,3.66-5.57,3.66"/>
		<g>
			<path class="st5" d="M496.9,453.2c5.41,0,8.9,4.5,8.9,4.5"/>
			<path class="st5" d="M487.81,457.7c0,0,3.69-4.5,9.1-4.5"/>
		</g>
		<g>
			<path class="st5" d="M496.81,460.06c3.59,0,6.5,3,6.5,3"/>
			<path class="st5" d="M490.31,463.06c0,0,2.91-3,6.5-3"/>
		</g>
		
			<ellipse transform="matrix(0.7071 -0.7071 0.7071 0.7071 -179.2105 475.0535)" class="st6" cx="483.83" cy="453.85" rx="14.5" ry="6.5"/>
		
			<ellipse transform="matrix(0.7071 -0.7071 0.7071 0.7071 -171.6126 493.3961)" class="st6" cx="509.78" cy="453.85" rx="6.5" ry="14.5"/>
		<ellipse class="st3" cx="490.58" cy="432.86" rx="2.12" ry="3.75"/>
		<ellipse class="st3" cx="503.56" cy="432.86" rx="2.12" ry="3.75"/>
		<ellipse class="st7" cx="490.89" cy="431.45" rx="1.06" ry="0.95"/>
		<ellipse class="st7" cx="503.25" cy="431.45" rx="1.06" ry="0.95"/>
		<ellipse class="st6" cx="497.07" cy="442.14" rx="7.21" ry="6"/>
		<path class="st4" d="M501.3,429.11c0,0-0.97-8.55,8.47-8.55"/>
		<path class="st4" d="M492.8,429.11c0,0,1.03-8.55-8.97-8.55"/>
	</g>
	<g>
		<path class="st3" d="M351.87,188.88c0-3.31,2.9-6,6.49-6s6.49,2.69,6.49,6s-2.9,3.35-6.49,3.35S351.87,192.19,351.87,188.88z"/>
		<path class="st4" d="M355.36,222.69c0,0,1.79,5.91,2.85,7.1c0.21,0.23,2.61-7.01,2.61-7.01"/>
		<g>
			<path class="st5" d="M358.19,199.76c5.41,0,8.9,3.5,8.9,3.5"/>
			<path class="st5" d="M349.62,203.26c0,0,3.16-3.5,8.57-3.5"/>
		</g>
		<path class="st4" d="M362.85,207.9c0,0,4.99,5.16,6.02,7.28c1.17,2.41,1.78,8.24,3.79,10.02c1.23,1.1,3.08,3.21,3.08,4.59"/>
		<path class="st4" d="M353.33,201.11c0,0-4.99-5.16-6.02-7.28c-1.17-2.41-4.78-4.49-6.79-6.28c-1.23-1.1-6.6,0-6.6,0"/>
		<path class="st4" d="M366.91,211.07c0,0,7.18,0.12,9.41,0.89c2.53,0.88,3.59,12.57,6.27,12.41c1.65-0.1,3.81,3.21,3.81,3.21"/>
		<path class="st4" d="M364.84,201.11c0,0,4.98-5.16,6.01-7.28c1.17-2.41,3.55-4.98,5.55-6.76c1.23-1.1,6.59,0,6.59,0"/>
		<path class="st4" d="M353.32,208.68c0,0-4.98,5.16-6.01,7.28c-1.17,2.41-1.78,8.24-3.78,10.02c-1.23,1.1-3.83,2.95-3.83,5.22"/>
		<path class="st6" d="M347.36,207.93c0-8.83,6.99-7.99,12.92-7.99s8.54-0.84,8.54,7.99s-4.8,15.99-10.73,15.99
			C352.17,223.91,347.36,216.75,347.36,207.93z"/>
		<path class="st4" d="M348.03,213.72c0,0-7.17,0.12-9.4,0.9c-2.53,0.88,0.96,9.46-1.71,9.3c-1.65-0.1-5.57,3.66-5.57,3.66"/>
		<g>
			<path class="st5" d="M358.19,208.82c5.41,0,8.9,4.5,8.9,4.5"/>
			<path class="st5" d="M349.09,213.32c0,0,3.69-4.5,9.1-4.5"/>
		</g>
		<g>
			<path class="st5" d="M358.09,215.68c3.59,0,6.5,3,6.5,3"/>
			<path class="st5" d="M351.59,218.68c0,0,2.91-3,6.5-3"/>
		</g>
		
			<ellipse transform="matrix(0.7071 -0.7071 0.7071 0.7071 -47.0342 305.3904)" class="st6" cx="345.12" cy="209.47" rx="14.5" ry="6.5"/>
		
			<ellipse transform="matrix(0.7071 -0.7071 0.7071 0.7071 -39.4363 323.7331)" class="st6" cx="371.06" cy="209.47" rx="6.5" ry="14.5"/>
		<ellipse class="st3" cx="351.87" cy="188.48" rx="2.12" ry="3.75"/>
		<ellipse class="st3" cx="364.84" cy="188.48" rx="2.12" ry="3.75"/>
		<ellipse class="st7" cx="352.18" cy="187.07" rx="1.06" ry="0.95"/>
		<ellipse class="st7" cx="364.54" cy="187.07" rx="1.06" ry="0.95"/>
		<ellipse class="st6" cx="358.36" cy="197.76" rx="7.21" ry="6"/>
		<path class="st4" d="M362.59,184.73c0,0-0.97-8.55,8.47-8.55"/>
		<path class="st4" d="M354.09,184.73c0,0,1.03-8.55-8.97-8.55"/>
	</g>
	<g>
		<path class="st3" d="M351.87,311.22c0-3.31,2.9-6,6.49-6s6.49,2.69,6.49,6c0,3.31-2.9,3.35-6.49,3.35S351.87,314.53,351.87,311.22
			z"/>
		<path class="st4" d="M355.36,345.03c0,0,1.79,5.91,2.85,7.1c0.21,0.23,2.61-7.01,2.61-7.01"/>
		<g>
			<path class="st5" d="M358.19,322.1c5.41,0,8.9,3.5,8.9,3.5"/>
			<path class="st5" d="M349.62,325.6c0,0,3.16-3.5,8.57-3.5"/>
		</g>
		<path class="st4" d="M362.85,330.24c0,0,4.99,5.16,6.02,7.28c1.17,2.41,1.78,8.24,3.79,10.02c1.23,1.1,3.08,3.21,3.08,4.59"/>
		<path class="st4" d="M353.33,323.45c0,0-4.99-5.16-6.02-7.28c-1.17-2.41-4.78-4.49-6.79-6.28c-1.23-1.1-6.6,0-6.6,0"/>
		<path class="st4" d="M366.91,333.41c0,0,7.18,0.12,9.41,0.89c2.53,0.88,3.59,12.57,6.27,12.41c1.65-0.1,3.81,3.21,3.81,3.21"/>
		<path class="st4" d="M364.84,323.45c0,0,4.98-5.16,6.01-7.28c1.17-2.41,3.55-4.98,5.55-6.76c1.23-1.1,6.59,0,6.59,0"/>
		<path class="st4" d="M353.32,331.02c0,0-4.98,5.16-6.01,7.28c-1.17,2.41-1.78,8.24-3.78,10.02c-1.23,1.1-3.83,2.95-3.83,5.22"/>
		<path class="st6" d="M347.36,330.26c0-8.83,6.99-7.99,12.92-7.99s8.54-0.84,8.54,7.99s-4.8,15.99-10.73,15.99
			C352.17,346.25,347.36,339.09,347.36,330.26z"/>
		<path class="st4" d="M348.03,336.05c0,0-7.17,0.12-9.4,0.9c-2.53,0.88,0.96,9.46-1.71,9.3c-1.65-0.1-5.57,3.66-5.57,3.66"/>
		<g>
			<path class="st5" d="M358.19,331.16c5.41,0,8.9,4.5,8.9,4.5"/>
			<path class="st5" d="M349.09,335.66c0,0,3.69-4.5,9.1-4.5"/>
		</g>
		<g>
			<path class="st5" d="M358.09,338.02c3.59,0,6.5,3,6.5,3"/>
			<path class="st5" d="M351.59,341.02c0,0,2.91-3,6.5-3"/>
		</g>
		
			<ellipse transform="matrix(0.7071 -0.7071 0.7071 0.7071 -133.5409 341.2226)" class="st6" cx="345.12" cy="331.81" rx="14.5" ry="6.5"/>
		
			<ellipse transform="matrix(0.7071 -0.7071 0.7071 0.7071 -125.943 359.5653)" class="st6" cx="371.06" cy="331.81" rx="6.5" ry="14.5"/>
		<ellipse class="st3" cx="351.87" cy="310.82" rx="2.12" ry="3.75"/>
		<ellipse class="st3" cx="364.84" cy="310.82" rx="2.12" ry="3.75"/>
		<ellipse class="st7" cx="352.18" cy="309.41" rx="1.06" ry="0.95"/>
		<ellipse class="st7" cx="364.54" cy="309.41" rx="1.06" ry="0.95"/>
		<ellipse class="st6" cx="358.36" cy="320.1" rx="7.21" ry="6"/>
		<path class="st4" d="M362.59,307.07c0,0-0.97-8.55,8.47-8.55"/>
		<path class="st4" d="M354.09,307.07c0,0,1.03-8.55-8.97-8.55"/>
	</g>
	<g>
		<path class="st3" d="M213.16,311.22c0-3.31,2.9-6,6.49-6c3.58,0,6.49,2.69,6.49,6c0,3.31-2.9,3.35-6.49,3.35
			C216.06,314.57,213.16,314.53,213.16,311.22z"/>
		<path class="st4" d="M216.65,345.03c0,0,1.79,5.91,2.85,7.1c0.21,0.23,2.61-7.01,2.61-7.01"/>
		<g>
			<path class="st5" d="M219.48,322.1c5.41,0,8.9,3.5,8.9,3.5"/>
			<path class="st5" d="M210.91,325.6c0,0,3.16-3.5,8.57-3.5"/>
		</g>
		<path class="st4" d="M224.14,330.24c0,0,4.99,5.16,6.02,7.28c1.17,2.41,1.78,8.24,3.79,10.02c1.23,1.1,3.08,3.21,3.08,4.59"/>
		<path class="st4" d="M214.62,323.45c0,0-4.99-5.16-6.02-7.28c-1.17-2.41-4.78-4.49-6.79-6.28c-1.23-1.1-6.6,0-6.6,0"/>
		<path class="st4" d="M228.2,333.41c0,0,7.18,0.12,9.41,0.89c2.53,0.88,3.59,12.57,6.27,12.41c1.65-0.1,3.81,3.21,3.81,3.21"/>
		<path class="st4" d="M226.13,323.45c0,0,4.98-5.16,6.01-7.28c1.17-2.41,3.55-4.98,5.55-6.76c1.23-1.1,6.59,0,6.59,0"/>
		<path class="st4" d="M214.6,331.02c0,0-4.98,5.16-6.01,7.28c-1.17,2.41-1.78,8.24-3.78,10.02c-1.23,1.1-3.83,2.95-3.83,5.22"/>
		<path class="st6" d="M208.65,330.26c0-8.83,6.99-7.99,12.92-7.99s8.54-0.84,8.54,7.99s-4.8,15.99-10.73,15.99
			C213.45,346.25,208.65,339.09,208.65,330.26z"/>
		<path class="st4" d="M209.31,336.05c0,0-7.17,0.12-9.4,0.9c-2.53,0.88,0.96,9.46-1.71,9.3c-1.65-0.1-5.57,3.66-5.57,3.66"/>
		<g>
			<path class="st5" d="M219.48,331.16c5.41,0,8.9,4.5,8.9,4.5"/>
			<path class="st5" d="M210.38,335.66c0,0,3.69-4.5,9.1-4.5"/>
		</g>
		<g>
			<path class="st5" d="M219.38,338.02c3.59,0,6.5,3,6.5,3"/>
			<path class="st5" d="M212.88,341.02c0,0,2.91-3,6.5-3"/>
		</g>
		
			<ellipse transform="matrix(0.7071 -0.7071 0.7071 0.7071 -174.1691 243.1375)" class="st6" cx="206.41" cy="331.81" rx="14.5" ry="6.5"/>
		
			<ellipse transform="matrix(0.7071 -0.7071 0.7071 0.7071 -166.5712 261.4802)" class="st6" cx="232.35" cy="331.81" rx="6.5" ry="14.5"/>
		<ellipse class="st3" cx="213.16" cy="310.82" rx="2.12" ry="3.75"/>
		<ellipse class="st3" cx="226.13" cy="310.82" rx="2.12" ry="3.75"/>
		<ellipse class="st7" cx="213.46" cy="309.41" rx="1.06" ry="0.95"/>
		<ellipse class="st7" cx="225.83" cy="309.41" rx="1.06" ry="0.95"/>
		<ellipse class="st6" cx="219.64" cy="320.1" rx="7.21" ry="6"/>
		<path class="st4" d="M223.88,307.07c0,0-0.97-8.55,8.47-8.55"/>
		<path class="st4" d="M215.38,307.07c0,0,1.03-8.55-8.97-8.55"/>
	</g>
	<g>
		<path class="st3" d="M213.16,188.88c0-3.31,2.9-6,6.49-6c3.58,0,6.49,2.69,6.49,6s-2.9,3.35-6.49,3.35
			C216.06,192.23,213.16,192.19,213.16,188.88z"/>
		<path class="st4" d="M216.65,222.69c0,0,1.79,5.91,2.85,7.1c0.21,0.23,2.61-7.01,2.61-7.01"/>
		<g>
			<path class="st5" d="M219.48,199.76c5.41,0,8.9,3.5,8.9,3.5"/>
			<path class="st5" d="M210.91,203.26c0,0,3.16-3.5,8.57-3.5"/>
		</g>
		<path class="st4" d="M224.14,207.9c0,0,4.99,5.16,6.02,7.28c1.17,2.41,1.78,8.24,3.79,10.02c1.23,1.1,3.08,3.21,3.08,4.59"/>
		<path class="st4" d="M214.62,201.11c0,0-4.99-5.16-6.02-7.28c-1.17-2.41-4.78-4.49-6.79-6.28c-1.23-1.1-6.6,0-6.6,0"/>
		<path class="st4" d="M228.2,211.07c0,0,7.18,0.12,9.41,0.89c2.53,0.88,3.59,12.57,6.27,12.41c1.65-0.1,3.81,3.21,3.81,3.21"/>
		<path class="st4" d="M226.13,201.11c0,0,4.98-5.16,6.01-7.28c1.17-2.41,3.55-4.98,5.55-6.76c1.23-1.1,6.59,0,6.59,0"/>
		<path class="st4" d="M214.6,208.68c0,0-4.98,5.16-6.01,7.28c-1.17,2.41-1.78,8.24-3.78,10.02c-1.23,1.1-3.83,2.95-3.83,5.22"/>
		<path class="st6" d="M208.65,207.93c0-8.83,6.99-7.99,12.92-7.99s8.54-0.84,8.54,7.99s-4.8,15.99-10.73,15.99
			C213.45,223.91,208.65,216.75,208.65,207.93z"/>
		<path class="st4" d="M209.31,213.72c0,0-7.17,0.12-9.4,0.9c-2.53,0.88,0.96,9.46-1.71,9.3c-1.65-0.1-5.57,3.66-5.57,3.66"/>
		<g>
			<path class="st5" d="M219.48,208.82c5.41,0,8.9,4.5,8.9,4.5"/>
			<path class="st5" d="M210.38,213.32c0,0,3.69-4.5,9.1-4.5"/>
		</g>
		<g>
			<path class="st5" d="M219.38,215.68c3.59,0,6.5,3,6.5,3"/>
			<path class="st5" d="M212.88,218.68c0,0,2.91-3,6.5-3"/>
		</g>
		
			<ellipse transform="matrix(0.7071 -0.7071 0.7071 0.7071 -87.6623 207.3053)" class="st6" cx="206.41" cy="209.47" rx="14.5" ry="6.5"/>
		
			<ellipse transform="matrix(0.7071 -0.7071 0.7071 0.7071 -80.0645 225.648)" class="st6" cx="232.35" cy="209.47" rx="6.5" ry="14.5"/>
		<ellipse class="st3" cx="213.16" cy="188.48" rx="2.12" ry="3.75"/>
		<ellipse class="st3" cx="226.13" cy="188.48" rx="2.12" ry="3.75"/>
		<ellipse class="st7" cx="213.46" cy="187.07" rx="1.06" ry="0.95"/>
		<ellipse class="st7" cx="225.83" cy="187.07" rx="1.06" ry="0.95"/>
		<ellipse class="st6" cx="219.64" cy="197.76" rx="7.21" ry="6"/>
		<path class="st4" d="M223.88,184.73c0,0-0.97-8.55,8.47-8.55"/>
		<path class="st4" d="M215.38,184.73c0,0,1.03-8.55-8.97-8.55"/>
	</g>
	<g>
		<path class="st3" d="M74.45,188.88c0-3.31,2.9-6,6.49-6c3.58,0,6.49,2.69,6.49,6s-2.9,3.35-6.49,3.35
			C77.35,192.23,74.45,192.19,74.45,188.88z"/>
		<path class="st4" d="M77.93,222.69c0,0,1.79,5.91,2.85,7.1c0.21,0.23,2.61-7.01,2.61-7.01"/>
		<g>
			<path class="st5" d="M80.76,199.76c5.41,0,8.9,3.5,8.9,3.5"/>
			<path class="st5" d="M72.2,203.26c0,0,3.16-3.5,8.57-3.5"/>
		</g>
		<path class="st4" d="M85.43,207.9c0,0,4.99,5.16,6.02,7.28c1.17,2.41,1.78,8.24,3.79,10.02c1.23,1.1,3.08,3.21,3.08,4.59"/>
		<path class="st4" d="M75.9,201.11c0,0-4.99-5.16-6.02-7.28c-1.17-2.41-4.78-4.49-6.79-6.28c-1.23-1.1-6.6,0-6.6,0"/>
		<path class="st4" d="M89.48,211.07c0,0,7.18,0.12,9.41,0.89c2.53,0.88,3.59,12.57,6.27,12.41c1.65-0.1,3.81,3.21,3.81,3.21"/>
		<path class="st4" d="M87.42,201.11c0,0,4.98-5.16,6.01-7.28c1.17-2.41,3.55-4.98,5.55-6.76c1.23-1.1,6.59,0,6.59,0"/>
		<path class="st4" d="M75.89,208.68c0,0-4.98,5.16-6.01,7.28c-1.17,2.41-1.78,8.24-3.78,10.02c-1.23,1.1-3.83,2.95-3.83,5.22"/>
		<path class="st6" d="M69.93,207.93c0-8.83,6.99-7.99,12.92-7.99c5.93,0,8.54-0.84,8.54,7.99s-4.8,15.99-10.73,15.99
			C74.74,223.91,69.93,216.75,69.93,207.93z"/>
		<path class="st4" d="M70.6,213.72c0,0-7.17,0.12-9.4,0.9c-2.53,0.88,0.96,9.46-1.71,9.3c-1.65-0.1-5.57,3.66-5.57,3.66"/>
		<g>
			<path class="st5" d="M80.76,208.82c5.41,0,8.9,4.5,8.9,4.5"/>
			<path class="st5" d="M71.67,213.32c0,0,3.69-4.5,9.1-4.5"/>
		</g>
		<g>
			<path class="st5" d="M80.67,215.68c3.59,0,6.5,3,6.5,3"/>
			<path class="st5" d="M74.17,218.68c0,0,2.91-3,6.5-3"/>
		</g>
		
			<ellipse transform="matrix(0.7071 -0.7071 0.7071 0.7071 -128.2905 109.2202)" class="st6" cx="67.7" cy="209.47" rx="14.5" ry="6.5"/>
		
			<ellipse transform="matrix(0.7071 -0.7071 0.7071 0.7071 -120.6926 127.563)" class="st6" cx="93.64" cy="209.47" rx="6.5" ry="14.5"/>
		<ellipse class="st3" cx="74.45" cy="188.48" rx="2.12" ry="3.75"/>
		<ellipse class="st3" cx="87.42" cy="188.48" rx="2.12" ry="3.75"/>
		<ellipse class="st7" cx="74.75" cy="187.07" rx="1.06" ry="0.95"/>
		<ellipse class="st7" cx="87.11" cy="187.07" rx="1.06" ry="0.95"/>
		<ellipse class="st6" cx="80.93" cy="197.76" rx="7.21" ry="6"/>
		<path class="st4" d="M85.16,184.73c0,0-0.97-8.55,8.47-8.55"/>
		<path class="st4" d="M76.66,184.73c0,0,1.03-8.55-8.97-8.55"/>
	</g>
	<g>
		<path class="st3" d="M74.45,311.22c0-3.31,2.9-6,6.49-6c3.58,0,6.49,2.69,6.49,6c0,3.31-2.9,3.35-6.49,3.35
			C77.35,314.57,74.45,314.53,74.45,311.22z"/>
		<path class="st4" d="M77.93,345.03c0,0,1.79,5.91,2.85,7.1c0.21,0.23,2.61-7.01,2.61-7.01"/>
		<g>
			<path class="st5" d="M80.76,322.1c5.41,0,8.9,3.5,8.9,3.5"/>
			<path class="st5" d="M72.2,325.6c0,0,3.16-3.5,8.57-3.5"/>
		</g>
		<path class="st4" d="M85.43,330.24c0,0,4.99,5.16,6.02,7.28c1.17,2.41,1.78,8.24,3.79,10.02c1.23,1.1,3.08,3.21,3.08,4.59"/>
		<path class="st4" d="M75.9,323.45c0,0-4.99-5.16-6.02-7.28c-1.17-2.41-4.78-4.49-6.79-6.28c-1.23-1.1-6.6,0-6.6,0"/>
		<path class="st4" d="M89.48,333.41c0,0,7.18,0.12,9.41,0.89c2.53,0.88,3.59,12.57,6.27,12.41c1.65-0.1,3.81,3.21,3.81,3.21"/>
		<path class="st4" d="M87.42,323.45c0,0,4.98-5.16,6.01-7.28c1.17-2.41,3.55-4.98,5.55-6.76c1.23-1.1,6.59,0,6.59,0"/>
		<path class="st4" d="M75.89,331.02c0,0-4.98,5.16-6.01,7.28c-1.17,2.41-1.78,8.24-3.78,10.02c-1.23,1.1-3.83,2.95-3.83,5.22"/>
		<path class="st6" d="M69.93,330.26c0-8.83,6.99-7.99,12.92-7.99c5.93,0,8.54-0.84,8.54,7.99s-4.8,15.99-10.73,15.99
			C74.74,346.25,69.93,339.09,69.93,330.26z"/>
		<path class="st4" d="M70.6,336.05c0,0-7.17,0.12-9.4,0.9c-2.53,0.88,0.96,9.46-1.71,9.3c-1.65-0.1-5.57,3.66-5.57,3.66"/>
		<g>
			<path class="st5" d="M80.76,331.16c5.41,0,8.9,4.5,8.9,4.5"/>
			<path class="st5" d="M71.67,335.66c0,0,3.69-4.5,9.1-4.5"/>
		</g>
		<g>
			<path class="st5" d="M80.67,338.02c3.59,0,6.5,3,6.5,3"/>
			<path class="st5" d="M74.17,341.02c0,0,2.91-3,6.5-3"/>
		</g>
		
			<ellipse transform="matrix(0.7071 -0.7071 0.7071 0.7071 -214.7973 145.0524)" class="st6" cx="67.7" cy="331.81" rx="14.5" ry="6.5"/>
		
			<ellipse transform="matrix(0.7071 -0.7071 0.7071 0.7071 -207.1993 163.3952)" class="st6" cx="93.64" cy="331.81" rx="6.5" ry="14.5"/>
		<ellipse class="st3" cx="74.45" cy="310.82" rx="2.12" ry="3.75"/>
		<ellipse class="st3" cx="87.42" cy="310.82" rx="2.12" ry="3.75"/>
		<ellipse class="st7" cx="74.75" cy="309.41" rx="1.06" ry="0.95"/>
		<ellipse class="st7" cx="87.11" cy="309.41" rx="1.06" ry="0.95"/>
		<ellipse class="st6" cx="80.93" cy="320.1" rx="7.21" ry="6"/>
		<path class="st4" d="M85.16,307.07c0,0-0.97-8.55,8.47-8.55"/>
		<path class="st4" d="M76.66,307.07c0,0,1.03-8.55-8.97-8.55"/>
	</g>
	<g>
		<path class="st3" d="M74.45,433.26c0-3.31,2.9-6,6.49-6c3.58,0,6.49,2.69,6.49,6c0,3.31-2.9,3.35-6.49,3.35
			C77.35,436.61,74.45,436.58,74.45,433.26z"/>
		<path class="st4" d="M77.93,467.07c0,0,1.79,5.91,2.85,7.1c0.21,0.23,2.61-7.01,2.61-7.01"/>
		<g>
			<path class="st5" d="M80.76,444.14c5.41,0,8.9,3.5,8.9,3.5"/>
			<path class="st5" d="M72.2,447.64c0,0,3.16-3.5,8.57-3.5"/>
		</g>
		<path class="st4" d="M85.43,452.28c0,0,4.99,5.16,6.02,7.28c1.17,2.41,1.78,8.24,3.79,10.02c1.23,1.1,3.08,3.21,3.08,4.59"/>
		<path class="st4" d="M75.9,445.49c0,0-4.99-5.16-6.02-7.28c-1.17-2.41-4.78-4.49-6.79-6.28c-1.23-1.1-6.6,0-6.6,0"/>
		<path class="st4" d="M89.48,455.45c0,0,7.18,0.12,9.41,0.89c2.53,0.88,3.59,12.57,6.27,12.41c1.65-0.1,3.81,3.21,3.81,3.21"/>
		<path class="st4" d="M87.42,445.49c0,0,4.98-5.16,6.01-7.28c1.17-2.41,3.55-4.98,5.55-6.76c1.23-1.1,6.59,0,6.59,0"/>
		<path class="st4" d="M75.89,453.06c0,0-4.98,5.16-6.01,7.28c-1.17,2.41-1.78,8.24-3.78,10.02c-1.23,1.1-3.83,2.95-3.83,5.22"/>
		<path class="st6" d="M69.93,452.31c0-8.83,6.99-7.99,12.92-7.99c5.93,0,8.54-0.84,8.54,7.99s-4.8,15.99-10.73,15.99
			C74.74,468.3,69.93,461.14,69.93,452.31z"/>
		<path class="st4" d="M70.6,458.1c0,0-7.17,0.12-9.4,0.9c-2.53,0.88,0.96,9.46-1.71,9.3c-1.65-0.1-5.57,3.66-5.57,3.66"/>
		<g>
			<path class="st5" d="M80.76,453.2c5.41,0,8.9,4.5,8.9,4.5"/>
			<path class="st5" d="M71.67,457.7c0,0,3.69-4.5,9.1-4.5"/>
		</g>
		<g>
			<path class="st5" d="M80.67,460.06c3.59,0,6.5,3,6.5,3"/>
			<path class="st5" d="M74.17,463.06c0,0,2.91-3,6.5-3"/>
		</g>
		
			<ellipse transform="matrix(0.7071 -0.7071 0.7071 0.7071 -301.0951 180.7981)" class="st6" cx="67.7" cy="453.85" rx="14.5" ry="6.5"/>
		
			<ellipse transform="matrix(0.7071 -0.7071 0.7071 0.7071 -293.4971 199.1409)" class="st6" cx="93.64" cy="453.85" rx="6.5" ry="14.5"/>
		<ellipse class="st3" cx="74.45" cy="432.86" rx="2.12" ry="3.75"/>
		<ellipse class="st3" cx="87.42" cy="432.86" rx="2.12" ry="3.75"/>
		<ellipse class="st7" cx="74.75" cy="431.45" rx="1.06" ry="0.95"/>
		<ellipse class="st7" cx="87.11" cy="431.45" rx="1.06" ry="0.95"/>
		<ellipse class="st6" cx="80.93" cy="442.14" rx="7.21" ry="6"/>
		<path class="st4" d="M85.16,429.11c0,0-0.97-8.55,8.47-8.55"/>
		<path class="st4" d="M76.66,429.11c0,0,1.03-8.55-8.97-8.55"/>
	</g>
	<g>
		<path class="st3" d="M213.16,433.26c0-3.31,2.9-6,6.49-6c3.58,0,6.49,2.69,6.49,6c0,3.31-2.9,3.35-6.49,3.35
			C216.06,436.61,213.16,436.58,213.16,433.26z"/>
		<path class="st4" d="M216.65,467.07c0,0,1.79,5.91,2.85,7.1c0.21,0.23,2.61-7.01,2.61-7.01"/>
		<g>
			<path class="st5" d="M219.48,444.14c5.41,0,8.9,3.5,8.9,3.5"/>
			<path class="st5" d="M210.91,447.64c0,0,3.16-3.5,8.57-3.5"/>
		</g>
		<path class="st4" d="M224.14,452.28c0,0,4.99,5.16,6.02,7.28c1.17,2.41,1.78,8.24,3.79,10.02c1.23,1.1,3.08,3.21,3.08,4.59"/>
		<path class="st4" d="M214.62,445.49c0,0-4.99-5.16-6.02-7.28c-1.17-2.41-4.78-4.49-6.79-6.28c-1.23-1.1-6.6,0-6.6,0"/>
		<path class="st4" d="M228.2,455.45c0,0,7.18,0.12,9.41,0.89c2.53,0.88,3.59,12.57,6.27,12.41c1.65-0.1,3.81,3.21,3.81,3.21"/>
		<path class="st4" d="M226.13,445.49c0,0,4.98-5.16,6.01-7.28c1.17-2.41,3.55-4.98,5.55-6.76c1.23-1.1,6.59,0,6.59,0"/>
		<path class="st4" d="M214.6,453.06c0,0-4.98,5.16-6.01,7.28c-1.17,2.41-1.78,8.24-3.78,10.02c-1.23,1.1-3.83,2.95-3.83,5.22"/>
		<path class="st6" d="M208.65,452.31c0-8.83,6.99-7.99,12.92-7.99s8.54-0.84,8.54,7.99s-4.8,15.99-10.73,15.99
			C213.45,468.3,208.65,461.14,208.65,452.31z"/>
		<path class="st4" d="M209.31,458.1c0,0-7.17,0.12-9.4,0.9c-2.53,0.88,0.96,9.46-1.71,9.3c-1.65-0.1-5.57,3.66-5.57,3.66"/>
		<g>
			<path class="st5" d="M219.48,453.2c5.41,0,8.9,4.5,8.9,4.5"/>
			<path class="st5" d="M210.38,457.7c0,0,3.69-4.5,9.1-4.5"/>
		</g>
		<g>
			<path class="st5" d="M219.38,460.06c3.59,0,6.5,3,6.5,3"/>
			<path class="st5" d="M212.88,463.06c0,0,2.91-3,6.5-3"/>
		</g>
		
			<ellipse transform="matrix(0.7071 -0.7071 0.7071 0.7071 -260.4669 278.8832)" class="st6" cx="206.41" cy="453.85" rx="14.5" ry="6.5"/>
		
			<ellipse transform="matrix(0.7071 -0.7071 0.7071 0.7071 -252.8689 297.2259)" class="st6" cx="232.35" cy="453.85" rx="6.5" ry="14.5"/>
		<ellipse class="st3" cx="213.16" cy="432.86" rx="2.12" ry="3.75"/>
		<ellipse class="st3" cx="226.13" cy="432.86" rx="2.12" ry="3.75"/>
		<ellipse class="st7" cx="213.46" cy="431.45" rx="1.06" ry="0.95"/>
		<ellipse class="st7" cx="225.83" cy="431.45" rx="1.06" ry="0.95"/>
		<ellipse class="st6" cx="219.64" cy="442.14" rx="7.21" ry="6"/>
		<path class="st4" d="M223.88,429.11c0,0-0.97-8.55,8.47-8.55"/>
		<path class="st4" d="M215.38,429.11c0,0,1.03-8.55-8.97-8.55"/>
	</g>
	<g>
		<path class="st3" d="M351.87,433.26c0-3.31,2.9-6,6.49-6s6.49,2.69,6.49,6c0,3.31-2.9,3.35-6.49,3.35S351.87,436.58,351.87,433.26
			z"/>
		<path class="st4" d="M355.36,467.07c0,0,1.79,5.91,2.85,7.1c0.21,0.23,2.61-7.01,2.61-7.01"/>
		<g>
			<path class="st5" d="M358.19,444.14c5.41,0,8.9,3.5,8.9,3.5"/>
			<path class="st5" d="M349.62,447.64c0,0,3.16-3.5,8.57-3.5"/>
		</g>
		<path class="st4" d="M362.85,452.28c0,0,4.99,5.16,6.02,7.28c1.17,2.41,1.78,8.24,3.79,10.02c1.23,1.1,3.08,3.21,3.08,4.59"/>
		<path class="st4" d="M353.33,445.49c0,0-4.99-5.16-6.02-7.28c-1.17-2.41-4.78-4.49-6.79-6.28c-1.23-1.1-6.6,0-6.6,0"/>
		<path class="st4" d="M366.91,455.45c0,0,7.18,0.12,9.41,0.89c2.53,0.88,3.59,12.57,6.27,12.41c1.65-0.1,3.81,3.21,3.81,3.21"/>
		<path class="st4" d="M364.84,445.49c0,0,4.98-5.16,6.01-7.28c1.17-2.41,3.55-4.98,5.55-6.76c1.23-1.1,6.59,0,6.59,0"/>
		<path class="st4" d="M353.32,453.06c0,0-4.98,5.16-6.01,7.28c-1.17,2.41-1.78,8.24-3.78,10.02c-1.23,1.1-3.83,2.95-3.83,5.22"/>
		<path class="st6" d="M347.36,452.31c0-8.83,6.99-7.99,12.92-7.99s8.54-0.84,8.54,7.99s-4.8,15.99-10.73,15.99
			C352.17,468.3,347.36,461.14,347.36,452.31z"/>
		<path class="st4" d="M348.03,458.1c0,0-7.17,0.12-9.4,0.9c-2.53,0.88,0.96,9.46-1.71,9.3c-1.65-0.1-5.57,3.66-5.57,3.66"/>
		<g>
			<path class="st5" d="M358.19,453.2c5.41,0,8.9,4.5,8.9,4.5"/>
			<path class="st5" d="M349.09,457.7c0,0,3.69-4.5,9.1-4.5"/>
		</g>
		<g>
			<path class="st5" d="M358.09,460.06c3.59,0,6.5,3,6.5,3"/>
			<path class="st5" d="M351.59,463.06c0,0,2.91-3,6.5-3"/>
		</g>
		
			<ellipse transform="matrix(0.7071 -0.7071 0.7071 0.7071 -219.8387 376.9684)" class="st6" cx="345.12" cy="453.85" rx="14.5" ry="6.5"/>
		
			<ellipse transform="matrix(0.7071 -0.7071 0.7071 0.7071 -212.2408 395.311)" class="st6" cx="371.06" cy="453.85" rx="6.5" ry="14.5"/>
		<ellipse class="st3" cx="351.87" cy="432.86" rx="2.12" ry="3.75"/>
		<ellipse class="st3" cx="364.84" cy="432.86" rx="2.12" ry="3.75"/>
		<ellipse class="st7" cx="352.18" cy="431.45" rx="1.06" ry="0.95"/>
		<ellipse class="st7" cx="364.54" cy="431.45" rx="1.06" ry="0.95"/>
		<ellipse class="st6" cx="358.36" cy="442.14" rx="7.21" ry="6"/>
		<path class="st4" d="M362.59,429.11c0,0-0.97-8.55,8.47-8.55"/>
		<path class="st4" d="M354.09,429.11c0,0,1.03-8.55-8.97-8.55"/>
	</g>
	<g>
		<path class="st3" d="M74.45,555.01c0-3.31,2.9-6,6.49-6c3.58,0,6.49,2.69,6.49,6s-2.9,3.35-6.49,3.35
			C77.35,558.36,74.45,558.32,74.45,555.01z"/>
		<path class="st4" d="M77.93,588.82c0,0,1.79,5.91,2.85,7.1c0.21,0.23,2.61-7.01,2.61-7.01"/>
		<g>
			<path class="st5" d="M80.76,565.89c5.41,0,8.9,3.5,8.9,3.5"/>
			<path class="st5" d="M72.2,569.39c0,0,3.16-3.5,8.57-3.5"/>
		</g>
		<path class="st4" d="M85.43,574.03c0,0,4.99,5.16,6.02,7.28c1.17,2.41,1.78,8.24,3.79,10.02c1.23,1.1,3.08,3.21,3.08,4.59"/>
		<path class="st4" d="M75.9,567.24c0,0-4.99-5.16-6.02-7.28c-1.17-2.41-4.78-4.49-6.79-6.28c-1.23-1.1-6.6,0-6.6,0"/>
		<path class="st4" d="M89.48,577.2c0,0,7.18,0.12,9.41,0.89c2.53,0.88,3.59,12.57,6.27,12.41c1.65-0.1,3.81,3.21,3.81,3.21"/>
		<path class="st4" d="M87.42,567.24c0,0,4.98-5.16,6.01-7.28c1.17-2.41,3.55-4.98,5.55-6.76c1.23-1.1,6.59,0,6.59,0"/>
		<path class="st4" d="M75.89,574.81c0,0-4.98,5.16-6.01,7.28c-1.17,2.41-1.78,8.24-3.78,10.03c-1.23,1.1-3.83,2.95-3.83,5.22"/>
		<path class="st6" d="M69.93,574.06c0-8.83,6.99-7.99,12.92-7.99c5.93,0,8.54-0.84,8.54,7.99s-4.8,15.99-10.73,15.99
			C74.74,590.04,69.93,582.89,69.93,574.06z"/>
		<path class="st4" d="M70.6,579.85c0,0-7.17,0.12-9.4,0.9c-2.53,0.88,0.96,9.46-1.71,9.3c-1.65-0.1-5.57,3.66-5.57,3.66"/>
		<g>
			<path class="st5" d="M80.76,574.95c5.41,0,8.9,4.5,8.9,4.5"/>
			<path class="st5" d="M71.67,579.45c0,0,3.69-4.5,9.1-4.5"/>
		</g>
		<g>
			<path class="st5" d="M80.67,581.81c3.59,0,6.5,3,6.5,3"/>
			<path class="st5" d="M74.17,584.81c0,0,2.91-3,6.5-3"/>
		</g>
		
			<ellipse transform="matrix(0.7071 -0.7071 0.7071 0.7071 -387.184 216.4574)" class="st6" cx="67.7" cy="575.6" rx="14.5" ry="6.5"/>
		
			<ellipse transform="matrix(0.7071 -0.7071 0.7071 0.7071 -379.586 234.8)" class="st6" cx="93.64" cy="575.6" rx="6.5" ry="14.5"/>
		<ellipse class="st3" cx="74.45" cy="554.61" rx="2.12" ry="3.75"/>
		<ellipse class="st3" cx="87.42" cy="554.61" rx="2.12" ry="3.75"/>
		<ellipse class="st7" cx="74.75" cy="553.2" rx="1.06" ry="0.95"/>
		<ellipse class="st7" cx="87.11" cy="553.2" rx="1.06" ry="0.95"/>
		<ellipse class="st6" cx="80.93" cy="563.89" rx="7.21" ry="6"/>
		<path class="st4" d="M85.16,550.86c0,0-0.97-8.55,8.47-8.55"/>
		<path class="st4" d="M76.66,550.86c0,0,1.03-8.55-8.97-8.55"/>
	</g>
	<g>
		<path class="st3" d="M74.45,677.35c0-3.31,2.9-6,6.49-6c3.58,0,6.49,2.69,6.49,6s-2.9,3.35-6.49,3.35
			C77.35,680.7,74.45,680.66,74.45,677.35z"/>
		<path class="st4" d="M77.93,711.16c0,0,1.79,5.91,2.85,7.1c0.21,0.23,2.61-7.01,2.61-7.01"/>
		<g>
			<path class="st5" d="M80.76,688.23c5.41,0,8.9,3.5,8.9,3.5"/>
			<path class="st5" d="M72.2,691.73c0,0,3.16-3.5,8.57-3.5"/>
		</g>
		<path class="st4" d="M85.43,696.37c0,0,4.99,5.16,6.02,7.28c1.17,2.41,1.78,8.24,3.79,10.03c1.23,1.1,3.08,3.21,3.08,4.59"/>
		<path class="st4" d="M75.9,689.58c0,0-4.99-5.16-6.02-7.28c-1.17-2.41-4.78-4.49-6.79-6.28c-1.23-1.1-6.6,0-6.6,0"/>
		<path class="st4" d="M89.48,699.54c0,0,7.18,0.12,9.41,0.89c2.53,0.88,3.59,12.57,6.27,12.41c1.65-0.1,3.81,3.21,3.81,3.21"/>
		<path class="st4" d="M87.42,689.58c0,0,4.98-5.16,6.01-7.28c1.17-2.41,3.55-4.98,5.55-6.76c1.23-1.1,6.59,0,6.59,0"/>
		<path class="st4" d="M75.89,697.15c0,0-4.98,5.16-6.01,7.28c-1.17,2.41-1.78,8.24-3.78,10.02c-1.23,1.1-3.83,2.95-3.83,5.22"/>
		<path class="st6" d="M69.93,696.39c0-8.83,6.99-7.99,12.92-7.99c5.93,0,8.54-0.84,8.54,7.99s-4.8,15.99-10.73,15.99
			C74.74,712.38,69.93,705.22,69.93,696.39z"/>
		<path class="st4" d="M70.6,702.18c0,0-7.17,0.12-9.4,0.9c-2.53,0.88,0.96,9.46-1.71,9.3c-1.65-0.1-5.57,3.66-5.57,3.66"/>
		<g>
			<path class="st5" d="M80.76,697.29c5.41,0,8.9,4.5,8.9,4.5"/>
			<path class="st5" d="M71.67,701.79c0,0,3.69-4.5,9.1-4.5"/>
		</g>
		<g>
			<path class="st5" d="M80.67,704.15c3.59,0,6.5,3,6.5,3"/>
			<path class="st5" d="M74.17,707.15c0,0,2.91-3,6.5-3"/>
		</g>
		
			<ellipse transform="matrix(0.7071 -0.7071 0.7071 0.7071 -473.6907 252.2896)" class="st6" cx="67.7" cy="697.94" rx="14.5" ry="6.5"/>
		
			<ellipse transform="matrix(0.7071 -0.7071 0.7071 0.7071 -466.0927 270.6323)" class="st6" cx="93.64" cy="697.94" rx="6.5" ry="14.5"/>
		<ellipse class="st3" cx="74.45" cy="676.95" rx="2.12" ry="3.75"/>
		<ellipse class="st3" cx="87.42" cy="676.95" rx="2.12" ry="3.75"/>
		<ellipse class="st7" cx="74.75" cy="675.54" rx="1.06" ry="0.95"/>
		<ellipse class="st7" cx="87.11" cy="675.54" rx="1.06" ry="0.95"/>
		<ellipse class="st6" cx="80.93" cy="686.23" rx="7.21" ry="6"/>
		<path class="st4" d="M85.16,673.2c0,0-0.97-8.55,8.47-8.55"/>
		<path class="st4" d="M76.66,673.2c0,0,1.03-8.55-8.97-8.55"/>
	</g>
	<g>
		<path class="st3" d="M213.16,677.35c0-3.31,2.9-6,6.49-6c3.58,0,6.49,2.69,6.49,6s-2.9,3.35-6.49,3.35
			C216.06,680.7,213.16,680.66,213.16,677.35z"/>
		<path class="st4" d="M216.65,711.16c0,0,1.79,5.91,2.85,7.1c0.21,0.23,2.61-7.01,2.61-7.01"/>
		<g>
			<path class="st5" d="M219.48,688.23c5.41,0,8.9,3.5,8.9,3.5"/>
			<path class="st5" d="M210.91,691.73c0,0,3.16-3.5,8.57-3.5"/>
		</g>
		<path class="st4" d="M224.14,696.37c0,0,4.99,5.16,6.02,7.28c1.17,2.41,1.78,8.24,3.79,10.03c1.23,1.1,3.08,3.21,3.08,4.59"/>
		<path class="st4" d="M214.62,689.58c0,0-4.99-5.16-6.02-7.28c-1.17-2.41-4.78-4.49-6.79-6.28c-1.23-1.1-6.6,0-6.6,0"/>
		<path class="st4" d="M228.2,699.54c0,0,7.18,0.12,9.41,0.89c2.53,0.88,3.59,12.57,6.27,12.41c1.65-0.1,3.81,3.21,3.81,3.21"/>
		<path class="st4" d="M226.13,689.58c0,0,4.98-5.16,6.01-7.28c1.17-2.41,3.55-4.98,5.55-6.76c1.23-1.1,6.59,0,6.59,0"/>
		<path class="st4" d="M214.6,697.15c0,0-4.98,5.16-6.01,7.28c-1.17,2.41-1.78,8.24-3.78,10.02c-1.23,1.1-3.83,2.95-3.83,5.22"/>
		<path class="st6" d="M208.65,696.39c0-8.83,6.99-7.99,12.92-7.99s8.54-0.84,8.54,7.99s-4.8,15.99-10.73,15.99
			C213.45,712.38,208.65,705.22,208.65,696.39z"/>
		<path class="st4" d="M209.31,702.18c0,0-7.17,0.12-9.4,0.9c-2.53,0.88,0.96,9.46-1.71,9.3c-1.65-0.1-5.57,3.66-5.57,3.66"/>
		<g>
			<path class="st5" d="M219.48,697.29c5.41,0,8.9,4.5,8.9,4.5"/>
			<path class="st5" d="M210.38,701.79c0,0,3.69-4.5,9.1-4.5"/>
		</g>
		<g>
			<path class="st5" d="M219.38,704.15c3.59,0,6.5,3,6.5,3"/>
			<path class="st5" d="M212.88,707.15c0,0,2.91-3,6.5-3"/>
		</g>
		
			<ellipse transform="matrix(0.7071 -0.7071 0.7071 0.7071 -433.0625 350.3747)" class="st6" cx="206.41" cy="697.94" rx="14.5" ry="6.5"/>
		
			<ellipse transform="matrix(0.7071 -0.7071 0.7071 0.7071 -425.4645 368.7173)" class="st6" cx="232.35" cy="697.94" rx="6.5" ry="14.5"/>
		<ellipse class="st3" cx="213.16" cy="676.95" rx="2.12" ry="3.75"/>
		<ellipse class="st3" cx="226.13" cy="676.95" rx="2.12" ry="3.75"/>
		<ellipse class="st7" cx="213.46" cy="675.54" rx="1.06" ry="0.95"/>
		<ellipse class="st7" cx="225.83" cy="675.54" rx="1.06" ry="0.95"/>
		<ellipse class="st6" cx="219.64" cy="686.23" rx="7.21" ry="6"/>
		<path class="st4" d="M223.88,673.2c0,0-0.97-8.55,8.47-8.55"/>
		<path class="st4" d="M215.38,673.2c0,0,1.03-8.55-8.97-8.55"/>
	</g>
	<g>
		<path class="st3" d="M213.16,555.01c0-3.31,2.9-6,6.49-6c3.58,0,6.49,2.69,6.49,6s-2.9,3.35-6.49,3.35
			C216.06,558.36,213.16,558.32,213.16,555.01z"/>
		<path class="st4" d="M216.65,588.82c0,0,1.79,5.91,2.85,7.1c0.21,0.23,2.61-7.01,2.61-7.01"/>
		<g>
			<path class="st5" d="M219.48,565.89c5.41,0,8.9,3.5,8.9,3.5"/>
			<path class="st5" d="M210.91,569.39c0,0,3.16-3.5,8.57-3.5"/>
		</g>
		<path class="st4" d="M224.14,574.03c0,0,4.99,5.16,6.02,7.28c1.17,2.41,1.78,8.24,3.79,10.02c1.23,1.1,3.08,3.21,3.08,4.59"/>
		<path class="st4" d="M214.62,567.24c0,0-4.99-5.16-6.02-7.28c-1.17-2.41-4.78-4.49-6.79-6.28c-1.23-1.1-6.6,0-6.6,0"/>
		<path class="st4" d="M228.2,577.2c0,0,7.18,0.12,9.41,0.89c2.53,0.88,3.59,12.57,6.27,12.41c1.65-0.1,3.81,3.21,3.81,3.21"/>
		<path class="st4" d="M226.13,567.24c0,0,4.98-5.16,6.01-7.28c1.17-2.41,3.55-4.98,5.55-6.76c1.23-1.1,6.59,0,6.59,0"/>
		<path class="st4" d="M214.6,574.81c0,0-4.98,5.16-6.01,7.28c-1.17,2.41-1.78,8.24-3.78,10.03c-1.23,1.1-3.83,2.95-3.83,5.22"/>
		<path class="st6" d="M208.65,574.06c0-8.83,6.99-7.99,12.92-7.99s8.54-0.84,8.54,7.99s-4.8,15.99-10.73,15.99
			C213.45,590.04,208.65,582.89,208.65,574.06z"/>
		<path class="st4" d="M209.31,579.85c0,0-7.17,0.12-9.4,0.9c-2.53,0.88,0.96,9.46-1.71,9.3c-1.65-0.1-5.57,3.66-5.57,3.66"/>
		<g>
			<path class="st5" d="M219.48,574.95c5.41,0,8.9,4.5,8.9,4.5"/>
			<path class="st5" d="M210.38,579.45c0,0,3.69-4.5,9.1-4.5"/>
		</g>
		<g>
			<path class="st5" d="M219.38,581.81c3.59,0,6.5,3,6.5,3"/>
			<path class="st5" d="M212.88,584.81c0,0,2.91-3,6.5-3"/>
		</g>
		
			<ellipse transform="matrix(0.7071 -0.7071 0.7071 0.7071 -346.5558 314.5424)" class="st6" cx="206.41" cy="575.6" rx="14.5" ry="6.5"/>
		
			<ellipse transform="matrix(0.7071 -0.7071 0.7071 0.7071 -338.9578 332.8851)" class="st6" cx="232.35" cy="575.6" rx="6.5" ry="14.5"/>
		<ellipse class="st3" cx="213.16" cy="554.61" rx="2.12" ry="3.75"/>
		<ellipse class="st3" cx="226.13" cy="554.61" rx="2.12" ry="3.75"/>
		<ellipse class="st7" cx="213.46" cy="553.2" rx="1.06" ry="0.95"/>
		<ellipse class="st7" cx="225.83" cy="553.2" rx="1.06" ry="0.95"/>
		<ellipse class="st6" cx="219.64" cy="563.89" rx="7.21" ry="6"/>
		<path class="st4" d="M223.88,550.86c0,0-0.97-8.55,8.47-8.55"/>
		<path class="st4" d="M215.38,550.86c0,0,1.03-8.55-8.97-8.55"/>
	</g>
	<g>
		<path class="st3" d="M351.87,555.01c0-3.31,2.9-6,6.49-6s6.49,2.69,6.49,6s-2.9,3.35-6.49,3.35S351.87,558.32,351.87,555.01z"/>
		<path class="st4" d="M355.36,588.82c0,0,1.79,5.91,2.85,7.1c0.21,0.23,2.61-7.01,2.61-7.01"/>
		<g>
			<path class="st5" d="M358.19,565.89c5.41,0,8.9,3.5,8.9,3.5"/>
			<path class="st5" d="M349.62,569.39c0,0,3.16-3.5,8.57-3.5"/>
		</g>
		<path class="st4" d="M362.85,574.03c0,0,4.99,5.16,6.02,7.28c1.17,2.41,1.78,8.24,3.79,10.02c1.23,1.1,3.08,3.21,3.08,4.59"/>
		<path class="st4" d="M353.33,567.24c0,0-4.99-5.16-6.02-7.28c-1.17-2.41-4.78-4.49-6.79-6.28c-1.23-1.1-6.6,0-6.6,0"/>
		<path class="st4" d="M366.91,577.2c0,0,7.18,0.12,9.41,0.89c2.53,0.88,3.59,12.57,6.27,12.41c1.65-0.1,3.81,3.21,3.81,3.21"/>
		<path class="st4" d="M364.84,567.24c0,0,4.98-5.16,6.01-7.28c1.17-2.41,3.55-4.98,5.55-6.76c1.23-1.1,6.59,0,6.59,0"/>
		<path class="st4" d="M353.32,574.81c0,0-4.98,5.16-6.01,7.28c-1.17,2.41-1.78,8.24-3.78,10.03c-1.23,1.1-3.83,2.95-3.83,5.22"/>
		<path class="st6" d="M347.36,574.06c0-8.83,6.99-7.99,12.92-7.99s8.54-0.84,8.54,7.99s-4.8,15.99-10.73,15.99
			C352.17,590.04,347.36,582.89,347.36,574.06z"/>
		<path class="st4" d="M348.03,579.85c0,0-7.17,0.12-9.4,0.9c-2.53,0.88,0.96,9.46-1.71,9.3c-1.65-0.1-5.57,3.66-5.57,3.66"/>
		<g>
			<path class="st5" d="M358.19,574.95c5.41,0,8.9,4.5,8.9,4.5"/>
			<path class="st5" d="M349.09,579.45c0,0,3.69-4.5,9.1-4.5"/>
		</g>
		<g>
			<path class="st5" d="M358.09,581.81c3.59,0,6.5,3,6.5,3"/>
			<path class="st5" d="M351.59,584.81c0,0,2.91-3,6.5-3"/>
		</g>
		
			<ellipse transform="matrix(0.7071 -0.7071 0.7071 0.7071 -305.9276 412.6276)" class="st6" cx="345.12" cy="575.6" rx="14.5" ry="6.5"/>
		
			<ellipse transform="matrix(0.7071 -0.7071 0.7071 0.7071 -298.3297 430.9702)" class="st6" cx="371.06" cy="575.6" rx="6.5" ry="14.5"/>
		<ellipse class="st3" cx="351.87" cy="554.61" rx="2.12" ry="3.75"/>
		<ellipse class="st3" cx="364.84" cy="554.61" rx="2.12" ry="3.75"/>
		<ellipse class="st7" cx="352.18" cy="553.2" rx="1.06" ry="0.95"/>
		<ellipse class="st7" cx="364.54" cy="553.2" rx="1.06" ry="0.95"/>
		<ellipse class="st6" cx="358.36" cy="563.89" rx="7.21" ry="6"/>
		<path class="st4" d="M362.59,550.86c0,0-0.97-8.55,8.47-8.55"/>
		<path class="st4" d="M354.09,550.86c0,0,1.03-8.55-8.97-8.55"/>
	</g>
	<g>
		<path class="st3" d="M351.87,677.35c0-3.31,2.9-6,6.49-6s6.49,2.69,6.49,6s-2.9,3.35-6.49,3.35S351.87,680.66,351.87,677.35z"/>
		<path class="st4" d="M355.36,711.16c0,0,1.79,5.91,2.85,7.1c0.21,0.23,2.61-7.01,2.61-7.01"/>
		<g>
			<path class="st5" d="M358.19,688.23c5.41,0,8.9,3.5,8.9,3.5"/>
			<path class="st5" d="M349.62,691.73c0,0,3.16-3.5,8.57-3.5"/>
		</g>
		<path class="st4" d="M362.85,696.37c0,0,4.99,5.16,6.02,7.28c1.17,2.41,1.78,8.24,3.79,10.03c1.23,1.1,3.08,3.21,3.08,4.59"/>
		<path class="st4" d="M353.33,689.58c0,0-4.99-5.16-6.02-7.28c-1.17-2.41-4.78-4.49-6.79-6.28c-1.23-1.1-6.6,0-6.6,0"/>
		<path class="st4" d="M366.91,699.54c0,0,7.18,0.12,9.41,0.89c2.53,0.88,3.59,12.57,6.27,12.41c1.65-0.1,3.81,3.21,3.81,3.21"/>
		<path class="st4" d="M364.84,689.58c0,0,4.98-5.16,6.01-7.28c1.17-2.41,3.55-4.98,5.55-6.76c1.23-1.1,6.59,0,6.59,0"/>
		<path class="st4" d="M353.32,697.15c0,0-4.98,5.16-6.01,7.28c-1.17,2.41-1.78,8.24-3.78,10.02c-1.23,1.1-3.83,2.95-3.83,5.22"/>
		<path class="st6" d="M347.36,696.39c0-8.83,6.99-7.99,12.92-7.99s8.54-0.84,8.54,7.99s-4.8,15.99-10.73,15.99
			C352.17,712.38,347.36,705.22,347.36,696.39z"/>
		<path class="st4" d="M348.03,702.18c0,0-7.17,0.12-9.4,0.9c-2.53,0.88,0.96,9.46-1.71,9.3c-1.65-0.1-5.57,3.66-5.57,3.66"/>
		<g>
			<path class="st5" d="M358.19,697.29c5.41,0,8.9,4.5,8.9,4.5"/>
			<path class="st5" d="M349.09,701.79c0,0,3.69-4.5,9.1-4.5"/>
		</g>
		<g>
			<path class="st5" d="M358.09,704.15c3.59,0,6.5,3,6.5,3"/>
			<path class="st5" d="M351.59,707.15c0,0,2.91-3,6.5-3"/>
		</g>
		
			<ellipse transform="matrix(0.7071 -0.7071 0.7071 0.7071 -392.4343 448.4598)" class="st6" cx="345.12" cy="697.94" rx="14.5" ry="6.5"/>
		
			<ellipse transform="matrix(0.7071 -0.7071 0.7071 0.7071 -384.8363 466.8024)" class="st6" cx="371.06" cy="697.94" rx="6.5" ry="14.5"/>
		<ellipse class="st3" cx="351.87" cy="676.95" rx="2.12" ry="3.75"/>
		<ellipse class="st3" cx="364.84" cy="676.95" rx="2.12" ry="3.75"/>
		<ellipse class="st7" cx="352.18" cy="675.54" rx="1.06" ry="0.95"/>
		<ellipse class="st7" cx="364.54" cy="675.54" rx="1.06" ry="0.95"/>
		<ellipse class="st6" cx="358.36" cy="686.23" rx="7.21" ry="6"/>
		<path class="st4" d="M362.59,673.2c0,0-0.97-8.55,8.47-8.55"/>
		<path class="st4" d="M354.09,673.2c0,0,1.03-8.55-8.97-8.55"/>
	</g>
	<g>
		<path class="st3" d="M490.58,555.01c0-3.31,2.9-6,6.49-6s6.49,2.69,6.49,6s-2.9,3.35-6.49,3.35S490.58,558.32,490.58,555.01z"/>
		<path class="st4" d="M494.07,588.82c0,0,1.79,5.91,2.85,7.1c0.21,0.23,2.61-7.01,2.61-7.01"/>
		<g>
			<path class="st5" d="M496.9,565.89c5.41,0,8.9,3.5,8.9,3.5"/>
			<path class="st5" d="M488.33,569.39c0,0,3.16-3.5,8.57-3.5"/>
		</g>
		<path class="st4" d="M501.57,574.03c0,0,4.99,5.16,6.02,7.28c1.17,2.41,1.78,8.24,3.79,10.02c1.23,1.1,3.08,3.21,3.08,4.59"/>
		<path class="st4" d="M492.04,567.24c0,0-4.99-5.16-6.02-7.28c-1.17-2.41-4.78-4.49-6.79-6.28c-1.23-1.1-6.6,0-6.6,0"/>
		<path class="st4" d="M505.62,577.2c0,0,7.18,0.12,9.41,0.89c2.53,0.88,3.59,12.57,6.27,12.41c1.65-0.1,3.81,3.21,3.81,3.21"/>
		<path class="st4" d="M503.56,567.24c0,0,4.98-5.16,6.01-7.28c1.17-2.41,3.55-4.98,5.55-6.76c1.23-1.1,6.59,0,6.59,0"/>
		<path class="st4" d="M492.03,574.81c0,0-4.98,5.16-6.01,7.28c-1.17,2.41-1.78,8.24-3.78,10.03c-1.23,1.1-3.83,2.95-3.83,5.22"/>
		<path class="st6" d="M486.07,574.06c0-8.83,6.99-7.99,12.92-7.99c5.93,0,8.54-0.84,8.54,7.99s-4.8,15.99-10.73,15.99
			S486.07,582.89,486.07,574.06z"/>
		<path class="st4" d="M486.74,579.85c0,0-7.17,0.12-9.4,0.9c-2.53,0.88,0.96,9.46-1.71,9.3c-1.65-0.1-5.57,3.66-5.57,3.66"/>
		<g>
			<path class="st5" d="M496.9,574.95c5.41,0,8.9,4.5,8.9,4.5"/>
			<path class="st5" d="M487.81,579.45c0,0,3.69-4.5,9.1-4.5"/>
		</g>
		<g>
			<path class="st5" d="M496.81,581.81c3.59,0,6.5,3,6.5,3"/>
			<path class="st5" d="M490.31,584.81c0,0,2.91-3,6.5-3"/>
		</g>
		
			<ellipse transform="matrix(0.7071 -0.7071 0.7071 0.7071 -265.2994 510.7126)" class="st6" cx="483.83" cy="575.6" rx="14.5" ry="6.5"/>
		
			<ellipse transform="matrix(0.7071 -0.7071 0.7071 0.7071 -257.7015 529.0552)" class="st6" cx="509.78" cy="575.6" rx="6.5" ry="14.5"/>
		<ellipse class="st3" cx="490.58" cy="554.61" rx="2.12" ry="3.75"/>
		<ellipse class="st3" cx="503.56" cy="554.61" rx="2.12" ry="3.75"/>
		<ellipse class="st7" cx="490.89" cy="553.2" rx="1.06" ry="0.95"/>
		<ellipse class="st7" cx="503.25" cy="553.2" rx="1.06" ry="0.95"/>
		<ellipse class="st6" cx="497.07" cy="563.89" rx="7.21" ry="6"/>
		<path class="st4" d="M501.3,550.86c0,0-0.97-8.55,8.47-8.55"/>
		<path class="st4" d="M492.8,550.86c0,0,1.03-8.55-8.97-8.55"/>
	</g>
	<g>
		<path class="st3" d="M490.58,677.35c0-3.31,2.9-6,6.49-6s6.49,2.69,6.49,6s-2.9,3.35-6.49,3.35S490.58,680.66,490.58,677.35z"/>
		<path class="st4" d="M494.07,711.16c0,0,1.79,5.91,2.85,7.1c0.21,0.23,2.61-7.01,2.61-7.01"/>
		<g>
			<path class="st5" d="M496.9,688.23c5.41,0,8.9,3.5,8.9,3.5"/>
			<path class="st5" d="M488.33,691.73c0,0,3.16-3.5,8.57-3.5"/>
		</g>
		<path class="st4" d="M501.57,696.37c0,0,4.99,5.16,6.02,7.28c1.17,2.41,1.78,8.24,3.79,10.03c1.23,1.1,3.08,3.21,3.08,4.59"/>
		<path class="st4" d="M492.04,689.58c0,0-4.99-5.16-6.02-7.28c-1.17-2.41-4.78-4.49-6.79-6.28c-1.23-1.1-6.6,0-6.6,0"/>
		<path class="st4" d="M505.62,699.54c0,0,7.18,0.12,9.41,0.89c2.53,0.88,3.59,12.57,6.27,12.41c1.65-0.1,3.81,3.21,3.81,3.21"/>
		<path class="st4" d="M503.56,689.58c0,0,4.98-5.16,6.01-7.28c1.17-2.41,3.55-4.98,5.55-6.76c1.23-1.1,6.59,0,6.59,0"/>
		<path class="st4" d="M492.03,697.15c0,0-4.98,5.16-6.01,7.28c-1.17,2.41-1.78,8.24-3.78,10.02c-1.23,1.1-3.83,2.95-3.83,5.22"/>
		<path class="st6" d="M486.07,696.39c0-8.83,6.99-7.99,12.92-7.99c5.93,0,8.54-0.84,8.54,7.99s-4.8,15.99-10.73,15.99
			S486.07,705.22,486.07,696.39z"/>
		<path class="st4" d="M486.74,702.18c0,0-7.17,0.12-9.4,0.9c-2.53,0.88,0.96,9.46-1.71,9.3c-1.65-0.1-5.57,3.66-5.57,3.66"/>
		<g>
			<path class="st5" d="M496.9,697.29c5.41,0,8.9,4.5,8.9,4.5"/>
			<path class="st5" d="M487.81,701.79c0,0,3.69-4.5,9.1-4.5"/>
		</g>
		<g>
			<path class="st5" d="M496.81,704.15c3.59,0,6.5,3,6.5,3"/>
			<path class="st5" d="M490.31,707.15c0,0,2.91-3,6.5-3"/>
		</g>
		
			<ellipse transform="matrix(0.7071 -0.7071 0.7071 0.7071 -351.8061 546.5449)" class="st6" cx="483.83" cy="697.94" rx="14.5" ry="6.5"/>
		
			<ellipse transform="matrix(0.7071 -0.7071 0.7071 0.7071 -344.2082 564.8875)" class="st6" cx="509.78" cy="697.94" rx="6.5" ry="14.5"/>
		<ellipse class="st3" cx="490.58" cy="676.95" rx="2.12" ry="3.75"/>
		<ellipse class="st3" cx="503.56" cy="676.95" rx="2.12" ry="3.75"/>
		<ellipse class="st7" cx="490.89" cy="675.54" rx="1.06" ry="0.95"/>
		<ellipse class="st7" cx="503.25" cy="675.54" rx="1.06" ry="0.95"/>
		<ellipse class="st6" cx="497.07" cy="686.23" rx="7.21" ry="6"/>
		<path class="st4" d="M501.3,673.2c0,0-0.97-8.55,8.47-8.55"/>
		<path class="st4" d="M492.8,673.2c0,0,1.03-8.55-8.97-8.55"/>
	</g>
	<g>
		<path class="st3" d="M633.07,676.76c0-3.31,2.9-6,6.49-6s6.49,2.69,6.49,6s-2.9,3.35-6.49,3.35S633.07,680.07,633.07,676.76z"/>
		<path class="st4" d="M636.56,710.57c0,0,1.79,5.91,2.85,7.1c0.21,0.23,2.61-7.01,2.61-7.01"/>
		<g>
			<path class="st5" d="M639.39,687.64c5.41,0,8.9,3.5,8.9,3.5"/>
			<path class="st5" d="M630.82,691.14c0,0,3.16-3.5,8.57-3.5"/>
		</g>
		<path class="st4" d="M644.05,695.78c0,0,4.99,5.16,6.02,7.28c1.17,2.41,1.78,8.24,3.79,10.03c1.23,1.1,3.08,3.21,3.08,4.59"/>
		<path class="st4" d="M634.53,688.99c0,0-4.99-5.16-6.02-7.28c-1.17-2.41-4.78-4.49-6.79-6.28c-1.23-1.1-6.6,0-6.6,0"/>
		<path class="st4" d="M648.11,698.95c0,0,7.18,0.12,9.41,0.89c2.53,0.88,3.59,12.57,6.27,12.41c1.65-0.1,3.81,3.21,3.81,3.21"/>
		<path class="st4" d="M646.04,688.99c0,0,4.98-5.16,6.01-7.28c1.17-2.41,3.55-4.98,5.55-6.76c1.23-1.1,6.59,0,6.59,0"/>
		<path class="st4" d="M634.52,696.56c0,0-4.98,5.16-6.01,7.28c-1.17,2.41-1.78,8.24-3.78,10.02c-1.23,1.1-3.83,2.95-3.83,5.22"/>
		<path class="st6" d="M628.56,695.8c0-8.83,6.99-7.99,12.92-7.99s8.54-0.84,8.54,7.99s-4.8,15.99-10.73,15.99
			S628.56,704.63,628.56,695.8z"/>
		<path class="st4" d="M629.23,701.59c0,0-7.17,0.12-9.4,0.9c-2.53,0.88,0.96,9.46-1.71,9.3c-1.65-0.1-5.57,3.66-5.57,3.66"/>
		<g>
			<path class="st5" d="M639.39,696.7c5.41,0,8.9,4.5,8.9,4.5"/>
			<path class="st5" d="M630.29,701.2c0,0,3.69-4.5,9.1-4.5"/>
		</g>
		<g>
			<path class="st5" d="M639.29,703.56c3.59,0,6.5,3,6.5,3"/>
			<path class="st5" d="M632.79,706.56c0,0,2.91-3,6.5-3"/>
		</g>
		
			<ellipse transform="matrix(0.7071 -0.7071 0.7071 0.7071 -309.6549 647.1252)" class="st6" cx="626.32" cy="697.35" rx="14.5" ry="6.5"/>
		
			<ellipse transform="matrix(0.7071 -0.7071 0.7071 0.7071 -302.057 665.4677)" class="st6" cx="652.26" cy="697.35" rx="6.5" ry="14.5"/>
		<ellipse class="st3" cx="633.07" cy="676.36" rx="2.12" ry="3.75"/>
		<ellipse class="st3" cx="646.04" cy="676.36" rx="2.12" ry="3.75"/>
		<ellipse class="st7" cx="633.38" cy="674.95" rx="1.06" ry="0.95"/>
		<ellipse class="st7" cx="645.74" cy="674.95" rx="1.06" ry="0.95"/>
		<ellipse class="st6" cx="639.56" cy="685.64" rx="7.21" ry="6"/>
		<path class="st4" d="M643.79,672.61c0,0-0.97-8.55,8.47-8.55"/>
		<path class="st4" d="M635.29,672.61c0,0,1.03-8.55-8.97-8.55"/>
	</g>
	<g>
		<path class="st3" d="M633.07,555.01c0-3.31,2.9-6,6.49-6s6.49,2.69,6.49,6s-2.9,3.35-6.49,3.35S633.07,558.32,633.07,555.01z"/>
		<path class="st4" d="M636.56,588.82c0,0,1.79,5.91,2.85,7.1c0.21,0.23,2.61-7.01,2.61-7.01"/>
		<g>
			<path class="st5" d="M639.39,565.89c5.41,0,8.9,3.5,8.9,3.5"/>
			<path class="st5" d="M630.82,569.39c0,0,3.16-3.5,8.57-3.5"/>
		</g>
		<path class="st4" d="M644.05,574.03c0,0,4.99,5.16,6.02,7.28c1.17,2.41,1.78,8.24,3.79,10.02c1.23,1.1,3.08,3.21,3.08,4.59"/>
		<path class="st4" d="M634.53,567.24c0,0-4.99-5.16-6.02-7.28c-1.17-2.41-4.78-4.49-6.79-6.28c-1.23-1.1-6.6,0-6.6,0"/>
		<path class="st4" d="M648.11,577.2c0,0,7.18,0.12,9.41,0.89c2.53,0.88,3.59,12.57,6.27,12.41c1.65-0.1,3.81,3.21,3.81,3.21"/>
		<path class="st4" d="M646.04,567.24c0,0,4.98-5.16,6.01-7.28c1.17-2.41,3.55-4.98,5.55-6.76c1.23-1.1,6.59,0,6.59,0"/>
		<path class="st4" d="M634.52,574.81c0,0-4.98,5.16-6.01,7.28c-1.17,2.41-1.78,8.24-3.78,10.03c-1.23,1.1-3.83,2.95-3.83,5.22"/>
		<path class="st6" d="M628.56,574.06c0-8.83,6.99-7.99,12.92-7.99s8.54-0.84,8.54,7.99s-4.8,15.99-10.73,15.99
			S628.56,582.89,628.56,574.06z"/>
		<path class="st4" d="M629.23,579.85c0,0-7.17,0.12-9.4,0.9c-2.53,0.88,0.96,9.46-1.71,9.3c-1.65-0.1-5.57,3.66-5.57,3.66"/>
		<g>
			<path class="st5" d="M639.39,574.95c5.41,0,8.9,4.5,8.9,4.5"/>
			<path class="st5" d="M630.29,579.45c0,0,3.69-4.5,9.1-4.5"/>
		</g>
		<g>
			<path class="st5" d="M639.29,581.81c3.59,0,6.5,3,6.5,3"/>
			<path class="st5" d="M632.79,584.81c0,0,2.91-3,6.5-3"/>
		</g>
		
			<ellipse transform="matrix(0.7071 -0.7071 0.7071 0.7071 -223.566 611.466)" class="st6" cx="626.32" cy="575.6" rx="14.5" ry="6.5"/>
		
			<ellipse transform="matrix(0.7071 -0.7071 0.7071 0.7071 -215.9681 629.8085)" class="st6" cx="652.26" cy="575.6" rx="6.5" ry="14.5"/>
		<ellipse class="st3" cx="633.07" cy="554.61" rx="2.12" ry="3.75"/>
		<ellipse class="st3" cx="646.04" cy="554.61" rx="2.12" ry="3.75"/>
		<ellipse class="st7" cx="633.38" cy="553.2" rx="1.06" ry="0.95"/>
		<ellipse class="st7" cx="645.74" cy="553.2" rx="1.06" ry="0.95"/>
		<ellipse class="st6" cx="639.56" cy="563.89" rx="7.21" ry="6"/>
		<path class="st4" d="M643.79,550.86c0,0-0.97-8.55,8.47-8.55"/>
		<path class="st4" d="M635.29,550.86c0,0,1.03-8.55-8.97-8.55"/>
	</g>
	<g>
		<path class="st3" d="M633.07,433.26c0-3.31,2.9-6,6.49-6s6.49,2.69,6.49,6c0,3.31-2.9,3.35-6.49,3.35S633.07,436.58,633.07,433.26
			z"/>
		<path class="st4" d="M636.56,467.07c0,0,1.79,5.91,2.85,7.1c0.21,0.23,2.61-7.01,2.61-7.01"/>
		<g>
			<path class="st5" d="M639.39,444.14c5.41,0,8.9,3.5,8.9,3.5"/>
			<path class="st5" d="M630.82,447.64c0,0,3.16-3.5,8.57-3.5"/>
		</g>
		<path class="st4" d="M644.05,452.28c0,0,4.99,5.16,6.02,7.28c1.17,2.41,1.78,8.24,3.79,10.02c1.23,1.1,3.08,3.21,3.08,4.59"/>
		<path class="st4" d="M634.53,445.49c0,0-4.99-5.16-6.02-7.28c-1.17-2.41-4.78-4.49-6.79-6.28c-1.23-1.1-6.6,0-6.6,0"/>
		<path class="st4" d="M648.11,455.45c0,0,7.18,0.12,9.41,0.89c2.53,0.88,3.59,12.57,6.27,12.41c1.65-0.1,3.81,3.21,3.81,3.21"/>
		<path class="st4" d="M646.04,445.49c0,0,4.98-5.16,6.01-7.28c1.17-2.41,3.55-4.98,5.55-6.76c1.23-1.1,6.59,0,6.59,0"/>
		<path class="st4" d="M634.52,453.06c0,0-4.98,5.16-6.01,7.28c-1.17,2.41-1.78,8.24-3.78,10.02c-1.23,1.1-3.83,2.95-3.83,5.22"/>
		<path class="st6" d="M628.56,452.31c0-8.83,6.99-7.99,12.92-7.99s8.54-0.84,8.54,7.99s-4.8,15.99-10.73,15.99
			S628.56,461.14,628.56,452.31z"/>
		<path class="st4" d="M629.23,458.1c0,0-7.17,0.12-9.4,0.9c-2.53,0.88,0.96,9.46-1.71,9.3c-1.65-0.1-5.57,3.66-5.57,3.66"/>
		<g>
			<path class="st5" d="M639.39,453.2c5.41,0,8.9,4.5,8.9,4.5"/>
			<path class="st5" d="M630.29,457.7c0,0,3.69-4.5,9.1-4.5"/>
		</g>
		<g>
			<path class="st5" d="M639.29,460.06c3.59,0,6.5,3,6.5,3"/>
			<path class="st5" d="M632.79,463.06c0,0,2.91-3,6.5-3"/>
		</g>
		
			<ellipse transform="matrix(0.7071 -0.7071 0.7071 0.7071 -137.4771 575.8068)" class="st6" cx="626.32" cy="453.85" rx="14.5" ry="6.5"/>
		
			<ellipse transform="matrix(0.7071 -0.7071 0.7071 0.7071 -129.8793 594.1494)" class="st6" cx="652.26" cy="453.85" rx="6.5" ry="14.5"/>
		<ellipse class="st3" cx="633.07" cy="432.86" rx="2.12" ry="3.75"/>
		<ellipse class="st3" cx="646.04" cy="432.86" rx="2.12" ry="3.75"/>
		<ellipse class="st7" cx="633.38" cy="431.45" rx="1.06" ry="0.95"/>
		<ellipse class="st7" cx="645.74" cy="431.45" rx="1.06" ry="0.95"/>
		<ellipse class="st6" cx="639.56" cy="442.14" rx="7.21" ry="6"/>
		<path class="st4" d="M643.79,429.11c0,0-0.97-8.55,8.47-8.55"/>
		<path class="st4" d="M635.29,429.11c0,0,1.03-8.55-8.97-8.55"/>
	</g>
</g>
<g id="Layer_4">
	<polygon class="st4" points="211.16,44.93 214.16,50.93 226.16,50.93 229.16,44.93 223.16,45.93 220.16,41.93 217.16,45.93 	"/>
	<polygon class="st4" points="72.44,44.93 75.44,50.93 87.44,50.93 90.44,44.93 84.44,45.93 81.44,41.93 78.44,45.93 	"/>
</g>
</svg>
